<svg xmlns="http://www.w3.org/2000/svg" viewBox="0 0 225.5 39.49"><title>Crunchyroll logo</title><path d="M509.48,503.69c-4.61,0-8.41.42-8.41,3.53v15.47h4.35v-14c0-.8,2.25-1,3.48-1,4,0,3.88,1.73,3.88,3.38v11.61h4.32V511C517.09,505.77,514.52,503.69,509.48,503.69Zm110.82,19h4.45V496.88H620.3Zm-9.64,0h4.45V496.88h-4.45Zm-12.6-3.35c-2.65,0-4.32-1-4.32-5.94s1.68-5.94,4.32-5.94,4.32,1,4.32,5.94-1.68,5.94-4.32,5.94Zm0-15.61c-5.66,0-8.79,3.42-8.79,9.67s3.12,9.67,8.79,9.67,8.78-3.42,8.78-9.67S603.71,503.74,598.06,503.74Zm-20.31,2.36V522.7h4.46v-14c0-1.1,2.73-1.06,5.21-1.1V503.7s-9.67-.4-9.67,2.4ZM565.89,517l-4.16-13H557l6.63,17.72c-.23.66,0,0-3.38,8.36h4.65l2.69-6.94,7-19.14H570l-4.08,13ZM546.31,503.7a10,10,0,0,0-3.71.64v-7.45h-4.45V522.7h4.45V508.23a7.22,7.22,0,0,1,3-.56c4.15,0,4.53,1.76,4.53,3.41V522.7h4.41V511.46c0-4.87-3-7.75-8.19-7.75Zm-12.16,14.57a12,12,0,0,1-4.62.94c-3.13,0-5.07-1-5.07-5.8s1.94-5.8,5.07-5.8a12.08,12.08,0,0,1,4.62.9v-3.76a14.34,14.34,0,0,0-5.37-1.05c-5.66,0-8.8,3.46-8.8,9.71s3.14,9.68,8.8,9.68a14.39,14.39,0,0,0,5.37-1.06v-3.76Zm-41.59-3.4c0,3-1.09,4-3.8,4s-3.77-1-3.77-4V504h-4.38v10.27c0,5.53,1.78,8.8,8.14,8.8s8.18-3.27,8.18-8.8V504h-4.38v10.87ZM472,508.71c0-1.11,2.71-1.07,5.19-1.11V503.7s-9.64-.39-9.64,2.4V522.7H472Zm-23,4.7c0-6.24,3.12-9.7,8.79-9.7a14.37,14.37,0,0,1,5.36,1.05v3.76a12.06,12.06,0,0,0-4.62-.9c-3.13,0-5.06.94-5.06,5.79s1.93,5.79,5.06,5.79a12.09,12.09,0,0,0,4.62-.94V522a14.38,14.38,0,0,1-5.36,1.05C452.18,523.07,449.05,519.65,449.05,513.41Zm-18.05,2a6.31,6.31,0,0,0,5-2.52,13.87,13.87,0,1,1-27.51,2.54h0a13.87,13.87,0,0,1,20.32-12.28A6.32,6.32,0,0,0,431,515.36Zm-12-23.1A19.74,19.74,0,0,1,438.74,512q0,.59,0,1.16a17.35,17.35,0,1,0-18.37,18.54c-.44,0-.89,0-1.34,0a19.74,19.74,0,0,1,0-39.49Z" transform="translate(-399.25 -492.26)" style="fill:#df6300"/></svg>