<svg width="161" height="92" viewBox="0 0 161 92" fill="none" xmlns="http://www.w3.org/2000/svg">
<g clip-path="url(#clip0_10_4571)">
<path d="M75.6901 40.6886H75.8229C76.7508 40.7805 77.6619 40.9971 78.5318 41.3326C79.1752 41.5944 79.6981 42.0864 79.9987 42.7126C80.2689 43.1929 80.4347 43.7248 80.4852 44.2735C80.5357 44.8223 80.4697 45.3755 80.2917 45.897C80.1137 46.4186 79.8276 46.8966 79.4521 47.3C79.0766 47.7033 78.6202 48.0228 78.1127 48.2376C77.3384 48.6011 76.5063 48.826 75.6543 48.9021C74.0569 49.0556 72.448 48.7674 71.0032 48.069C70.0446 47.6367 69.2278 46.9421 68.647 46.0655C68.4568 45.7368 68.3644 45.3607 68.3807 44.9813C68.397 44.6019 68.5213 44.235 68.739 43.9239C69.4699 42.9017 71.0339 42.7075 72.2094 42.7484C73.3526 42.818 74.4833 43.0239 75.5776 43.3617C76.0163 43.5105 76.4378 43.7058 76.8349 43.9444C76.891 43.9947 76.9325 44.0593 76.955 44.1312C76.9775 44.2032 76.9802 44.2799 76.9627 44.3532C76.7685 44.9512 75.3221 45.263 74.9183 45.3243C73.799 45.4981 73.2214 45.0739 71.9488 44.5679C71.6098 44.4267 71.2543 44.3289 70.8908 44.2766C70.3132 44.2204 69.6181 44.3839 69.5057 45.0126C69.4495 45.3397 69.8328 45.6412 70.1241 45.769C70.7236 46.0383 71.3733 46.1777 72.0305 46.1779C74.0136 46.2086 76.2421 45.8815 77.8674 44.7366C77.99 44.6653 78.0941 44.5661 78.1714 44.4472C78.2486 44.3282 78.2968 44.1927 78.312 44.0517C78.312 43.4588 77.2898 43.101 77.2898 43.101C76.196 42.6462 74.1772 42.4213 73.1396 42.3395C72.1021 42.2577 70.3286 42.1044 69.9197 42.0431C69.4903 41.9952 69.0692 41.8903 68.6675 41.7313C68.4686 41.6395 68.2913 41.5071 68.1469 41.3424C68.0025 41.1778 67.8943 40.9846 67.8293 40.7755C67.7513 40.3893 67.7513 39.9913 67.8295 39.6051C67.9076 39.2189 68.0622 38.8522 68.2841 38.5267C69.3677 36.9933 71.9079 36.3749 73.8041 36.1398C75.7003 35.9047 78.6085 35.9149 80.4127 36.8707C80.6887 37.0189 80.8318 37.1569 80.7756 37.4584C80.7187 37.7139 80.5935 37.949 80.4135 38.139C80.2335 38.3289 80.0053 38.4664 79.7533 38.5369C79.0544 38.691 78.3426 38.78 77.6271 38.8027C75.4549 38.9253 72.8279 38.8589 70.7528 39.4262C70.5693 39.4669 70.3956 39.5433 70.2417 39.6511C69.9197 40.0038 70.8448 40.106 71.0441 40.1622H71.177L75.7769 40.704M62.8409 30.993C62.8409 30.993 63.1935 30.4819 63.49 30.0576C64.1604 29.1941 64.9136 28.3981 65.7388 27.681L66.2499 27.2721C66.2499 27.2721 65.836 27.313 65.6008 27.3641C64.9414 27.5766 64.3338 27.9248 63.8171 28.3863C63.1424 28.9639 62.4013 29.9197 62.7387 30.7374C62.7898 30.855 62.8613 31.0134 62.8613 31.0134M66.6128 32.0356C67.6651 31.963 68.6881 31.6575 69.6079 31.1412C70.5177 30.6301 71.8619 29.6385 71.7188 28.4681C71.6989 28.2934 71.6325 28.1272 71.5264 27.9869C71.4203 27.8466 71.2784 27.7375 71.1157 27.6708C70.9369 27.5886 70.7425 27.5461 70.5458 27.5461C70.3491 27.5461 70.1547 27.5886 69.9759 27.6708C69.6574 27.7543 69.3527 27.8834 69.0713 28.0541C67.8086 28.8489 66.6832 29.8431 65.7388 30.9981C65.5548 31.2434 65.3657 31.5092 65.2277 31.7034C65.0897 31.8976 65.0642 31.9232 65.0693 31.9539C65.1 32.0714 66.1988 32.0612 66.6026 32.0305M63.8886 34.0238C63.7581 34.2143 63.6419 34.4141 63.5411 34.6218C63.4722 34.738 63.384 34.8417 63.2804 34.9285C63.2299 34.9812 63.1692 35.0231 63.102 35.0518C63.0348 35.0805 62.9625 35.0952 62.8894 35.0952C62.8164 35.0952 62.7441 35.0805 62.6769 35.0518C62.6097 35.0231 62.549 34.9812 62.4984 34.9285C62.3128 34.7561 62.1634 34.5484 62.059 34.3176C61.9546 34.0868 61.8972 33.8375 61.8902 33.5843C61.9072 33.3699 61.9072 33.1546 61.8902 32.9403C61.7484 32.6097 61.5646 32.2988 61.3433 32.0152C61.1322 31.5922 61.0055 31.1322 60.9702 30.6607C60.9755 30.0511 61.1041 29.4488 61.3483 28.8902C61.5925 28.3315 61.9472 27.8281 62.3911 27.4101C63.2843 26.4801 64.3595 25.7441 65.5497 25.2481C66.6895 24.7677 68.3557 24.4406 69.6028 24.875C70.0863 25.0481 70.5187 25.3399 70.8601 25.7235C70.9086 25.7961 70.9671 25.8615 71.0339 25.9177C71.1361 25.9549 71.2425 25.9789 71.3508 25.9893C71.789 26.0921 72.2002 26.2872 72.557 26.5617C72.9929 26.8991 73.2939 27.3813 73.4054 27.9212C73.6456 29.0559 72.9914 30.2979 72.2503 31.0543C71.093 32.3039 69.6717 33.2799 68.0899 33.9114C67.2499 34.2445 66.3508 34.4028 65.4475 34.3765C65.1971 34.3765 64.9364 34.2896 64.6911 34.2743C64.4751 34.2399 64.2629 34.1851 64.0573 34.1107C63.996 34.0647 63.9193 34.0238 63.904 34.0392M65.3606 36.5538C65.4269 36.5667 65.4919 36.5855 65.5548 36.61C65.8123 36.7331 66.0341 36.9197 66.1995 37.1521C66.3649 37.3846 66.4685 37.6554 66.5004 37.9389C66.7969 39.7581 66.9677 41.5956 67.0115 43.4384C67.0524 44.3124 67.0728 45.1761 67.1086 46.045C67.1809 46.8437 67.1603 47.6481 67.0473 48.4421C66.9846 48.7183 66.8204 48.961 66.5873 49.1219C66.1996 49.284 65.772 49.325 65.3606 49.2394C64.5224 49.0656 64.2515 48.529 64.134 47.7061C63.9076 45.217 63.9076 42.7126 64.134 40.2235C64.2205 39.2104 64.4019 38.2077 64.6757 37.2284C64.7729 36.9831 64.9773 36.4925 65.3351 36.5589M39.8974 39.8402C39.8974 39.8402 38.6503 39.9271 37.7967 40.0242C36.332 40.1846 34.8859 40.4841 33.4779 40.9186C33.1252 41.0464 32.4046 41.348 32.3381 41.7108C32.3305 41.8963 32.3651 42.081 32.4395 42.2511C32.5139 42.4211 32.6261 42.5719 32.7675 42.6922C32.9208 42.871 33.7897 43.7144 34.0095 43.8881C35.4029 44.9901 36.9274 45.9154 38.5481 46.643C39.0592 46.8577 39.9127 47.1541 39.9127 47.1541C39.9127 47.1541 39.8514 44.7315 39.8616 42.3395C39.8616 41.0771 39.8974 39.83 39.8974 39.83M62.7182 40.796C62.7443 41.4798 62.7032 42.1646 62.5955 42.8404C62.5012 43.2973 62.3731 43.7466 62.2122 44.1846C62.0057 44.6576 61.7754 45.1199 61.5222 45.5697C60.9827 46.4532 60.3259 47.2596 59.5698 47.9668C57.4283 49.817 54.1112 50.8749 51.2644 51.2174C49.2019 51.4621 47.1146 51.4018 45.0698 51.0385C44.3644 50.9107 43.3167 50.6705 43.3167 50.6705C43.3167 50.6705 43.3167 51.0896 43.286 51.3861C43.2496 51.5927 43.1913 51.7948 43.1122 51.9892C43.0397 52.1293 42.9336 52.2494 42.8034 52.3386C42.6732 52.4277 42.5229 52.4833 42.366 52.5003C41.9432 52.6048 41.4991 52.5835 41.0883 52.4389C40.4392 52.1629 40.204 51.5547 40.066 50.8545C39.974 50.2923 39.8769 49.3212 39.8769 49.3212C39.8769 49.3212 39.3658 49.0912 38.9825 48.8867C37.7673 48.283 36.6077 47.5732 35.5172 46.7657C35.231 46.551 33.9839 45.5186 33.7283 45.263C32.9543 44.579 32.2891 43.781 31.7555 42.8966C31.5474 42.5873 31.419 42.2313 31.3815 41.8604C31.3441 41.4895 31.3988 41.1151 31.5408 40.7704C31.965 39.7022 33.4932 38.8998 34.541 38.4449C35.8835 37.9047 37.2704 37.4823 38.6861 37.1824C39.1563 37.116 39.882 36.9831 39.928 36.9576L39.974 36.9167C39.974 36.886 40.0354 35.828 40.0303 35.4447C40.0252 35.0614 40.3114 32.5723 40.4034 32.0458C40.4856 31.4686 40.649 30.9059 40.8889 30.3745C40.9639 30.2889 41.0693 30.2357 41.1827 30.2262C41.2962 30.2167 41.4089 30.2515 41.4971 30.3234C42.6369 31.0288 42.9793 33.482 43.0662 34.7342C43.1173 35.4958 43.1429 36.6407 43.1429 36.6407C43.1429 36.6407 44.4462 36.5998 45.2486 36.6407C46.0697 36.6778 46.8875 36.7683 47.6968 36.9116C49.1475 37.1293 50.5645 37.5312 51.9135 38.1075C52.8269 38.5446 53.5564 39.2904 53.9732 40.2133C54.112 40.5429 54.1682 40.9014 54.137 41.2577C54.1059 41.6139 53.9882 41.9572 53.7943 42.2577C53.5695 42.6603 53.251 43.0029 52.8658 43.2564C52.4806 43.51 52.04 43.667 51.5812 43.7144C51.0505 43.71 50.5272 43.5897 50.0479 43.3617C49.995 43.3145 49.9627 43.2485 49.958 43.1778C49.9532 43.1071 49.9763 43.0373 50.0224 42.9835C50.053 42.9426 50.5335 42.6973 50.789 42.5542C50.9182 42.4858 51.0383 42.4017 51.1468 42.3037C51.3717 42.1044 51.5761 41.8846 51.5557 41.6291C51.525 41.2968 51.1723 41.0873 50.835 40.9544C48.8026 40.2879 46.6968 39.8709 44.5638 39.7124C43.9658 39.6766 43.1173 39.646 43.1173 39.646L43.2962 48.0792C43.2962 48.0792 44.0016 48.2121 44.5535 48.3041C44.8704 48.3501 46.2197 48.4728 46.598 48.483C49.3222 48.5545 52.3632 48.3092 54.8625 47.1285C55.9489 46.6518 56.9251 45.9558 57.7298 45.0841C58.2422 44.4848 58.6293 43.7889 58.868 43.0374C59.1068 42.2859 59.1925 41.4942 59.12 40.7091C58.9667 38.91 57.6992 36.7736 56.6923 35.4754C54.0192 32.0407 49.4448 29.2143 45.4173 27.5583C41.442 25.8704 37.1949 24.9129 32.8799 24.7319C31.2649 24.6635 29.6474 24.7836 28.0602 25.0897C27.8813 25.1408 27.7024 25.197 27.5491 25.2379C27.4123 25.2732 27.2814 25.3283 27.1606 25.4015L27.0993 25.4628L27.2475 25.5344C27.3804 25.5906 27.9324 25.6264 28.2186 25.6775C28.3427 25.6936 28.4623 25.7345 28.5703 25.7978C28.6782 25.861 28.7724 25.9452 28.8473 26.0455C28.8999 26.1115 28.9286 26.1935 28.9286 26.278C28.9286 26.3625 28.8999 26.4445 28.8473 26.5106C28.5662 26.853 27.5082 26.7968 27.0431 26.7201C26.578 26.6435 25.9544 26.4953 25.8471 26.0761C25.7783 25.5701 25.9084 25.0571 26.21 24.645C26.4556 24.2194 26.7892 23.8511 27.1884 23.5647C27.5877 23.2783 28.0434 23.0803 28.5253 22.984C30.1226 22.5579 31.7604 22.3009 33.4115 22.2173C36.6336 22.1461 39.8445 22.6213 42.9078 23.6228C44.9266 24.2494 46.8991 25.0162 48.811 25.9177C50.2859 26.6483 51.7207 27.457 53.1094 28.3403C53.457 28.5703 55.4861 30.0628 55.803 30.3234C56.4623 30.8601 57.3363 31.6319 57.9445 32.2503C59.2963 33.572 60.4528 35.0796 61.3791 36.7276C61.5529 37.0751 61.6909 37.4176 61.9158 37.8213C62.0972 38.211 62.2526 38.6122 62.3809 39.0224C62.4371 39.2575 62.5138 39.6051 62.5291 39.6204C62.6061 39.9863 62.659 40.3568 62.6875 40.7295M103.642 38.864C101.809 39.1502 99.961 39.3327 98.1071 39.4109L97.596 40.9953C98.7494 40.9062 99.9079 40.9062 101.061 40.9953C101.061 40.9953 101.532 40.9391 101.572 41.5064C101.581 41.8886 101.566 42.271 101.526 42.6513C101.526 42.6513 101.496 43.0091 100.99 43.101C100.484 43.193 96.6709 43.3362 96.6709 43.3362L96.0627 45.3806C96.0627 45.3806 95.8378 45.8559 96.3438 45.723C96.8498 45.5901 100.77 44.8541 101.281 44.9615C101.6 45.059 101.875 45.2666 102.055 45.5473C102.236 45.8281 102.311 46.1638 102.268 46.4948C102.058 47.3279 98.1122 49.8425 95.71 49.6636C95.71 49.6636 94.4476 49.7454 93.3794 48.0434C92.3878 46.4181 93.7576 43.3464 93.7576 43.3464C93.7576 43.3464 93.129 41.9102 93.5838 41.4246C93.8979 41.2195 94.2668 41.1143 94.6418 41.1231L95.6078 39.1247C95.2787 39.1386 94.9505 39.0798 94.6467 38.9526C94.3428 38.8254 94.0707 38.6329 93.8496 38.3887C93.2414 37.622 93.1903 37.2693 93.6554 37.0547C94.1205 36.84 98.7664 35.9711 101.894 36.0785C101.894 36.0785 102.993 35.9711 103.939 37.8724C103.939 37.8724 104.399 38.6442 103.617 38.8282M91.749 46.4948C91.3452 47.4454 90.277 48.4625 88.9481 47.8288C87.6192 47.195 85.5493 42.9273 85.5493 42.9273C85.5493 42.9273 84.7571 41.3326 84.6037 41.3939C84.6037 41.3939 84.4351 41.0822 84.3277 42.825C84.2204 44.5679 84.3277 47.9361 83.6582 48.4472C83.5228 48.566 83.3629 48.6534 83.1897 48.7032C83.0166 48.7529 82.8347 48.7638 82.6569 48.735C82.4791 48.7062 82.3099 48.6384 82.1613 48.5365C82.0128 48.4346 81.8887 48.3011 81.7978 48.1457C81.4247 47.5323 81.2867 46.0757 81.4706 43.5099C81.6546 40.9442 82.3089 38.2149 83.0704 37.3767C83.1608 37.247 83.2812 37.1411 83.4214 37.0679C83.5616 36.9948 83.7173 36.9566 83.8754 36.9566C84.0335 36.9566 84.1893 36.9948 84.3294 37.0679C84.4696 37.1411 84.59 37.247 84.6804 37.3767C84.6804 37.3767 85.7026 38.2967 87.3739 41.0055L87.6704 41.5166C87.6704 41.5166 89.2037 44.0721 89.357 44.0721C89.357 44.0721 89.4797 44.1897 89.5921 44.1028C89.7046 44.0159 89.6892 43.239 89.6892 43.239C89.3169 40.6956 88.7461 38.1853 87.9821 35.7309C87.8607 35.3633 87.8378 34.9703 87.9157 34.5911C88.0588 34.034 88.6159 34.2947 88.6159 34.2947C88.6159 34.2947 90.7728 35.3782 91.8205 38.8947C92.8683 42.4111 92.163 45.5748 91.749 46.5306M114.953 44.4299C113.972 46.1421 111.202 49.7301 107.517 48.8816C106.091 52.1967 105.141 55.6966 104.695 59.2775C104.695 59.2775 104.567 60.1464 103.847 59.8448C103.126 59.5433 101.956 58.4086 101.716 56.7782C101.46 54.6213 102.421 50.9721 104.383 46.7861C103.656 45.5303 103.432 44.0456 103.755 42.6308C103.755 42.6308 104.266 39.1144 107.782 35.9405C107.782 35.9405 108.207 35.5725 108.452 35.6849C108.697 35.7974 108.595 36.9422 108.38 37.4993C108.166 38.0564 106.586 40.7755 106.586 40.7755C106.586 40.7755 105.605 42.6155 105.881 44.067C107.736 41.2202 111.948 35.4754 114.57 37.2847C115.449 37.9133 115.853 39.278 115.853 40.75C115.864 42.036 115.558 43.305 114.963 44.4452M114.202 39.9322C114.202 39.9322 114.059 38.7975 112.95 40.0498C111.356 41.7668 109.994 43.6843 108.897 45.7537C110.088 45.6039 111.217 45.138 112.168 44.4044C112.858 43.7961 114.457 42.1402 114.212 39.9373M135.259 39.6818H128.513C128.357 37.4056 128.055 35.1418 127.608 32.9045C127.584 32.7873 127.52 32.6822 127.427 32.6075C127.333 32.5328 127.217 32.4932 127.097 32.4956H125.564C125.496 32.4959 125.429 32.5111 125.368 32.5401C125.307 32.5691 125.253 32.6112 125.21 32.6634C125.167 32.7156 125.136 32.7767 125.12 32.8422C125.103 32.9077 125.101 32.9761 125.114 33.0425C125.552 35.2521 125.839 37.4892 125.973 39.738H119.482C119.336 39.738 119.197 39.7956 119.095 39.8982C118.992 40.0007 118.935 40.1398 118.935 40.2849V41.6904C118.935 41.8354 118.992 41.9745 119.095 42.0771C119.197 42.1797 119.336 42.2373 119.482 42.2373H126.039C126.039 42.5848 126.039 42.8915 126.039 43.1828C126.047 45.0421 125.95 46.9004 125.748 48.7488C125.74 48.8204 125.747 48.893 125.769 48.9616C125.791 49.0303 125.828 49.0935 125.876 49.1471C125.924 49.2007 125.983 49.2434 126.049 49.2726C126.115 49.3017 126.187 49.3165 126.259 49.3161H127.7C127.838 49.3151 127.971 49.2618 128.071 49.167C128.172 49.0722 128.233 48.9428 128.242 48.805C128.437 46.9374 128.531 45.0606 128.523 43.1828C128.523 42.8915 128.523 42.5797 128.523 42.2373H135.167C135.312 42.2359 135.45 42.1779 135.553 42.0756C135.655 41.9734 135.713 41.835 135.714 41.6904V40.2849C135.714 40.1398 135.657 40.0007 135.554 39.8982C135.451 39.7956 135.312 39.738 135.167 39.738" fill="#101C50"/>
<path d="M44.9674 20.9038C44.9206 20.9736 44.8907 21.0534 44.8801 21.1368C44.8694 21.2202 44.8784 21.3049 44.9061 21.3842C44.9337 21.4634 44.9789 21.5353 45.0382 21.5946C45.0975 21.6539 45.1694 21.699 45.2485 21.7267L46.4599 22.1356C46.5292 22.1582 46.6016 22.1703 46.6745 22.1713C46.7845 22.1711 46.8928 22.1439 46.9899 22.0923C47.087 22.0406 47.17 21.966 47.2316 21.8749C51.2667 15.9274 56.6967 11.0584 63.0474 7.69327C69.398 4.32817 76.4761 2.56934 83.6632 2.57046C92.3198 2.57283 100.784 5.12473 107.999 9.90764C115.214 14.6906 120.861 21.4926 124.235 29.4648C124.283 29.5796 124.364 29.6777 124.467 29.7468C124.571 29.8159 124.693 29.8529 124.817 29.8532H126.264C126.346 29.8514 126.426 29.8298 126.498 29.7903C126.57 29.7509 126.631 29.6947 126.677 29.6265C126.722 29.5583 126.751 29.4802 126.76 29.3987C126.769 29.3172 126.758 29.2347 126.729 29.1581C123.542 21.3317 118.282 14.5215 111.516 9.45908C104.75 4.39668 96.732 1.2734 88.3242 0.424734C79.9164 -0.423929 71.4362 1.03411 63.7947 4.64222C56.1532 8.25034 49.6391 13.8722 44.9521 20.9038" fill="url(#paint0_linear_10_4571)"/>
</g>
<g clip-path="url(#clip1_10_4571)">
<path d="M122.412 74.3704V66.6949H127.767V74.3704H135.759V79.4889H127.758V87.142H122.403V79.4844H114.37V74.3704H122.412Z" fill="#241C32"/>
<path d="M98.5597 68.7834H101.92C103.942 68.7834 105.236 69.8277 105.236 71.6573C105.236 73.6475 103.942 74.9417 101.92 74.9417H98.5597V68.7834ZM104.361 78.9445C106.118 78.7129 107.732 77.8507 108.9 76.5184C110.069 75.1861 110.715 73.4744 110.716 71.7019C110.716 66.762 107.355 64.0532 101.938 64.0532H93.1914V88.9047H98.5731V78.9445L105.267 88.8958H111.514L104.361 78.9445Z" fill="#241C32"/>
<path d="M60.8384 68.944V64.0487H44.4478V68.944H49.9098V88.8958H55.3764V68.944H60.8384Z" fill="#241C32"/>
<path d="M34.3404 73.2012C32.7205 72.4738 32.1091 71.6661 32.1091 70.613C32.1091 69.3947 33.1221 68.3818 34.742 68.4264C36.1566 68.4621 37.2544 69.2341 38.0264 71.0593L42.6807 68.9931C41.3866 65.6775 38.7538 63.7363 34.51 63.7363C30.0162 63.7363 26.7006 66.6949 26.7006 70.6532C26.7006 73.3619 28.0394 75.5039 31.1943 77.0925L34.6751 78.8329C36.6118 79.8102 37.5489 80.5286 37.5489 81.9566C37.5489 83.4917 36.2994 84.5895 34.6751 84.5895C32.9347 84.5895 31.3594 83.6122 30.6276 81.4345L25.759 82.8491C26.8925 86.9367 30.2528 89.3286 34.6215 89.3286C39.3517 89.3286 42.9976 86.2941 42.9976 81.9209C42.9976 78.5607 41.1814 76.3294 37.6917 74.781L34.3404 73.2012Z" fill="#241C32"/>
<path d="M91.7189 71.9384H79.1079L75.2077 59.9521L71.3075 71.9384H58.6965L68.813 79.3639C72.1819 77.2718 75.8796 75.7632 79.7505 74.9014C70.9326 81.4033 66.1132 87.8783 66.1132 87.8783L65.0065 91.359L75.2077 83.9513L85.4089 91.359L81.5176 79.3639L91.7189 71.9384Z" fill="url(#paint1_linear_10_4571)"/>
</g>
<defs>
<linearGradient id="paint0_linear_10_4571" x1="128.104" y1="19.4778" x2="46.5927" y2="8.45838" gradientUnits="userSpaceOnUse">
<stop stop-color="#101C50"/>
<stop offset="0.24" stop-color="#0D267A"/>
<stop offset="0.5" stop-color="#085AA4"/>
<stop offset="0.65" stop-color="#058BBF"/>
<stop offset="1" stop-color="#B1FFFF"/>
</linearGradient>
<linearGradient id="paint1_linear_10_4571" x1="64.7575" y1="92.3302" x2="87.9954" y2="69.1188" gradientUnits="userSpaceOnUse">
<stop offset="0.28" stop-color="#FA1660"/>
<stop offset="0.78" stop-color="#FF7D17"/>
</linearGradient>
<clipPath id="clip0_10_4571">
<rect width="110" height="59.7686" fill="white" transform="translate(25.75 0.183594)"/>
</clipPath>
<clipPath id="clip1_10_4571">
<rect width="110" height="31.4024" fill="white" transform="translate(25.75 59.9521)"/>
</clipPath>
</defs>
</svg>
