<svg xmlns="http://www.w3.org/2000/svg" xmlns:xlink="http://www.w3.org/1999/xlink" viewBox="0 0 256.5 105.93"><defs><linearGradient id="a" x1="235.6" y1="492.59" x2="394.48" y2="492.59" gradientTransform="matrix(0.91, 0, 0, -0.91, 281.64, 959.8)" gradientUnits="userSpaceOnUse"><stop offset="0" stop-color="#991eeb"/><stop offset="0.4" stop-color="#5822b4"/><stop offset="0.73" stop-color="#5822b4"/><stop offset="1" stop-color="#991eeb"/></linearGradient><clipPath id="b" transform="translate(-383.75 -463.45)"><path d="M554.71,505.94c-.23-10.54-7.69-16.11-16.84-16.11-5,0-9.54,1.68-12.61,4.94-3.08-3.26-7.6-4.94-12.61-4.94-9.14,0-16.6,5.6-16.84,16.14v24.11a4,4,0,0,0,4,4h3.78a.68.68,0,0,0,.68-.68V506h0c.16-5.2,3.85-8,8.39-8s8.23,2.75,8.39,8h0v24a4,4,0,0,0,4,4h3.78a.68.68,0,0,0,.68-.68V506h0c.16-5.2,3.85-8,8.39-8s8.23,2.75,8.39,8h0v24a4,4,0,0,0,4,4H554a.68.68,0,0,0,.68-.68V506s0,0,0,0Zm85-15.44h-6.41a5.37,5.37,0,0,0-4.43,2.36l-7.09,10.49a2.33,2.33,0,0,1-3.87,0l-7.09-10.49a5.34,5.34,0,0,0-4.43-2.36H600a.5.5,0,0,0-.42.77L612.24,510a4,4,0,0,1,0,4.48L599.6,533.24a.49.49,0,0,0,.42.77h6.41a5.37,5.37,0,0,0,4.43-2.36l7.09-10.49a2.33,2.33,0,0,1,3.87,0l7.09,10.49a5.34,5.34,0,0,0,4.43,2.36h6.41a.5.5,0,0,0,.42-.77l-12.66-18.72a4,4,0,0,1,0-4.48l12.64-18.75A.5.5,0,0,0,639.75,490.5Zm-43,0h-3.78a4,4,0,0,0-3.92,3.15,19.77,19.77,0,0,0-12.13-3.87c-11.05,0-20,7.69-20,22.22s9,22.22,20,22.22a19.86,19.86,0,0,0,12.06-3.8,4,4,0,0,0,4,3.64h3.78a.68.68,0,0,0,.68-.68v-42.2A.69.69,0,0,0,596.71,490.5ZM576.89,526c-6.6,0-12-4.83-12-13.94s5.36-13.94,12-13.94,12,4.83,12,13.94S583.49,526,576.89,526Z" style="fill:none"/></clipPath><radialGradient id="c" cx="-3146.86" cy="614.23" r="42.22" gradientTransform="matrix(0.61, 0, 0, -0.8, 2069.21, 528.85)" gradientUnits="userSpaceOnUse"><stop offset="0" stop-color="#7ba7f2" stop-opacity="0.5"/><stop offset="1" stop-color="#7ba7f2" stop-opacity="0"/></radialGradient><radialGradient id="e" cx="302.11" cy="805.53" r="58.37" gradientTransform="matrix(0.91, 0, 0, -0.64, -102.11, 586.89)" gradientUnits="userSpaceOnUse"><stop offset="0.2" stop-color="#7ba7f2"/><stop offset="1" stop-color="#7ba7f2" stop-opacity="0"/></radialGradient><radialGradient id="g" cx="337.94" cy="514.24" r="31.75" gradientTransform="matrix(0.91, 0, 0, -0.91, -102.11, 496.34)" gradientUnits="userSpaceOnUse"><stop offset="0" stop-color="#7ba7f2"/><stop offset="1" stop-color="#7ba7f2" stop-opacity="0"/></radialGradient></defs><title>HBO Max logo</title><path d="M415.35,534H403.52V517.18h-7.65V534H383.75V490.55h12.1v16.23h7.65V490.55h11.82V534Zm54.19.19a22.24,22.24,0,0,0,22-22.34,22.05,22.05,0,0,0-41.95-9.54c0-5.39-5.39-11.82-11.64-11.82H417.75V534h18.79c7.65,0,13-6.53,13-12.26A22.17,22.17,0,0,0,469.53,534.22ZM435,516.55a3.46,3.46,0,0,1,3.15,3.64c0,2-1.4,3.73-3.15,3.73h-6v-7.37Zm0-16.32a3.68,3.68,0,0,1,0,7.28h-6v-7.28Zm8,11.66c1.4-.09,3.68-1.7,4.55-2.66a18.6,18.6,0,0,0,0,6A9.08,9.08,0,0,0,443,511.88Zm15.51,0A11.05,11.05,0,1,1,469.56,523,11.06,11.06,0,0,1,458.51,511.88Zm11,8.72a8.7,8.7,0,0,0,0-17.39,8.7,8.7,0,1,0,0,17.39Z" transform="translate(-383.75 -463.45)"/><path d="M554.71,505.94c-.23-10.54-7.69-16.11-16.84-16.11-5,0-9.54,1.68-12.61,4.94-3.08-3.26-7.6-4.94-12.61-4.94-9.14,0-16.6,5.6-16.84,16.14v24.11a4,4,0,0,0,4,4h3.78a.68.68,0,0,0,.68-.68V506h0c.16-5.2,3.85-8,8.39-8s8.23,2.75,8.39,8h0v24a4,4,0,0,0,4,4h3.78a.68.68,0,0,0,.68-.68V506h0c.16-5.2,3.85-8,8.39-8s8.23,2.75,8.39,8h0v24a4,4,0,0,0,4,4H554a.68.68,0,0,0,.68-.68V506s0,0,0,0Zm85-15.44h-6.41a5.37,5.37,0,0,0-4.43,2.36l-7.09,10.49a2.33,2.33,0,0,1-3.87,0l-7.09-10.49a5.34,5.34,0,0,0-4.43-2.36H600a.5.5,0,0,0-.42.77L612.24,510a4,4,0,0,1,0,4.48L599.6,533.24a.49.49,0,0,0,.42.77h6.41a5.37,5.37,0,0,0,4.43-2.36l7.09-10.49a2.33,2.33,0,0,1,3.87,0l7.09,10.49a5.34,5.34,0,0,0,4.43,2.36h6.41a.5.5,0,0,0,.42-.77l-12.66-18.72a4,4,0,0,1,0-4.48l12.64-18.75a.5.5,0,0,0-.4-.79Zm-43,0h-3.78a4,4,0,0,0-3.92,3.15,19.77,19.77,0,0,0-12.13-3.87c-11.05,0-20,7.69-20,22.22s9,22.22,20,22.22a19.86,19.86,0,0,0,12.06-3.8,4,4,0,0,0,4,3.64h3.78a.68.68,0,0,0,.68-.68v-42.2A.69.69,0,0,0,596.71,490.5ZM576.89,526c-6.6,0-12-4.83-12-13.94s5.36-13.94,12-13.94,12,4.83,12,13.94S583.49,526,576.89,526Z" transform="translate(-383.75 -463.45)" style="fill:url(#a)"/><g style="clip-path:url(#b)"><ellipse cx="146.83" cy="40.39" rx="25.79" ry="33.58" style="fill:url(#c)"/></g><g style="clip-path:url(#b)"><ellipse cx="172.53" cy="68.37" rx="53.07" ry="37.56" style="fill:url(#e)"/></g><g style="clip-path:url(#b)"><circle cx="205.1" cy="28.87" r="28.87" style="fill:url(#g)"/></g></svg>