<svg xmlns="http://www.w3.org/2000/svg" viewBox="0 0 306.65 94.36"><title>Amazon Prime Video logo</title><path d="M510.6,559.18V559a.73.73,0,0,1,.65-.27c1.11,0,2.18,0,3.3,0a.84.84,0,0,1,.65.27v.15Z" transform="translate(-358.67 -464.82)" style="fill:#d1effa"/><path d="M515.2,559q-2.3-.06-4.6,0c-2.11-.11-4.21-.19-6.32-.34a109.79,109.79,0,0,1-16.59-2.53A112.37,112.37,0,0,1,438,530.25c-1.34-1.19-2.61-2.41-3.91-3.64a2.82,2.82,0,0,1-.73-1,1.41,1.41,0,0,1,.27-1.53,1.35,1.35,0,0,1,1.53-.34,8.05,8.05,0,0,1,1,.5,149.09,149.09,0,0,0,44.52,18.39,162.33,162.33,0,0,0,16,2.87,147,147,0,0,0,23.22,1,123.07,123.07,0,0,0,12.45-1A150.56,150.56,0,0,0,560.72,539,134.09,134.09,0,0,0,575,533.39a3.2,3.2,0,0,1,2.3-.31A2.38,2.38,0,0,1,579,536a2.66,2.66,0,0,1-.19.5,4.2,4.2,0,0,1-1.26,1.46,85.3,85.3,0,0,1-14.18,9,112.3,112.3,0,0,1-30,10.15A131.58,131.58,0,0,1,515.2,559Z" transform="translate(-358.67 -464.82)" style="fill:#00a8e1"/><path d="M458.45,481.36c1-.57,2-1.19,3-1.72a17.13,17.13,0,0,1,8.7-1.92,7.65,7.65,0,0,1,7.85,7.66c0,.42,0,.84,0,1.3v19.85c0,1.72-.23,2-2,2H471.4a7.38,7.38,0,0,1-.92,0,1.06,1.06,0,0,1-.92-.88,7,7,0,0,1-.08-1.26V488.56a6.48,6.48,0,0,0-.23-2.11,2.87,2.87,0,0,0-2.61-2.11,13.53,13.53,0,0,0-6.59,1.26.63.63,0,0,0-.46.69v20.15a5.42,5.42,0,0,1-.08,1.11.92.92,0,0,1-1,.92h0c-.57,0-1.15,0-1.76,0h-4.06c-1.42,0-1.72-.34-1.72-1.76V488.64a8.78,8.78,0,0,0-.19-2,2.89,2.89,0,0,0-2.68-2.3,13.49,13.49,0,0,0-6.71,1.3.61.61,0,0,0-.42.73V506.8c0,1.42-.31,1.72-1.72,1.72h-5.13c-1.34,0-1.69-.38-1.69-1.69V480.25a3.78,3.78,0,0,1,.11-.92,1.12,1.12,0,0,1,1.07-.73h4.79a1.38,1.38,0,0,1,1.34,1.07c.19.54.31,1,.5,1.61.38,0,.61-.27.88-.42A19.9,19.9,0,0,1,448,478a14.51,14.51,0,0,1,5.75,0,7.18,7.18,0,0,1,4.44,3,1.67,1.67,0,0,0,.23.27S458.41,481.28,458.45,481.36Z" transform="translate(-358.67 -464.82)" style="fill:#00a8e1"/><path d="M537.88,500.44c.23-.77.46-1.49.69-2.26,1.76-5.94,3.53-11.84,5.29-17.78l.23-.69a1.56,1.56,0,0,1,1.53-1.11h5.82c1.46,0,1.76.42,1.26,1.8l-2.3,6.09c-2.57,6.67-5.13,13.37-7.7,20-.08.23-.19.46-.27.69a1.87,1.87,0,0,1-1.92,1.26q-2.53-.06-5.06,0a2.17,2.17,0,0,1-2.3-1.57c-1-2.53-2-5.1-2.91-7.63-2.3-6-4.64-12-6.94-18.09a6.85,6.85,0,0,1-.5-1.49c-.11-.77.15-1.15.92-1.15,2.18,0,4.37,0,6.51,0,.92,0,1.34.61,1.57,1.42.42,1.46.84,3,1.3,4.41,1.57,5.33,3.1,10.69,4.67,16C537.77,500.44,537.81,500.44,537.88,500.44Z" transform="translate(-358.67 -464.82)" style="fill:#232f3e"/><path d="M401.82,482.81a1.14,1.14,0,0,0,.65-.46,26.48,26.48,0,0,1,2.18-2,10.19,10.19,0,0,1,7-2.11c1,0,1.34.34,1.42,1.3.08,1.3,0,2.64,0,3.95a7.2,7.2,0,0,1-.08,1.57,1.1,1.1,0,0,1-1.11,1,10.76,10.76,0,0,1-1.57,0,18.36,18.36,0,0,0-7.47,1.07c-.54.19-.54.57-.54,1v18.39a8.66,8.66,0,0,1,0,1,.92.92,0,0,1-.92.88,6.21,6.21,0,0,1-.84,0h-5a6.21,6.21,0,0,1-.84,0,1,1,0,0,1-.92-1,7.38,7.38,0,0,1,0-.92V480.51c0-1.76.19-2,2-2h3.68a1.52,1.52,0,0,1,1.72,1.3C401.36,480.82,401.59,481.78,401.82,482.81Z" transform="translate(-358.67 -464.82)" style="fill:#00a8e1"/><path d="M581.07,521.67a32.65,32.65,0,0,1,7.47.88,12.41,12.41,0,0,1,2,.73,2.58,2.58,0,0,1,1.57,2.11,15.72,15.72,0,0,1,.11,3.3,42.25,42.25,0,0,1-5.9,18.51,25.56,25.56,0,0,1-4.44,5.48,3.16,3.16,0,0,1-1.23.77.9.9,0,0,1-1.23-.92,4.17,4.17,0,0,1,.27-1.15c1.34-3.6,2.64-7.17,3.68-10.88a38,38,0,0,0,1.3-6.21,11.53,11.53,0,0,0,0-2.3,3,3,0,0,0-2.15-2.8,14.86,14.86,0,0,0-3.68-.69,60.49,60.49,0,0,0-10.54.46l-4.64.57a1.15,1.15,0,0,1-1.23-.46,1.29,1.29,0,0,1,.11-1.38,3.84,3.84,0,0,1,1.15-1.07,26.31,26.31,0,0,1,9.39-4.06A45.7,45.7,0,0,1,581.07,521.67Z" transform="translate(-358.67 -464.82)" style="fill:#00a8e1"/><path d="M565,493.54v13.79a1.1,1.1,0,0,1-1.19,1.15c-2.07,0-4.1,0-6.17,0a1.07,1.07,0,0,1-1.19-1.11,4.64,4.64,0,0,1,0-.73V480.13c0-1.19.34-1.53,1.53-1.53h5.52c1.19,0,1.53.34,1.53,1.53v13.41Z" transform="translate(-358.67 -464.82)" style="fill:#232f3e"/><path d="M416.76,493.46v-13.6c0-.92.38-1.26,1.3-1.3q3-.06,6,0c.88,0,1.15.27,1.23,1.15a8.66,8.66,0,0,1,0,1v25.52c0,.42,0,.84-.08,1.26a1,1,0,0,1-.92.88,3.72,3.72,0,0,1-.65,0h-5.33a2.53,2.53,0,0,1-.54,0,1.11,1.11,0,0,1-1-1,7.38,7.38,0,0,1,0-.92C416.76,502.2,416.76,497.83,416.76,493.46Z" transform="translate(-358.67 -464.82)" style="fill:#00a8e1"/><path d="M421.21,464.84a4.79,4.79,0,0,1,1.8.27,4.35,4.35,0,0,1,3,4.83,4.28,4.28,0,0,1-3.64,3.91,7.22,7.22,0,0,1-2.57,0,4.29,4.29,0,0,1-3.64-4.79C416.34,466.34,418.14,464.84,421.21,464.84Z" transform="translate(-358.67 -464.82)" style="fill:#00a8e1"/><path d="M560.76,464.84a4.63,4.63,0,0,1,2.26.38,4,4,0,0,1,2.61,3.56c.31,3.49-2,5.25-5.13,5.17a7.12,7.12,0,0,1-1.26-.15c-2.38-.57-3.6-2.41-3.37-5.06a4.29,4.29,0,0,1,4.1-3.87A2.84,2.84,0,0,1,560.76,464.84Z" transform="translate(-358.67 -464.82)" style="fill:#232f3e"/><path d="M388.06,490.32a17.45,17.45,0,0,0-1.49-5.75,11.09,11.09,0,0,0-7.66-6.55,13.54,13.54,0,0,0-11.46,2.57,3.07,3.07,0,0,1-.8.57c-.08,0-.15-.08-.15-.11-.11-.38-.19-.77-.31-1.15a1.52,1.52,0,0,0-1.72-1.3c-1.15,0-2.34,0-3.49,0a2.67,2.67,0,0,0-2.3.77c0,13.41,0,26.86,0,40.23a2.14,2.14,0,0,0,2.15.92c1.38,0,2.76,0,4.14,0,2.41,0,2.41,0,2.41-2.38V507.22c0-.27-.11-.57.15-.8a12.87,12.87,0,0,0,6.67,2.64,11.24,11.24,0,0,0,9-2.8,14.18,14.18,0,0,0,4-6.4A23.69,23.69,0,0,0,388.06,490.32Zm-9.16,7.93a5.9,5.9,0,0,1-1.76,3.07,5.46,5.46,0,0,1-3.53,1.34,10.52,10.52,0,0,1-5.59-1.23,1.09,1.09,0,0,1-.65-1.07v-6.94c0-2.3,0-4.6,0-6.9a1.16,1.16,0,0,1,.77-1.19,10.36,10.36,0,0,1,6.59-1,4.68,4.68,0,0,1,3.64,2.76,10.71,10.71,0,0,1,1,3.91A19.15,19.15,0,0,1,378.91,498.25Z" transform="translate(-358.67 -464.82)" style="fill:#00a8e1"/><path d="M665.25,496.3Z" transform="translate(-358.67 -464.82)" style="fill:#232f3e"/><path d="M665.29,491.17v.15a.55.55,0,0,1-.15-.57v-.31a0,0,0,0,1,0,0h0V490h.08s0,0,0-.08a13.29,13.29,0,0,0-.42-2.15c-1.42-5.06-4.6-8.39-9.77-9.69a18.83,18.83,0,0,0-7.32-.27c-5.17.77-8.89,3.53-10.69,8.43a20.5,20.5,0,0,0,0,14.48,12.21,12.21,0,0,0,9,8,19,19,0,0,0,7.2.38c8-1,11.38-7.05,11.92-12.34h0v-.54c0-.23-.08-.42.15-.57v.08a.29.29,0,0,1,.08-.15v-4.41S665.29,491.2,665.29,491.17Zm-9.2,7.28a7,7,0,0,1-1.07,2.22,5,5,0,0,1-3.64,2.07,7,7,0,0,1-2.18-.08,4.92,4.92,0,0,1-3.6-2.87,11,11,0,0,1-1-3.79,21,21,0,0,1,.31-6.74,8.58,8.58,0,0,1,1-2.53,5,5,0,0,1,3.91-2.38,7,7,0,0,1,2.18.08,4.94,4.94,0,0,1,3.49,2.72,11.31,11.31,0,0,1,1.11,4.33,18.64,18.64,0,0,1,0,2.07A14,14,0,0,1,656.09,498.45Z" transform="translate(-358.67 -464.82)" style="fill:#232f3e"/><path d="M598.12,465.11h-5.33c-1.46,0-1.72.27-1.72,1.72v12.41c0,.27.11.54-.08.8-.34,0-.54-.27-.8-.42a12.74,12.74,0,0,0-12.38-.8,12.05,12.05,0,0,0-6,6.82,21.76,21.76,0,0,0-1.34,8.85,18.25,18.25,0,0,0,1.92,8.16,11,11,0,0,0,6.63,5.86,12.41,12.41,0,0,0,11.65-2c.27-.15.42-.42.77-.5a5.46,5.46,0,0,1,.42,1.34,1.36,1.36,0,0,0,1.34,1h.92c1.38,0,2.72,0,4.06,0,1.07,0,1.38-.34,1.42-1.46V466.57C599.57,465.38,599.27,465.11,598.12,465.11Zm-7,28.2v7a1,1,0,0,1-.61,1.07,9.45,9.45,0,0,1-6,1.15,5.25,5.25,0,0,1-4.1-2.84,10.62,10.62,0,0,1-1.07-3.87,19.8,19.8,0,0,1,.46-7.2,8.79,8.79,0,0,1,.77-1.88,5,5,0,0,1,4-2.57,11.57,11.57,0,0,1,5.9,1,1.06,1.06,0,0,1,.69,1.11c-.08,2.38,0,4.67,0,7Z" transform="translate(-358.67 -464.82)" style="fill:#232f3e"/><path d="M492,496a25.51,25.51,0,0,0,8.7.11,14,14,0,0,0,4.79-1.53,7.13,7.13,0,0,0,3.53-4.29c1.34-4.83-.73-9.69-5.75-11.5a17.15,17.15,0,0,0-7.63-.73c-6.05.69-10,4-11.8,9.81a21.15,21.15,0,0,0-.08,12c1.34,5.1,4.71,8.12,9.81,9.2a24.7,24.7,0,0,0,13.3-1.15,1.76,1.76,0,0,0,1.3-1.88c0-.92,0-1.88,0-2.84,0-1.15-.46-1.49-1.57-1.23s-2.18.5-3.3.73a19,19,0,0,1-7.2.08,6.41,6.41,0,0,1-5.17-6.9A10.33,10.33,0,0,1,492,496Zm-1-5.86a10.4,10.4,0,0,1,.73-2.64,5.71,5.71,0,0,1,6-3.6,6.25,6.25,0,0,1,2,.46,2.92,2.92,0,0,1,1.76,2.41,4.4,4.4,0,0,1-.11,2,3.42,3.42,0,0,1-2.91,2.22,7.74,7.74,0,0,1-2.49.19,29.94,29.94,0,0,1-4.52-.34C491,490.71,491,490.71,491.06,490.09Z" transform="translate(-358.67 -464.82)" style="fill:#00a8e1"/><path d="M621.26,496.34a15.7,15.7,0,0,0,6.44-1.65,7.13,7.13,0,0,0,3.87-5.1,10.41,10.41,0,0,0,0-4.21,8.88,8.88,0,0,0-6.28-6.71,17,17,0,0,0-5.71-.73c-6.44.15-11.34,3.41-13.33,9.85a21.27,21.27,0,0,0,.15,12.84,11.77,11.77,0,0,0,8.77,8.2,20.79,20.79,0,0,0,5.75.57,24.36,24.36,0,0,0,8.24-1.57,1.7,1.7,0,0,0,1.38-2v-2.76c0-1.11-.5-1.49-1.61-1.23-.84.23-1.65.42-2.49.61a19.38,19.38,0,0,1-7.85.27,6,6,0,0,1-5.06-4.6,15.7,15.7,0,0,1-.42-2.34,1.22,1.22,0,0,1,.54.08A30.23,30.23,0,0,0,621.26,496.34Zm-8-6.13a9.5,9.5,0,0,1,1.53-4.18,5.75,5.75,0,0,1,5.59-2.18c.19,0,.34.08.54.08,2.68.42,3.33,2.57,2.84,4.64-.38,1.53-1.65,2.11-3.07,2.38a9.79,9.79,0,0,1-2.38.19,37.21,37.21,0,0,1-4.64-.38c-.34,0-.5-.19-.42-.54Z" transform="translate(-358.67 -464.82)" style="fill:#232f3e"/></svg>