<svg xmlns="http://www.w3.org/2000/svg" xmlns:xlink="http://www.w3.org/1999/xlink" viewBox="0 0 246.5 70.37"><defs><style>.a{fill:#241c32;}.b{fill:url(#a);}</style><linearGradient id="a" x1="560.79" y1="1191.37" x2="613.39" y2="1138.83" gradientTransform="translate(-79.02 -630.09) scale(0.99)" gradientUnits="userSpaceOnUse"><stop offset="0.28" stop-color="#fa1660"/><stop offset="0.78" stop-color="#ff7d17"/></linearGradient></defs><title>StarPlus logo - Brandlogos.net</title><path class="a" d="M605.36,509.12v-17.2h12v17.2h17.91v11.47H617.34v17.15h-12V520.58h-18V509.12Z" transform="translate(-388.75 -476.81)"/><path class="a" d="M551.91,496.6h7.53c4.53,0,7.43,2.34,7.43,6.44,0,4.46-2.9,7.36-7.43,7.36h-7.53Zm13,22.77a16.38,16.38,0,0,0,14.24-16.23c0-11.07-7.53-17.14-19.67-17.14h-19.6v55.69h12.06V519.37l15,22.3h14Z" transform="translate(-388.75 -476.81)"/><polygon class="a" points="78.63 20.15 78.63 9.18 41.9 9.18 41.9 20.15 54.14 20.15 54.14 64.86 66.39 64.86 66.39 20.15 78.63 20.15"/><path class="a" d="M408,506.5c-3.63-1.63-5-3.44-5-5.8,0-2.73,2.27-5,5.9-4.9,3.17.08,5.63,1.81,7.36,5.9l10.43-4.63c-2.9-7.43-8.8-11.78-18.31-11.78-10.07,0-17.5,6.63-17.5,15.5,0,6.07,3,10.87,10.07,14.43l7.8,3.9c4.34,2.19,6.44,3.8,6.44,7,0,3.44-2.8,5.9-6.44,5.9-3.9,0-7.43-2.19-9.07-7.07l-10.91,3.17c2.54,9.16,10.07,14.52,19.86,14.52,10.6,0,18.77-6.8,18.77-16.6,0-7.53-4.07-12.53-11.89-16Z" transform="translate(-388.75 -476.81)"/><path class="b" d="M536.58,503.67H508.32l-8.74-26.86-8.74,26.86H462.58l22.67,16.64a79,79,0,0,1,24.51-10C490,524.88,479.2,539.39,479.2,539.39h0l-2.48,7.8,22.86-16.6,22.86,16.6-8.72-26.88Z" transform="translate(-388.75 -476.81)"/></svg>