<svg id="Layer_1" data-name="Layer 1" xmlns="http://www.w3.org/2000/svg" width="706.4" height="145.05" viewBox="0 0 706.4 145.05"><title>YouTube Premium logo - Brandlogos.net</title><g id="layer1"><g id="Layer_2" data-name="Layer 2"><g id="Layer_1-2" data-name="Layer 1-2"><path id="path6" d="M233.69,334.12a26,26,0,0,0-18.32-18.32c-16.16-4.33-81-4.33-81-4.33s-64.77,0-80.94,4.33a26,26,0,0,0-18.32,18.32C30.8,350.29,30.8,384,30.8,384s0,33.71,4.33,49.88A26,26,0,0,0,53.45,452.2c16.16,4.33,81,4.33,81,4.33s64.8,0,81-4.33a26,26,0,0,0,18.32-18.32C238,417.71,238,384,238,384S238,350.29,233.69,334.12Z" transform="translate(-30.8 -311.48)" style="fill:red"/><path id="path8" d="M113.68,415.08,167.52,384l-53.84-31.08Z" transform="translate(-30.8 -311.48)" style="fill:#fff"/><path id="path10" d="M330.1,357.5v5c0,25.06-11.11,39.7-35.41,39.7H291v43.86H271.14V321.8h25.3C319.58,321.8,330.1,331.58,330.1,357.5Zm-20.88,1.78c0-18.08-3.26-22.37-14.52-22.37H291v50.52h3.41c10.67,0,14.82-7.7,14.82-24.44Zm67.85-5.48-1,23.56c-8.45-1.78-15.41-.44-18.52,5v63.7h-19.7V355.28h15.7L355.29,375H356c2.07-14.37,8.74-21.63,17.33-21.63a19.08,19.08,0,0,1,3.69.47Zm22.66,53.74v4.59c0,16,.89,21.49,7.7,21.49,6.52,0,8-5,8.14-15.4l17.63,1c1.34,19.56-8.89,28.29-26.22,28.29-21,0-27.26-13.77-27.26-38.81V392.86c0-26.37,7-39.26,27.85-39.26,21,0,26.37,11,26.37,38.37v15.57Zm0-18.67v6.52h15v-6.47c0-16.71-1.19-21.49-7.52-21.49s-7.44,4.9-7.44,21.49Zm136-11.4v68.59H515.3V379c0-7.41-1.93-11.11-6.37-11.11-3.56,0-6.82,2.07-9,5.92a29.74,29.74,0,0,1,.15,3.7v68.59H479.58V379c0-7.41-1.93-11.11-6.37-11.11-3.56,0-6.68,2.07-8.89,5.78V446.1H443.88V355.28H460l1.81,11.56h.29c4.59-8.74,12-13.48,20.74-13.48s13.48,4.29,15.7,12c4.74-7.85,11.85-12,20-12C531,353.36,535.72,362.25,535.72,377.47ZM545.95,332c0-9.78,3.56-12.59,11.11-12.59,7.7,0,11.11,3.26,11.11,12.59,0,10.07-3.41,12.6-11.11,12.6C549.51,344.61,545.95,342.1,545.95,332Zm1.19,23.26h19.56V446.1H547.13Zm86.37,0V446.1h-16L615.72,435h-.44c-4.59,8.89-11.26,12.59-19.56,12.59-12.15,0-17.63-7.7-17.63-24.44V355.28h20.44v66.67c0,8,1.67,11.26,5.78,11.26a10.1,10.1,0,0,0,8.72-5.78V355.28Zm103.7,22.19v68.59H716.76V379c0-7.41-1.93-11.11-6.37-11.11-3.56,0-6.82,2.07-9,5.92a29.73,29.73,0,0,1,.15,3.67v68.59H681.06V379c0-7.41-1.93-11.11-6.37-11.11-3.56,0-6.68,2.07-8.89,5.78V446.1H645.35V355.28h16.13l1.78,11.55h.29c4.59-8.74,12-13.48,20.74-13.48s13.48,4.29,15.7,12c4.74-7.85,11.85-12,20-12C732.49,353.36,737.2,362.25,737.2,377.47Z" transform="translate(-30.8 -311.48)"/></g></g></g></svg>