<svg width="171" height="32" viewBox="0 0 171 32" fill="none" xmlns="http://www.w3.org/2000/svg">
<path d="M5.58212 9.56142C5.58212 9.94461 5.65761 10.3241 5.80426 10.6781C5.95091 11.0321 6.16587 11.3538 6.43685 11.6247C6.70782 11.8956 7.02952 12.1106 7.38356 12.2572C7.7376 12.4038 8.11705 12.4792 8.50025 12.4792C9.27408 12.4792 10.0162 12.1718 10.5634 11.6246C11.1106 11.0774 11.418 10.3352 11.418 9.56142C11.418 9.17823 11.3425 8.79879 11.1959 8.44477C11.0492 8.09075 10.8343 7.76908 10.5634 7.49812C10.2924 7.22717 9.97073 7.01223 9.6167 6.86559C9.26268 6.71895 8.88325 6.64348 8.50006 6.64348C8.11687 6.64348 7.73743 6.71895 7.38341 6.86559C7.02939 7.01223 6.70772 7.22717 6.43677 7.49812C6.16581 7.76908 5.95088 8.09075 5.80424 8.44477C5.6576 8.79879 5.58212 9.17823 5.58212 9.56142ZM23.829 0.250245H19.0272C19.0007 0.250195 18.9744 0.255391 18.9498 0.265535C18.9252 0.275678 18.9029 0.290569 18.8842 0.309355C18.8654 0.32814 18.8505 0.35045 18.8403 0.375004C18.8302 0.399558 18.825 0.425873 18.825 0.45244V31.0597C18.825 31.1851 18.9265 31.2877 19.0523 31.2877H23.829C28.224 31.2877 31.7871 27.7246 31.7871 23.3292V8.20839C31.7871 3.81334 28.224 0.250245 23.829 0.250245ZM24.9653 20.459C24.5533 20.459 24.1452 20.3778 23.7645 20.2201C23.3838 20.0624 23.0378 19.8312 22.7465 19.5398C22.4551 19.2484 22.224 18.9024 22.0663 18.5217C21.9086 18.1409 21.8275 17.7329 21.8275 17.3208C21.8366 16.4945 22.1713 15.7052 22.7588 15.1241C23.3463 14.543 24.1392 14.2171 24.9655 14.2171C25.7919 14.2171 26.5848 14.543 27.1723 15.1241C27.7598 15.7052 28.0944 16.4945 28.1035 17.3208C28.1035 18.1531 27.7729 18.9513 27.1844 19.5398C26.5959 20.1283 25.7976 20.459 24.9653 20.459ZM15.4919 0.250245H8.70814C4.31309 0.250245 0.75 3.81334 0.75 8.20839V23.3288C0.75 27.7243 4.31309 31.2874 8.70814 31.2874H15.4919C15.5524 31.2874 15.6104 31.2633 15.6531 31.2206C15.6959 31.1778 15.7199 31.1198 15.7199 31.0593V0.477524C15.7199 0.447613 15.714 0.417996 15.7026 0.390372C15.6911 0.362748 15.6743 0.337659 15.6531 0.316545C15.6319 0.29543 15.6068 0.278704 15.5791 0.267327C15.5514 0.25595 15.5218 0.250145 15.4919 0.250245ZM13.2176 28.7858H8.70814C7.2506 28.7858 5.88047 28.2183 4.85012 27.188C4.34178 26.6825 3.93881 26.0811 3.66454 25.4187C3.39027 24.7563 3.25017 24.0461 3.25234 23.3292V8.20839C3.25234 6.75047 3.81939 5.38034 4.84974 4.35075C5.35522 3.84242 5.95652 3.43942 6.61882 3.16509C7.28113 2.89076 7.99128 2.75055 8.70814 2.75258H13.2176V28.7858ZM50.6892 5.10213C44.1658 5.10213 38.8772 10.3139 38.8772 16.7427C38.8772 23.1715 44.1658 28.3837 50.6892 28.3837C57.213 28.3837 62.5012 23.1715 62.5012 16.7427C62.5012 10.3139 57.213 5.10213 50.6892 5.10213ZM50.6892 23.9343C46.8517 23.9343 43.7401 20.7144 43.7401 16.7427C43.7401 12.771 46.8517 9.55153 50.6892 9.55153C54.527 9.55153 57.6379 12.771 57.6379 16.7427C57.6379 20.7144 54.527 23.9343 50.6892 23.9343ZM115.329 27.6741H120.024V5.81171H115.329V27.6741ZM170.75 10.0749V5.81171H152.698V27.6741H170.75V23.4105H157.393V18.4716H170.102V14.4239H157.393V10.0749H170.75ZM141.67 19.9128L130.786 5.81133H126.382V27.6737H130.803V13.0964L142.439 27.6741H146.311V5.81171H141.669V19.9128H141.67ZM83.0975 19.9128L72.2141 5.81133H67.8095V27.6737H72.2304V13.0964L83.8668 27.6741H87.7389V5.81171H83.0975V19.9128ZM98.7919 5.81171H94.0966V27.6741H110.773V23.4105H98.7923V5.81171H98.7919Z" fill="#E60012"/>
</svg>
