<svg width="2331" height="458" viewBox="0 0 2331 458" fill="none" xmlns="http://www.w3.org/2000/svg">
<path d="M100.64 12.64C149.587 12.6134 198.533 12.64 247.48 12.6267C247.467 58.6267 247.507 104.627 247.467 150.613C247.547 155.053 246.853 159.72 248.88 163.853C248.32 165.28 247.707 166.667 247.013 168.04C243.173 168.067 239.333 168.16 235.547 168.72C229.053 167.76 222.493 168.227 215.973 168.147C177.52 168.147 139.08 168.133 100.627 168.147C100.627 162.107 100.627 156.053 100.613 150C79.5066 147.96 59.3866 138.467 44.16 123.747C30.52 110.787 20.16 94.6 13.1333 77.2C33.76 58.4534 58.1466 42.8667 85.4133 36.0667C90.24 35.1067 95.1333 33.48 100.093 34.32L100.853 34.64C100.827 37.92 100.827 41.2134 100.853 44.4934C127.427 42.6667 152.307 57.4534 168.547 77.6267C158.453 91.0934 146.133 103.4 130.973 111.013C121.773 115.867 110.933 117.027 100.88 114.333C100.88 117.76 100.88 121.173 100.867 124.6C116.187 127.853 131.933 123.32 145.48 116.147C163.573 106.36 179.333 92.6534 192.813 77.1867C185.12 67.6667 175.547 59.9067 165.733 52.6667C165.293 52.36 164.4 51.72 163.96 51.4V51.56C145.64 39.2667 123.507 32.24 101.333 33.72C101.107 33.4 100.64 32.7334 100.413 32.4134C100.76 25.8267 100.587 19.2267 100.64 12.64ZM37.8266 79.1734C39.0533 86.28 43.1866 92.56 46.5066 98.8667C58 118.6 77.4533 134.867 100.68 137.733C100.707 133.48 100.72 129.227 100.707 124.973C78.16 121.547 61.2266 102.08 54.84 81.0534C67.2133 69.04 83.4133 60.6534 100.68 58.96C100.707 54.3334 100.693 49.6934 100.693 45.0667C76.24 47.1334 52.7066 59.6 37.8266 79.1734ZM100.787 59.1867C100.733 62.3867 100.6 65.6 100.76 68.8C102.267 72.1334 106.613 71.84 109.507 73.2667C118.667 76.88 122.653 86.64 127.667 94.3467C134.173 88.6934 140.853 83.24 147.373 77.6C135.987 64.4667 118.32 56.2934 100.787 59.1867ZM74.4933 82.84L74.2 83.96C78.6533 96.7734 87.4933 108.96 100.653 113.693C100.76 101.12 100.68 88.5467 100.733 75.9734C101.28 73.8934 99.7466 72.16 98.1333 71.1867C88.8666 70.92 80.8666 76.68 74.4933 82.84ZM168.253 121.547C148.187 133.787 124.36 140.347 100.813 137.96C101.387 141.773 99.28 146.827 101.987 149.867C110.213 150 118.48 150.24 126.64 149.067C149.693 146.093 172.32 140 193.867 131.293C206.533 125.96 219.56 120.4 229.813 111C221.253 105.173 211.867 100.707 203.053 95.28C191.947 104.653 180.84 114.187 168.253 121.547Z" fill="#77B901"/>
<path d="M1330.47 268.814C1328.96 271.854 1326.77 266.44 1329.96 267.854L1330.47 268.814Z" fill="#77B901"/>
<path d="M101.333 33.72C123.507 32.24 145.64 39.2666 163.96 51.56V51.4C164.4 51.72 165.293 52.36 165.733 52.6666C175.547 59.9066 185.12 67.6666 192.813 77.1866C179.333 92.6533 163.573 106.36 145.48 116.147C131.933 123.32 116.187 127.853 100.867 124.6C100.88 121.173 100.88 117.76 100.88 114.333C110.933 117.027 121.773 115.867 130.973 111.013C146.133 103.4 158.453 91.0933 168.547 77.6266C152.307 57.4533 127.427 42.6666 100.853 44.4933C100.827 41.2133 100.827 37.92 100.853 34.64L101.333 33.72Z" fill="#FFFFFE"/>
<path d="M37.8267 79.1733C52.7067 59.6 76.24 47.1333 100.693 45.0667C100.693 49.6933 100.707 54.3333 100.68 58.96C83.4133 60.6533 67.2133 69.04 54.84 81.0533C61.2267 102.08 78.16 121.547 100.707 124.973C100.72 129.227 100.707 133.48 100.68 137.733C77.4533 134.867 58 118.6 46.5067 98.8667C43.1867 92.56 39.0533 86.28 37.8267 79.1733Z" fill="#FFFFFE"/>
<path d="M100.787 59.1868C118.32 56.2934 135.987 64.4668 147.373 77.6001C140.853 83.2401 134.173 88.6934 127.667 94.3468C122.653 86.6401 118.667 76.8801 109.507 73.2668C106.613 71.8401 102.267 72.1334 100.76 68.8001C100.6 65.6001 100.733 62.3868 100.787 59.1868Z" fill="#FFFFFE"/>
<path d="M74.4933 82.84C80.8667 76.68 88.8667 70.92 98.1333 71.1866C99.7467 72.16 101.28 73.8933 100.733 75.9733C100.68 88.5466 100.76 101.12 100.653 113.693C87.4933 108.96 78.6533 96.7733 74.2 83.96L74.4933 82.84Z" fill="#FFFFFE"/>
<path d="M168.253 121.546C180.84 114.186 191.947 104.653 203.053 95.2798C211.867 100.706 221.253 105.173 229.813 111C219.56 120.4 206.533 125.96 193.867 131.293C172.32 140 149.693 146.093 126.64 149.066C118.48 150.24 110.213 150 101.987 149.866C99.28 146.826 101.387 141.773 100.813 137.96C124.36 140.346 148.187 133.786 168.253 121.546Z" fill="#FFFFFE"/>
<path d="M285.853 41.8132C304.813 41.7732 323.787 41.7066 342.76 41.8399C355.187 42.3599 368.88 44.7999 377.773 54.2932C386.147 63.2666 388.36 76.1466 388.213 88.0266C388.013 106.627 388.48 125.24 388.027 143.853C378.72 144.253 369.387 144.093 360.08 143.867C359.667 126.573 360.16 109.28 359.84 91.9999C359.467 84.8266 358.84 76.9999 354.173 71.1866C350.533 66.4932 344.267 65.2532 338.653 65.0532C330.76 64.8799 322.827 64.5732 314.96 65.3332C314.653 91.5332 315.307 117.747 314.693 143.947C305.04 144.093 295.373 144.253 285.733 143.787C285.84 109.8 285.627 75.7999 285.853 41.8132Z" fill="black"/>
<path d="M470.453 42.3066C480.133 41.5066 489.907 42.0133 499.627 42.0933C490.84 70.8533 481.227 99.3466 471.92 127.933C470.067 133.187 469.267 138.893 466.4 143.733C452.76 144.507 439.027 143.893 425.36 143.907C422.253 136.427 420.32 128.56 417.8 120.893C410.227 98.1466 403.213 75.2133 395.6 52.4799C394.667 49.2666 393.16 46.0666 393.413 42.6399C402.653 41.4799 412.08 42.1999 421.387 42.2533C424 41.9599 424.333 44.9733 425.04 46.7466C432.067 71.6666 438.893 96.6533 446.267 121.467C455.36 95.4266 461.733 68.4666 470.453 42.3066Z" fill="black"/>
<path d="M512.12 41.7998C521.707 41.9998 531.293 41.8798 540.88 41.8531C540.8 75.8131 540.88 109.773 540.84 143.733C531.213 144.253 521.56 144.16 511.933 143.88C511.413 119.92 511.813 95.9465 511.72 71.9865C511.867 61.9198 511 51.8265 512.12 41.7998Z" fill="black"/>
<path d="M557.867 41.9066C573.733 41.8932 589.6 41.7866 605.467 41.9999C618.107 42.5199 631.867 44.1466 641.68 52.9599C654.267 63.7466 656.867 81.6399 656.44 97.3199C655.893 110.573 653.333 125.613 642.427 134.467C632.36 143.413 618.093 144 605.32 144.093C589.467 143.88 573.6 144.467 557.747 143.747C557.987 109.8 557.68 75.8532 557.867 41.9066ZM586.853 64.3332C586.6 83.6266 586.587 102.947 586.933 122.24C596 122.12 605.52 123.04 614.107 119.453C621.853 116.173 626.92 108.307 627.8 100.08C629.213 89.3732 627.893 76.4399 618.427 69.6266C609.28 63.2399 597.44 64.2532 586.853 64.3332Z" fill="black"/>
<path d="M669.827 41.88C679.373 41.9333 688.92 41.88 698.467 41.8267C698.907 75.8533 698.813 109.893 698.533 143.92C688.96 144.16 679.387 144.16 669.84 143.827C669.707 109.84 669.72 75.8533 669.827 41.88Z" fill="black"/>
<path d="M735.413 79.5999C740.493 67.1466 745.107 54.5066 750.467 42.1732C762.987 42.1999 775.547 41.7466 788.067 42.3066C789.92 44.3066 790.8 46.9599 791.84 49.4266C804.027 80.9732 816.773 112.307 829.12 143.787C819.093 143.933 808.933 144.76 798.987 143.52C794.773 138.933 795.92 130.44 790.787 126.36C777.88 125.68 764.933 126.4 752.013 126.027C749.453 126.32 745.667 125.36 744.427 128.36C742 133.347 740.733 138.813 738.587 143.933C729.213 144.147 719.84 144.253 710.467 143.827C718.333 122.253 727.16 101.027 735.413 79.5999ZM768.68 62.2799C763.013 77.5332 756.587 92.5466 751.747 108.08C763.04 108.533 774.36 108.48 785.653 108.107C783.453 98.8266 779.387 90.1466 776.28 81.1599C773.827 74.8399 772.227 68.1332 768.68 62.2799Z" fill="black"/>
<path d="M840.413 129.786C845.92 127.546 853.653 130.666 853.573 137.293C854.88 144.826 845.213 149.96 839.2 146.053C832.907 142.786 833.373 131.866 840.413 129.786Z" fill="black"/>
<path d="M699.053 222.44C732.267 223.267 765.507 222.507 798.72 222.853C810.773 223.333 822.733 230.08 828.653 240.72C832.64 246.787 833.88 254.133 833.813 261.28C833.787 309.28 833.813 357.293 833.8 405.293C834.12 419.2 826.093 432.92 813.4 438.827C805.627 443.027 796.573 442.867 788 442.747C757.333 442.72 726.667 442.68 696 442.76C689.4 442.8 682.64 443.093 676.307 440.96C666.333 438.027 658.053 430.293 653.72 420.947C650.24 413.56 650.533 405.227 650.613 397.28C650.733 355.96 650.44 314.653 650.613 273.333C650.867 263.68 649.333 253.413 653.72 244.4C658.44 234.4 667.6 226.107 678.613 223.867C685.32 222.453 692.24 222.747 699.053 222.44ZM703.12 267.28C698.027 268.427 694.573 273.533 694.707 278.653C694.493 313.76 694.813 348.88 694.68 383.987C694.707 387.947 694.867 392.467 697.973 395.387C700.573 398.027 704.467 398.48 708 398.493C730.64 398.48 753.28 398.4 775.92 398.507C779.493 398.467 783.6 398.48 786.24 395.64C789.573 392.76 789.627 388.08 789.68 384.04C789.56 349.347 789.6 314.653 789.667 279.973C789.56 276.973 789.467 273.667 787.467 271.24C784.787 267.8 780.253 266.653 776.08 266.773C754.267 266.813 732.453 266.853 710.64 266.76C708.12 266.8 705.587 266.787 703.12 267.28Z" fill="black"/>
<path d="M86.2133 226.08C94.6133 221.8 104.24 222.853 113.333 222.813C153.787 222.773 194.227 222.827 234.667 222.76C236.36 222.773 238.053 222.893 239.733 223.12C240.947 225.427 240.387 228.2 240.56 230.707C240.267 242.68 240.813 254.667 240.227 266.627C200.133 267.133 160.013 266.547 119.907 266.907C113.507 266.413 108.44 272.533 108.88 278.68C108.827 311.107 108.84 343.547 108.867 375.973C108.493 380.84 112.573 384 115.6 387.12C119 390.36 122.013 394.04 125.8 396.867C128.333 398.827 131.733 398.36 134.733 398.52C150.173 398.32 165.613 398.76 181.04 398.173C187.507 397.92 195.48 400.493 200.56 395.173C204.093 392.053 203.68 386.987 203.76 382.72C203.613 373.027 203.773 363.333 203.653 353.653C186.573 353.147 169.467 354.08 152.413 353.173C152.493 339.96 152.333 326.733 152.48 313.52C161.64 313.027 170.827 313.293 180 313.253C202.587 313.44 225.173 312.947 247.76 313.427C247.88 344.52 247.827 375.627 247.787 406.733C248.067 425.773 230.947 442.64 212 442.627C180.893 442.893 149.773 442.6 118.653 442.773C114.24 442.587 109.013 443.227 105.653 439.68C93.36 427.573 81.24 415.267 68.9733 403.107C66.24 400.56 64.1333 397.2 64.5067 393.32C64.5067 348.88 64.5467 304.44 64.5067 260.013C64.24 245.72 72.9867 231.693 86.2133 226.08Z" fill="black"/>
<path d="M283.92 222.84C335.013 222.787 386.107 222.693 437.2 222.893C437.48 237.467 437.507 252.067 437.24 266.64C400.787 267.053 364.333 266.653 327.88 266.827C327.32 282.253 327.427 297.72 327.813 313.16C357.067 313.587 386.333 312.867 415.587 313.48C415.493 326.733 415.547 339.973 415.52 353.213C386.307 354 357.08 353.227 327.853 353.613C327.333 368.52 327.373 383.467 327.893 398.373C336.387 399 344.8 396.76 353.28 397.653C366.067 399.4 379 398.213 391.84 397.813C406.933 399.387 422.133 397.8 437.267 398.707C437.44 413.333 437.48 427.973 437.24 442.587C386.107 442.733 334.973 442.867 283.84 442.547C283.16 372.853 283.813 303.133 283.52 233.427C283.48 229.893 283.667 226.36 283.92 222.84Z" fill="black"/>
<path d="M472.387 222.986C509.6 222.493 546.84 223.013 584.067 222.72C598.133 222.946 612.213 222.533 626.293 222.986C626.413 237.506 626.44 252.013 626.32 266.533C589.707 267.306 553.053 266.386 516.44 266.986C516.48 282.36 516.493 297.72 516.4 313.093C545.64 313.546 574.893 312.96 604.147 313.373C604.4 326.693 604.533 340.026 604.053 353.333C574.853 353.893 545.653 353.266 516.453 353.626C516.28 383.266 516.8 412.92 516.24 442.546C501.6 442.786 486.933 442.96 472.293 442.426C472.387 408.733 472.333 375.053 472.32 341.36C472.667 332.426 471.333 323.52 472.293 314.6C472.427 284.066 472.213 253.52 472.387 222.986Z" fill="black"/>
<path d="M868.44 222.813C890.467 221.707 912.56 222.653 934.627 222.333C956.88 222.373 979.133 222.213 1001.39 222.413C1015.37 222.533 1028.79 231.52 1034.25 244.4C1037.73 251.733 1037.44 260.027 1037.43 267.947C1037.33 283.947 1037.48 299.947 1037.35 315.933C1037.37 328.333 1030.8 340.413 1020.57 347.347C1015.99 350.667 1010.51 352.267 1005.13 353.8C1011.8 368.76 1020.55 382.707 1027.97 397.307C1035.79 412.373 1044.36 427.053 1051.79 442.307C1037.6 442.373 1023.4 442.387 1009.2 442.32C1006.11 442.88 1005.19 439.373 1003.8 437.387C989 409.213 973.88 381.227 958.92 353.147C943.68 353.36 928.44 353 913.213 353.333C912.44 382.96 913.187 412.627 912.867 442.267C898.08 442.413 883.293 442.36 868.52 442.293C868.413 369.133 868.613 295.973 868.44 222.813ZM913.08 266.693C912.92 282.12 912.467 297.6 913.333 313.013C935.587 313 957.853 312.987 980.12 313.067C983.28 313.053 986.88 313.093 989.187 310.507C995.4 305.267 992.56 296.347 993.173 289.307C992.707 282.64 995 274.28 989.307 269.24C986.173 266.053 981.387 266.56 977.333 266.44C955.92 266.693 934.493 266.253 913.08 266.693Z" fill="black"/>
<path d="M1096.83 224.746C1104.27 222.12 1112.27 222.813 1120.01 222.786C1155.4 222.906 1190.8 222.56 1226.17 223C1226.21 237.48 1226.11 251.973 1226.25 266.453C1193.51 267.306 1160.72 266.533 1127.96 266.866C1121.51 266.453 1115.65 272.173 1116.21 278.693C1116.12 314.226 1116.29 349.773 1116.19 385.32C1116.08 388.88 1116.64 392.773 1119.49 395.266C1122.6 398.84 1127.68 398.44 1131.97 398.52C1153.31 398.333 1174.64 398.546 1195.97 398.466C1206.04 398.613 1216.15 398.053 1226.2 398.853C1226.2 413.386 1226.13 427.906 1226.24 442.426C1191.73 443.093 1157.2 442.56 1122.68 442.706C1113.71 442.52 1104.35 443.733 1095.81 440.346C1081.56 435.173 1071.63 420.533 1071.93 405.386C1071.93 356.466 1071.83 307.546 1071.97 258.64C1072.15 243.573 1082.49 229.413 1096.83 224.746Z" fill="black"/>
<path d="M1261.48 222.907C1295.21 222.627 1328.95 222.88 1362.68 222.787C1380.28 222.947 1397.89 222.493 1415.48 223.013C1415.59 237.493 1415.49 251.973 1415.52 266.467C1406.77 267.173 1397.97 266.293 1389.28 267.533C1375.11 266.24 1360.85 267.053 1346.64 266.773C1341.16 266.547 1335.73 267.373 1330.47 268.813L1329.96 267.853L1329.55 267.16C1321.6 266.307 1313.57 266.92 1305.6 266.96C1305.48 282.347 1305.52 297.747 1305.56 313.133C1334.77 313.6 1364.01 312.933 1393.23 313.44C1393.56 326.733 1393.64 340.053 1393.15 353.36C1363.99 353.84 1334.8 353.28 1305.63 353.627C1305.44 368.547 1305.51 383.467 1305.59 398.387C1333.49 398.627 1361.4 398.373 1389.32 398.467C1398.05 398.587 1406.81 398.107 1415.55 398.867C1415.51 413.387 1415.51 427.907 1415.56 442.44C1394.83 443.187 1374.07 442.44 1353.32 442.747C1322.69 442.6 1292.05 442.92 1261.43 442.547C1261.03 382.587 1261.37 322.613 1261.27 262.653C1261.41 249.4 1260.93 236.147 1261.48 222.907Z" fill="black"/>
<path d="M1531.03 222.747C1536.52 222.453 1542.23 221.48 1547.63 223.027C1552.57 228.413 1556.16 234.92 1560.49 240.813C1598.41 294.893 1636.49 348.867 1674.35 402.987C1676.83 406.773 1679.4 410.547 1682.64 413.747C1683.44 381.187 1682.75 348.587 1683 316.013C1683 284.907 1682.91 253.8 1683.04 222.693C1688.55 222.173 1694.09 222.133 1699.6 222.787C1699.55 296 1699.61 369.227 1699.56 442.44C1694 442.853 1688.44 442.88 1682.91 442.587C1652.79 399.76 1622.72 356.88 1592.59 314.067C1578.01 293.587 1564.04 272.653 1549.05 252.48C1548.15 254.413 1547.37 256.453 1547.52 258.627C1547.61 319.88 1547.47 381.147 1547.57 442.413C1542.04 442.813 1536.49 442.827 1530.99 442.44C1531.03 369.2 1530.91 295.973 1531.03 222.747Z" fill="black"/>
<path d="M1777.84 223.307C1783.77 222 1789.91 222.347 1795.95 222.32C1819.97 222.36 1843.99 222.347 1868.01 222.32C1876.4 222.453 1885.08 221.573 1893.19 224.293C1907.23 228.8 1918.16 242.387 1918.33 257.333C1918.4 306.68 1918.28 356.027 1918.39 405.373C1918.8 420.4 1908.63 434.787 1894.6 439.947C1887.45 442.92 1879.57 442.347 1872.01 442.36C1843.15 442.32 1814.27 442.387 1785.39 442.333C1771.49 442.44 1758.32 433.413 1752.59 420.88C1749 414.533 1749.43 407.027 1749.25 400C1749.39 352.893 1749.19 305.8 1749.33 258.707C1749.12 242.133 1761.8 226.88 1777.84 223.307ZM1783.03 237.8C1773.04 240.013 1765.91 249.867 1766.36 260.013C1766.25 307.587 1766.43 355.16 1766.28 402.72C1766.23 407.973 1766.88 413.507 1770.08 417.853C1774.13 424.307 1781.76 427.88 1789.29 427.72C1819.09 427.733 1848.89 427.64 1878.69 427.72C1886.24 428.013 1893.59 423.973 1897.97 417.92C1901.4 413.147 1901.65 407.053 1901.71 401.4C1901.59 353.827 1901.71 306.24 1901.64 258.68C1901.79 247.28 1891.41 236.92 1879.97 237.227C1859.08 237.04 1838.17 237.187 1817.27 237.173C1805.85 237.52 1794.36 236.32 1783.03 237.8Z" fill="black"/>
<path d="M1950.63 222.853C1955.92 222.613 1961.28 222.107 1966.56 223.013C1970.15 231.24 1971.43 240.36 1973.95 248.973C1986.49 297.16 1999.11 345.333 2011.71 393.52C2013.67 400.653 2014.77 408.067 2017.92 414.827C2039.2 350.973 2059.45 286.787 2080.47 222.84C2083.81 222.72 2087.19 222.653 2090.57 222.627C2108.72 274.44 2126.36 326.427 2144.51 378.253C2148.59 390.027 2152.24 401.973 2156.92 413.547C2160.97 402.147 2163.31 390.253 2166.73 378.667C2169.27 366.547 2173.37 354.853 2176.36 342.84C2187.03 302.84 2197.88 262.88 2208.48 222.853C2214.39 222.427 2220.32 222.44 2226.25 222.84C2206.24 296.027 2186.2 369.213 2166.28 442.427C2160.83 442.56 2155.17 443.6 2149.87 442.067C2146.12 434.2 2144.24 425.573 2141.03 417.48C2125.23 373.213 2109.68 328.867 2094.01 284.56C2090.95 277.013 2089.15 268.973 2085.33 261.747C2080.45 274.107 2077.2 287.027 2072.85 299.573C2063.64 328.573 2054.25 357.533 2045.08 386.547C2043.41 391.147 2041.67 395.867 2042.19 400.84C2037.15 407.16 2036.27 415.413 2033.51 422.76C2031.17 429.093 2029.69 435.72 2027.07 441.933C2021.73 443.52 2016.04 442.56 2010.59 442.613C1995.73 389.387 1981.37 336.013 1966.75 282.72C1961.41 262.747 1955.57 242.92 1950.63 222.853Z" fill="black"/>
<path d="M2257.56 222.92C2264.99 222.453 2272.45 222.466 2279.92 222.746C2279.88 223.586 2279.81 225.253 2279.77 226.093C2276.76 226.213 2273.76 226.373 2270.8 226.506C2270.6 234.92 2270.93 243.346 2270.44 251.76C2269.57 251.733 2267.83 251.666 2266.96 251.626C2266.67 243.28 2267.05 234.933 2266.61 226.586C2263.76 226.36 2260.95 226.133 2258.13 225.893C2258 225.16 2257.71 223.666 2257.56 222.92Z" fill="black"/>
<path d="M2284.33 222.453C2286.2 222.893 2288.56 223.013 2289.51 225.066C2292.28 229.586 2294.49 234.48 2297.91 238.613C2301.13 233.613 2303.49 228.013 2307.29 223.4C2308.64 223.026 2310.04 222.733 2311.49 222.493C2311.47 232.093 2311.59 241.693 2311.36 251.293C2310.49 251.44 2308.75 251.706 2307.87 251.853C2306.85 244.746 2307.89 237.586 2307.45 230.453C2303.71 234.986 2302.16 241.666 2296.49 244.266C2293.95 240 2291.36 235.76 2288.44 231.76C2288.23 238.413 2288.47 245.066 2287.97 251.72C2287.09 251.72 2285.31 251.72 2284.43 251.72C2284.19 241.96 2284.28 232.2 2284.33 222.453Z" fill="black"/>
</svg>
