<?xml version="1.0" encoding="UTF-8" ?>
<!DOCTYPE svg PUBLIC "-//W3C//DTD SVG 1.1//EN" "http://www.w3.org/Graphics/SVG/1.1/DTD/svg11.dtd">
<svg width="800pt" height="166pt" viewBox="0 0 800 166" version="1.1" xmlns="http://www.w3.org/2000/svg">
<g id="#ffd630ff">
<path fill="#ffd630" opacity="1.00" d=" M 94.75 0.00 L 97.20 0.00 C 99.07 0.72 100.89 2.10 101.25 4.19 C 103.58 18.83 104.99 33.61 107.43 48.24 C 120.59 46.29 133.81 44.67 146.97 42.68 C 149.68 42.53 153.16 41.44 155.21 43.83 C 156.69 45.21 156.72 47.35 157.10 49.21 C 158.43 60.86 160.45 72.42 161.69 84.08 C 162.03 86.33 161.53 88.61 159.93 90.28 C 144.52 92.71 129.00 94.38 113.63 96.97 C 113.96 101.16 114.48 105.33 115.37 109.44 C 116.93 118.00 117.68 126.69 119.10 135.27 C 119.47 138.70 120.69 142.68 118.17 145.60 C 105.78 147.97 93.22 149.37 80.75 151.24 C 77.65 151.64 72.88 152.46 71.81 148.47 C 69.05 133.60 67.82 118.48 65.33 103.56 C 50.86 105.75 36.32 107.46 21.87 109.73 C 19.36 110.30 16.60 108.47 16.12 105.96 C 14.98 101.40 14.78 96.69 14.12 92.06 C 13.03 82.85 11.24 73.74 10.42 64.51 C 11.62 63.02 12.88 61.26 14.96 61.06 C 24.51 59.43 34.16 58.43 43.75 57.04 C 48.82 56.59 53.86 55.86 58.89 55.12 C 56.44 39.78 54.65 24.35 52.47 8.97 C 53.63 7.43 54.84 5.56 56.96 5.41 C 69.51 3.33 82.18 2.01 94.75 0.00 M 76.71 10.06 C 72.43 21.79 67.64 33.34 63.05 44.95 C 75.43 43.15 87.83 41.57 100.22 39.89 C 92.37 29.95 84.63 19.93 76.71 10.06 M 131.47 52.62 C 123.68 53.81 117.36 61.13 117.34 69.01 C 116.82 78.50 125.57 87.28 135.10 86.56 C 145.36 86.29 153.48 75.22 150.57 65.35 C 148.80 56.94 139.90 51.06 131.47 52.62 M 20.16 69.59 C 21.64 79.80 23.02 90.01 24.22 100.25 C 34.40 98.88 44.58 97.52 54.75 96.08 C 53.23 85.86 51.82 75.61 50.44 65.37 C 40.38 66.99 30.25 68.18 20.16 69.59 M 92.21 121.01 C 87.81 117.65 83.46 114.21 79.01 110.93 C 77.93 112.36 76.85 113.78 75.77 115.21 C 79.82 119.11 84.76 121.94 88.89 125.76 C 85.58 129.89 82.35 134.10 79.27 138.40 C 79.32 140.44 81.90 140.98 83.15 142.22 C 86.83 138.09 89.94 133.49 93.22 129.04 C 97.92 132.17 102.02 136.10 106.81 139.11 C 107.90 137.58 108.93 136.01 109.90 134.41 C 105.50 131.24 101.28 127.84 96.89 124.67 C 99.85 119.88 103.58 115.64 106.85 111.07 C 105.33 109.94 103.78 108.84 102.21 107.79 C 98.84 112.16 95.69 116.71 92.21 121.01 Z" />
<path fill="#ffd630" opacity="1.00" d=" M 78.26 21.30 C 82.48 25.68 85.79 30.83 89.81 35.39 C 83.90 36.64 77.90 37.45 71.88 37.94 C 73.83 32.32 76.21 26.87 78.26 21.30 Z" />
<path fill="#ffd630" opacity="1.00" d=" M 131.32 58.46 C 138.89 56.18 146.81 63.36 145.39 71.07 C 144.61 79.57 133.13 83.95 126.92 78.08 C 119.98 72.70 122.77 60.35 131.32 58.46 Z" />
<path fill="#ffd630" opacity="1.00" d=" M 26.23 74.53 C 32.63 73.26 39.18 72.89 45.56 71.47 C 47.08 78.01 47.33 84.75 48.48 91.35 C 41.95 92.09 35.48 93.21 28.96 93.98 C 28.19 87.48 27.18 81.01 26.23 74.53 Z" />
</g>
<g id="#b47d29ff">
<path fill="#b47d29" opacity="1.00" d=" M 43.19 21.24 C 46.11 17.02 49.41 13.08 52.47 8.97 C 54.65 24.35 56.44 39.78 58.89 55.12 C 53.86 55.86 48.82 56.59 43.75 57.04 C 44.44 56.92 45.83 56.68 46.52 56.56 C 45.01 47.44 43.92 38.26 42.61 29.12 C 42.48 26.53 41.57 23.55 43.19 21.24 Z" />
<path fill="#b47d29" opacity="1.00" d=" M 76.71 10.06 C 84.63 19.93 92.37 29.95 100.22 39.89 C 87.83 41.57 75.43 43.15 63.05 44.95 C 67.64 33.34 72.43 21.79 76.71 10.06 M 78.26 21.30 C 76.21 26.87 73.83 32.32 71.88 37.94 C 77.90 37.45 83.90 36.64 89.81 35.39 C 85.79 30.83 82.48 25.68 78.26 21.30 Z" />
<path fill="#b47d29" opacity="1.00" d=" M 131.47 52.62 C 139.90 51.06 148.80 56.94 150.57 65.35 C 153.48 75.22 145.36 86.29 135.10 86.56 C 125.57 87.28 116.82 78.50 117.34 69.01 C 117.36 61.13 123.68 53.81 131.47 52.62 M 131.32 58.46 C 122.77 60.35 119.98 72.70 126.92 78.08 C 133.13 83.95 144.61 79.57 145.39 71.07 C 146.81 63.36 138.89 56.18 131.32 58.46 Z" />
<path fill="#b47d29" opacity="1.00" d=" M 0.00 79.05 C 2.77 73.74 6.97 69.37 10.42 64.51 C 11.24 73.74 13.03 82.85 14.12 92.06 C 14.78 96.69 14.98 101.40 16.12 105.96 C 16.60 108.47 19.36 110.30 21.87 109.73 C 36.32 107.46 50.86 105.75 65.33 103.56 C 67.82 118.48 69.05 133.60 71.81 148.47 C 72.88 152.46 77.65 151.64 80.75 151.24 C 93.22 149.37 105.78 147.97 118.17 145.60 C 114.64 149.93 111.55 154.61 107.96 158.89 C 106.90 160.31 105.07 160.51 103.47 160.81 C 91.38 162.68 79.22 163.98 67.16 166.00 L 64.84 166.00 C 62.60 165.18 60.68 163.36 60.53 160.87 C 58.55 146.49 56.74 132.08 54.58 117.73 C 43.38 119.47 32.11 120.76 20.91 122.47 C 16.69 122.89 12.38 124.27 8.15 123.33 C 5.09 121.70 5.07 117.93 4.60 114.93 C 3.03 103.76 1.69 92.56 0.00 81.41 L 0.00 79.05 Z" />
<path fill="#b47d29" opacity="1.00" d=" M 20.16 69.59 C 30.25 68.18 40.38 66.99 50.44 65.37 C 51.82 75.61 53.23 85.86 54.75 96.08 C 44.58 97.52 34.40 98.88 24.22 100.25 C 23.02 90.01 21.64 79.80 20.16 69.59 M 26.23 74.53 C 27.18 81.01 28.19 87.48 28.96 93.98 C 35.48 93.21 41.95 92.09 48.48 91.35 C 47.33 84.75 47.08 78.01 45.56 71.47 C 39.18 72.89 32.63 73.26 26.23 74.53 Z" />
<path fill="#b47d29" opacity="1.00" d=" M 113.63 96.97 C 129.00 94.38 144.52 92.71 159.93 90.28 C 156.59 94.50 153.65 99.03 150.12 103.10 C 148.86 104.75 146.70 104.97 144.81 105.31 C 135.00 106.73 125.14 107.77 115.37 109.44 C 114.48 105.33 113.96 101.16 113.63 96.97 Z" />
<path fill="#b47d29" opacity="1.00" d=" M 92.21 121.01 C 95.69 116.71 98.84 112.16 102.21 107.79 C 103.78 108.84 105.33 109.94 106.85 111.07 C 103.58 115.64 99.85 119.88 96.89 124.67 C 101.28 127.84 105.50 131.24 109.90 134.41 C 108.93 136.01 107.90 137.58 106.81 139.11 C 102.02 136.10 97.92 132.17 93.22 129.04 C 89.94 133.49 86.83 138.09 83.15 142.22 C 81.90 140.98 79.32 140.44 79.27 138.40 C 82.35 134.10 85.58 129.89 88.89 125.76 C 84.76 121.94 79.82 119.11 75.77 115.21 C 76.85 113.78 77.93 112.36 79.01 110.93 C 83.46 114.21 87.81 117.65 92.21 121.01 Z" />
</g>
<g id="#241f21ff">
<path fill="#241f21" opacity="1.00" d=" M 706.09 48.67 C 708.55 48.69 711.01 48.69 713.49 48.69 C 713.57 70.69 713.49 92.68 713.53 114.68 C 711.01 114.69 708.50 114.69 706.00 114.69 C 705.88 92.69 705.70 70.67 706.09 48.67 Z" />
<path fill="#241f21" opacity="1.00" d=" M 209.67 50.59 C 218.77 50.58 227.88 50.56 236.98 50.62 C 241.73 50.56 246.33 53.29 248.67 57.40 C 251.99 62.63 252.05 69.09 251.57 75.06 C 250.98 81.77 246.70 88.65 239.89 90.41 C 235.19 91.00 230.44 90.60 225.72 90.64 C 225.73 88.31 225.74 85.97 225.76 83.64 C 229.85 83.10 235.41 85.25 238.21 81.20 C 240.86 77.03 240.69 71.76 240.36 67.02 C 239.99 63.48 238.87 59.08 235.05 57.84 C 230.43 57.46 225.78 57.78 221.15 57.70 C 221.07 76.69 221.32 95.69 221.02 114.69 C 217.21 114.70 213.40 114.74 209.60 114.60 C 209.75 93.26 209.61 71.93 209.67 50.59 Z" />
<path fill="#241f21" opacity="1.00" d=" M 258.61 50.59 C 262.35 50.58 266.10 50.58 269.84 50.59 C 269.87 71.95 269.84 93.32 269.86 114.68 C 266.08 114.71 262.31 114.73 258.54 114.61 C 258.67 93.27 258.54 71.93 258.61 50.59 Z" />
<path fill="#241f21" opacity="1.00" d=" M 373.68 61.44 C 375.53 55.26 381.60 51.01 387.95 50.69 C 394.15 50.42 400.37 50.67 406.58 50.57 C 406.60 52.94 406.60 55.31 406.61 57.69 C 401.02 57.79 395.43 57.47 389.86 57.83 C 385.81 58.15 383.55 62.33 383.55 66.03 C 383.26 69.73 383.85 74.42 387.63 76.20 C 392.78 77.83 398.74 76.46 403.44 79.58 C 408.78 83.14 410.26 90.01 410.37 96.03 C 410.20 100.71 409.52 105.74 406.50 109.50 C 403.78 112.96 399.34 114.83 394.99 114.69 C 388.36 114.72 381.74 114.68 375.12 114.69 C 375.12 112.33 375.15 109.97 375.20 107.61 C 381.13 107.52 387.09 107.88 393.02 107.43 C 397.35 106.74 399.07 101.92 398.81 98.03 C 399.13 93.82 398.33 87.99 393.44 86.82 C 388.68 86.29 383.45 86.68 379.41 83.62 C 372.41 78.82 371.37 69.01 373.68 61.44 Z" />
<path fill="#241f21" opacity="1.00" d=" M 524.57 50.59 C 528.31 50.58 532.04 50.58 535.78 50.58 C 535.81 53.82 535.81 57.07 535.78 60.31 C 532.04 60.31 528.31 60.31 524.58 60.30 C 524.55 57.07 524.55 53.83 524.57 50.59 Z" />
<path fill="#241f21" opacity="1.00" d=" M 658.43 114.69 C 658.47 93.32 658.41 71.95 658.46 50.57 C 665.98 50.62 673.51 50.52 681.03 50.61 C 687.16 50.82 694.02 52.86 697.44 58.36 C 700.33 62.63 699.96 68.03 699.67 72.93 C 699.05 80.53 692.32 86.50 684.95 87.41 C 678.78 88.10 672.55 87.66 666.37 87.76 C 666.15 96.70 666.28 105.65 666.29 114.59 C 663.67 114.69 661.05 114.71 658.43 114.69 M 666.27 57.26 C 666.32 65.31 666.12 73.36 666.38 81.40 C 672.55 80.99 678.89 82.12 684.92 80.42 C 694.72 77.82 695.11 60.67 685.12 58.10 C 678.96 56.61 672.54 57.50 666.27 57.26 Z" />
<path fill="#241f21" opacity="1.00" d=" M 418.36 101.07 C 418.36 86.59 418.32 72.11 418.39 57.63 C 422.13 57.64 425.88 57.64 429.63 57.65 C 429.61 60.36 429.59 63.07 429.57 65.78 C 433.58 65.80 437.59 65.80 441.60 65.79 C 441.65 68.16 441.66 70.54 441.66 72.91 C 437.64 72.90 433.63 72.90 429.61 72.91 C 429.54 81.92 429.61 90.92 429.57 99.93 C 429.61 102.53 429.42 105.72 431.82 107.43 C 434.06 107.72 436.33 107.63 438.59 107.63 C 438.62 109.98 438.64 112.33 438.65 114.68 C 434.49 114.46 430.09 115.38 426.11 113.87 C 421.18 111.77 418.26 106.31 418.36 101.07 Z" />
<path fill="#241f21" opacity="1.00" d=" M 494.50 100.12 C 494.51 85.96 494.49 71.80 494.52 57.65 C 498.26 57.64 502.00 57.64 505.75 57.65 C 505.76 60.35 505.76 63.04 505.75 65.74 C 509.76 65.82 513.77 65.74 517.78 65.89 C 517.78 68.23 517.78 70.57 517.79 72.90 C 513.77 72.89 509.75 72.81 505.74 73.13 C 505.79 82.42 505.74 91.72 505.76 101.02 C 505.80 103.27 506.01 105.89 507.96 107.38 C 510.21 107.74 512.50 107.63 514.77 107.63 C 514.82 109.98 514.84 112.33 514.86 114.68 C 510.25 114.39 505.15 115.71 500.98 113.15 C 496.47 110.57 494.40 105.13 494.50 100.12 Z" />
<path fill="#241f21" opacity="1.00" d=" M 323.38 65.80 C 327.30 65.79 331.22 65.79 335.15 65.81 C 338.72 76.31 342.15 86.86 345.83 97.32 C 350.25 87.26 353.67 76.78 357.86 66.63 C 358.07 66.44 358.48 66.08 358.68 65.90 C 362.04 65.61 365.42 65.85 368.79 65.81 C 359.50 90.11 349.75 114.25 340.23 138.47 C 336.93 138.47 333.64 138.47 330.34 138.45 C 333.27 130.29 336.79 122.32 339.44 114.07 C 334.24 97.93 328.42 81.99 323.38 65.80 Z" />
<path fill="#241f21" opacity="1.00" d=" M 280.50 75.39 C 282.65 70.45 287.56 66.91 292.92 66.37 C 301.00 65.25 309.19 66.02 317.33 65.80 C 317.45 82.07 317.27 98.34 317.42 114.61 C 313.64 114.74 309.86 114.71 306.09 114.68 C 305.96 100.75 306.37 86.81 305.88 72.89 C 301.09 73.38 294.16 71.21 291.35 76.40 C 288.57 82.87 289.62 90.12 289.35 96.97 C 289.57 100.45 288.56 104.89 291.66 107.39 C 294.83 107.86 298.05 107.57 301.25 107.63 C 301.26 109.98 301.27 112.32 301.28 114.67 C 295.22 114.12 288.02 116.46 282.98 112.05 C 279.12 108.93 277.91 103.72 278.12 98.97 C 278.22 91.11 277.25 82.79 280.50 75.39 Z" />
<path fill="#241f21" opacity="1.00" d=" M 450.78 71.73 C 454.39 67.14 460.50 66.02 466.00 65.82 C 472.44 65.73 478.87 65.83 485.31 65.80 C 485.42 82.08 485.28 98.35 485.38 114.63 C 481.60 114.72 477.82 114.70 474.05 114.69 C 473.61 100.85 474.49 87.00 474.14 73.15 C 469.12 73.15 461.46 71.12 459.00 77.04 C 456.64 83.77 457.60 91.04 457.35 98.03 C 457.49 101.17 456.82 105.19 459.65 107.40 C 462.82 107.86 466.04 107.57 469.24 107.64 C 469.25 109.98 469.26 112.32 469.27 114.66 C 463.01 114.16 455.40 116.55 450.41 111.55 C 445.28 106.85 445.99 99.31 445.84 93.00 C 446.32 85.77 445.83 77.63 450.78 71.73 Z" />
<path fill="#241f21" opacity="1.00" d=" M 524.61 65.80 C 528.32 65.79 532.03 65.79 535.74 65.81 C 535.88 82.10 535.75 98.39 535.81 114.68 C 532.05 114.70 528.29 114.71 524.54 114.65 C 524.62 98.37 524.49 82.08 524.61 65.80 Z" />
<path fill="#241f21" opacity="1.00" d=" M 591.45 114.67 C 591.54 98.37 591.31 82.07 591.57 65.78 C 600.73 66.18 610.09 64.81 619.09 67.06 C 626.30 69.23 630.17 76.86 630.53 83.97 C 630.96 94.20 630.62 104.44 630.75 114.68 C 626.96 114.71 623.17 114.73 619.39 114.60 C 619.54 104.66 619.58 94.70 619.38 84.75 C 619.00 80.91 618.89 75.95 615.15 73.72 C 611.13 72.41 606.81 72.90 602.68 73.17 C 602.74 87.01 602.68 100.84 602.71 114.68 C 598.95 114.70 595.20 114.70 591.45 114.67 Z" />
<path fill="#241f21" opacity="1.00" d=" M 768.23 78.93 C 768.09 72.46 774.02 67.57 780.02 66.63 C 785.99 65.86 792.18 66.38 797.78 68.70 C 797.19 70.67 796.60 72.64 796.02 74.62 C 790.75 72.69 784.74 71.24 779.27 73.19 C 775.04 74.61 774.08 80.76 777.47 83.54 C 781.72 87.09 787.44 87.95 792.18 90.67 C 796.09 92.57 799.30 96.05 800.00 100.45 L 800.00 104.41 C 799.31 110.16 794.30 114.26 788.83 115.25 C 781.52 116.39 773.86 115.61 767.13 112.45 C 767.75 110.45 768.38 108.46 769.00 106.46 C 775.23 108.72 782.21 111.15 788.77 108.80 C 792.97 107.35 793.98 101.24 790.65 98.41 C 786.34 94.40 780.19 93.60 775.26 90.64 C 771.05 88.35 767.59 83.97 768.23 78.93 Z" />
<path fill="#241f21" opacity="1.00" d=" M 554.31 67.45 C 558.97 65.75 564.08 66.00 568.95 66.40 C 575.45 67.03 581.17 71.95 582.80 78.28 C 585.04 86.44 585.01 95.35 582.47 103.44 C 580.29 110.39 573.10 114.72 566.01 114.68 C 559.23 115.24 551.35 113.75 547.21 107.82 C 542.55 100.86 543.00 91.95 543.50 83.96 C 543.97 77.12 547.50 69.89 554.31 67.45 M 561.19 73.25 C 558.41 73.53 556.54 76.05 555.81 78.55 C 554.24 83.87 554.43 89.49 554.62 94.97 C 554.96 98.58 555.23 102.54 557.55 105.51 C 559.96 108.31 564.14 107.82 567.41 107.28 C 572.32 104.93 572.67 98.70 572.76 93.96 C 572.59 87.85 573.64 81.12 570.26 75.65 C 568.29 72.71 564.28 72.91 561.19 73.25 Z" />
<path fill="#241f21" opacity="1.00" d=" M 721.77 67.51 C 724.34 67.34 726.91 67.30 729.49 67.34 C 729.51 77.23 729.43 87.12 729.52 97.00 C 729.59 101.21 730.59 106.17 734.57 108.42 C 739.21 110.81 745.53 110.08 749.14 106.16 C 752.36 103.00 753.33 98.31 753.35 93.96 C 753.33 85.09 753.34 76.22 753.33 67.35 C 755.80 67.34 758.28 67.34 760.77 67.35 C 760.75 83.13 760.75 98.91 760.77 114.69 C 758.35 114.69 755.94 114.69 753.53 114.66 C 753.50 112.45 753.48 110.24 753.46 108.03 C 748.64 116.04 737.24 117.90 729.41 113.51 C 724.28 110.69 722.06 104.63 721.90 99.05 C 721.69 88.54 721.97 78.02 721.77 67.51 Z" />
<path fill="#241f21" opacity="1.00" d=" M 642.53 102.73 C 646.50 101.28 651.20 104.67 650.65 108.97 C 650.82 114.12 643.42 116.78 640.22 112.79 C 636.97 109.78 638.60 104.27 642.53 102.73 M 642.26 104.63 C 641.64 104.98 640.40 105.66 639.77 106.00 C 639.67 107.46 639.58 108.91 639.50 110.36 C 640.55 111.44 641.61 112.50 642.70 113.55 C 643.71 113.55 645.74 113.56 646.76 113.57 C 646.88 113.06 647.14 112.04 647.27 111.53 C 651.21 111.88 649.30 106.17 648.11 104.20 L 646.66 104.80 L 646.74 104.36 C 645.82 103.16 642.49 102.97 642.26 104.63 Z" />
<path fill="#241f21" opacity="1.00" d=" M 642.26 104.63 C 643.70 104.92 645.19 105.00 646.66 104.80 C 647.61 107.16 647.68 109.80 646.03 111.85 L 645.89 109.33 C 645.33 109.27 644.20 109.13 643.64 109.06 C 643.36 110.02 642.80 111.93 642.52 112.89 C 642.27 110.14 642.18 107.39 642.26 104.63 M 643.18 107.04 C 643.18 108.83 646.17 108.70 646.22 107.00 C 646.06 105.34 643.11 105.19 643.18 107.04 Z" />
<path fill="#241f21" opacity="1.00" d=" M 126.28 137.48 C 128.55 137.75 131.43 136.59 133.28 138.30 C 132.53 138.37 131.04 138.50 130.30 138.57 C 130.09 141.25 131.01 144.27 129.52 146.70 C 129.22 144.01 129.23 141.30 129.25 138.60 C 128.50 138.56 127.00 138.47 126.25 138.42 C 126.26 138.19 126.27 137.72 126.28 137.48 Z" />
<path fill="#241f21" opacity="1.00" d=" M 140.62 137.29 C 141.01 137.36 141.78 137.48 142.17 137.54 C 142.05 140.59 142.72 143.79 141.61 146.71 C 141.34 145.02 141.07 143.33 140.81 141.64 C 139.65 143.14 139.31 145.39 137.46 146.23 C 137.37 145.50 137.20 144.02 137.11 143.28 C 137.57 143.32 138.48 143.40 138.94 143.44 C 139.36 141.35 139.88 139.29 140.62 137.29 Z" />
<path fill="#241f21" opacity="1.00" d=" M 135.13 146.61 C 133.43 143.69 134.04 139.72 134.91 136.57 C 135.80 138.29 136.55 140.07 137.16 141.92 L 135.33 141.21 C 135.31 143.01 135.26 144.81 135.13 146.61 Z" />
</g>
</svg>
