<?xml version="1.0" encoding="UTF-8" ?>
<!DOCTYPE svg PUBLIC "-//W3C//DTD SVG 1.1//EN" "http://www.w3.org/Graphics/SVG/1.1/DTD/svg11.dtd">
<svg width="1280pt" height="720pt" viewBox="0 0 1280 720" version="1.1" xmlns="http://www.w3.org/2000/svg">
<g id="#4580ffff">
<path fill="#4580ff" opacity="1.00" d=" M 105.37 254.33 C 132.10 236.77 164.02 227.41 195.96 227.32 C 228.69 227.32 261.40 237.09 288.57 255.39 C 315.72 273.48 337.37 299.71 349.91 329.84 C 367.78 372.20 367.03 421.98 347.80 463.76 C 343.20 473.87 337.53 483.48 331.05 492.50 C 304.39 449.11 277.75 405.71 251.05 362.34 C 248.51 366.60 245.88 370.82 243.49 375.17 C 245.69 387.16 248.65 399.03 251.00 411.00 C 249.62 409.59 248.88 407.74 247.87 406.08 C 232.28 379.36 216.69 352.65 201.11 325.92 C 199.40 323.16 198.01 320.21 196.05 317.61 C 184.80 336.75 173.44 355.81 162.20 374.94 C 164.82 387.16 167.57 399.35 170.04 411.60 C 160.36 395.25 150.92 378.75 141.23 362.40 C 114.52 405.74 87.99 449.18 61.22 492.47 C 43.91 468.50 33.00 439.93 30.29 410.47 C 27.76 386.73 30.93 362.48 38.59 339.92 C 50.49 305.01 74.44 274.40 105.37 254.33 Z" />
</g>
<g id="#2c3038ff">
<path fill="#2c3038" opacity="1.00" d=" M 458.39 339.96 C 458.51 327.52 458.14 315.06 458.57 302.63 C 468.68 302.90 478.79 302.63 488.90 302.77 C 507.43 330.64 525.88 358.58 544.59 386.33 C 544.56 358.47 544.55 330.60 544.59 302.74 C 553.37 302.74 562.14 302.72 570.92 302.75 C 570.92 345.61 570.91 388.48 570.92 431.34 C 561.87 431.41 552.82 431.35 543.78 431.37 C 524.07 401.93 504.53 372.37 484.76 342.98 C 484.60 372.48 484.96 401.99 484.58 431.48 C 475.87 431.25 467.16 431.40 458.45 431.40 C 458.31 400.92 458.43 370.44 458.39 339.96 Z" />
<path fill="#2c3038" opacity="1.00" d=" M 818.26 302.74 C 826.79 302.75 835.31 302.72 843.83 302.75 C 843.85 345.62 843.84 388.49 843.84 431.36 C 835.53 431.38 827.24 431.36 818.94 431.37 C 818.93 427.54 818.89 423.70 818.97 419.88 C 815.21 425.41 809.57 429.63 803.11 431.43 C 791.20 434.87 777.66 432.82 767.68 425.34 C 756.64 417.16 750.36 403.56 749.74 389.99 C 748.88 375.23 755.40 360.17 766.89 350.84 C 778.49 341.14 796.11 338.94 809.39 346.45 C 812.78 348.34 815.68 350.96 818.27 353.81 C 818.25 336.79 818.27 319.76 818.26 302.74 M 792.52 365.71 C 787.50 366.77 782.86 369.68 779.87 373.86 C 773.17 383.08 774.54 397.37 783.35 404.77 C 790.81 411.21 802.72 411.44 810.48 405.39 C 820.65 397.70 821.80 381.12 813.12 371.90 C 808.01 366.32 799.83 364.12 792.52 365.71 Z" />
<path fill="#2c3038" opacity="1.00" d=" M 851.63 302.75 C 861.21 302.69 870.79 302.81 880.37 302.69 C 891.64 335.19 902.68 367.77 913.72 400.35 C 924.91 367.83 936.04 335.28 947.20 302.74 C 956.65 302.73 966.10 302.73 975.55 302.75 C 959.97 345.61 944.49 388.51 928.87 431.36 C 918.62 431.37 908.37 431.38 898.12 431.35 C 882.62 388.48 867.15 345.61 851.63 302.75 Z" />
<path fill="#2c3038" opacity="1.00" d=" M 986.42 431.38 C 986.46 388.47 986.25 345.56 986.52 302.67 C 1003.01 302.85 1019.51 302.65 1036.00 302.77 C 1047.20 303.03 1058.78 306.13 1067.39 313.59 C 1075.06 320.10 1079.38 329.99 1079.99 339.93 C 1080.85 351.14 1078.44 363.21 1070.78 371.80 C 1062.65 381.13 1050.08 385.21 1038.03 385.89 C 1029.72 386.23 1021.39 385.97 1013.07 386.05 C 1012.86 401.15 1013.06 416.27 1012.94 431.37 C 1004.10 431.37 995.26 431.36 986.42 431.38 M 1012.98 328.06 C 1012.84 339.09 1013.29 350.12 1012.91 361.15 C 1019.95 361.12 1027.00 361.23 1034.05 361.11 C 1040.41 360.79 1047.36 358.57 1051.03 353.00 C 1055.01 346.54 1053.89 336.88 1047.60 332.27 C 1042.86 328.76 1036.74 327.90 1030.99 327.92 C 1024.99 328.01 1018.98 327.78 1012.98 328.06 Z" />
<path fill="#2c3038" opacity="1.00" d=" M 1093.51 431.38 C 1093.50 388.49 1093.43 345.60 1093.55 302.71 C 1103.67 302.79 1113.78 302.69 1123.90 302.76 C 1142.55 330.62 1160.97 358.63 1179.66 386.46 C 1179.66 358.55 1179.68 330.65 1179.65 302.75 C 1188.41 302.73 1197.16 302.73 1205.92 302.75 C 1205.94 345.62 1205.94 388.49 1205.92 431.36 C 1196.91 431.38 1187.89 431.35 1178.88 431.38 C 1159.14 401.92 1139.55 372.37 1119.85 342.88 C 1119.83 372.37 1119.86 401.86 1119.83 431.34 C 1111.06 431.41 1102.28 431.34 1093.51 431.38 Z" />
<path fill="#2c3038" opacity="1.00" d=" M 1230.44 303.74 C 1237.59 300.70 1246.59 304.67 1249.24 311.95 C 1252.39 319.15 1248.26 328.26 1240.90 330.85 C 1233.83 333.78 1224.99 329.90 1222.31 322.75 C 1219.19 315.58 1223.09 306.42 1230.44 303.74 M 1231.31 306.34 C 1226.75 308.18 1223.66 313.16 1224.14 318.07 C 1224.31 324.16 1229.97 329.39 1236.07 329.06 C 1242.67 329.03 1248.27 322.56 1247.34 316.01 C 1246.85 308.57 1238.16 303.16 1231.31 306.34 Z" />
<path fill="#2c3038" opacity="1.00" d=" M 1230.16 308.94 C 1233.67 309.16 1237.66 308.13 1240.80 310.17 C 1243.84 312.56 1242.87 317.50 1239.62 319.23 C 1240.70 321.36 1241.83 323.48 1242.97 325.60 C 1241.99 325.59 1240.02 325.57 1239.04 325.56 C 1237.39 323.42 1237.29 318.74 1233.65 319.56 C 1233.65 321.55 1233.67 323.54 1233.69 325.54 C 1232.50 325.56 1231.33 325.60 1230.18 325.64 C 1230.13 320.07 1230.16 314.51 1230.16 308.94 M 1233.68 312.29 C 1233.67 313.31 1233.66 315.35 1233.66 316.36 C 1235.51 316.25 1239.17 316.95 1239.08 314.05 C 1238.54 311.50 1235.46 312.60 1233.68 312.29 Z" />
<path fill="#2c3038" opacity="1.00" d=" M 623.11 342.24 C 635.94 340.28 649.62 343.10 660.19 350.76 C 670.04 357.76 676.84 368.91 678.33 380.92 C 679.98 392.96 676.78 405.68 669.18 415.23 C 660.21 426.82 645.54 433.40 630.98 433.33 C 616.12 433.55 600.99 427.00 591.98 414.99 C 583.31 403.77 580.88 388.34 584.76 374.81 C 589.62 357.56 605.55 344.71 623.11 342.24 M 625.48 365.67 C 619.33 367.13 613.95 371.54 611.41 377.34 C 607.15 386.65 609.35 399.01 617.70 405.33 C 625.41 411.42 637.39 411.25 644.80 404.75 C 654.33 396.69 654.98 380.54 646.36 371.59 C 641.13 366.04 632.84 363.82 625.48 365.67 Z" />
<path fill="#2c3038" opacity="1.00" d=" M 727.44 344.67 C 732.89 342.31 739.01 342.25 744.77 343.41 C 745.47 351.81 744.60 360.28 745.10 368.71 C 738.28 367.86 730.63 367.41 724.81 371.73 C 717.85 376.71 715.75 385.91 715.99 394.01 C 716.01 406.47 716.00 418.92 715.99 431.37 C 707.59 431.36 699.19 431.38 690.78 431.37 C 690.81 402.12 690.79 372.88 690.80 343.64 C 698.92 343.59 707.05 343.62 715.18 343.62 C 715.19 347.84 715.15 352.06 715.17 356.29 C 718.14 351.42 721.95 346.75 727.44 344.67 Z" />
</g>
</svg>
