<?xml version="1.0" encoding="UTF-8" ?>
<!DOCTYPE svg PUBLIC "-//W3C//DTD SVG 1.1//EN" "http://www.w3.org/Graphics/SVG/1.1/DTD/svg11.dtd">
<svg width="1500pt" height="291pt" viewBox="0 0 1500 291" version="1.1" xmlns="http://www.w3.org/2000/svg">
<g id="#25d1dbff">
<path fill="#25d1db" opacity="1.00" d=" M 1352.41 0.00 L 1366.57 0.00 C 1370.94 3.11 1375.62 6.92 1376.50 12.56 C 1378.89 21.58 1371.69 32.35 1362.04 32.21 C 1357.28 32.36 1351.74 32.58 1348.13 28.91 C 1343.10 24.92 1340.87 17.88 1342.70 11.73 C 1343.80 6.47 1348.31 2.99 1352.41 0.00 Z" />
<path fill="#25d1db" opacity="1.00" d=" M 24.07 59.10 C 34.29 53.17 46.26 50.72 58.00 51.10 C 71.47 50.60 85.87 53.63 96.09 62.94 C 103.19 69.53 107.27 79.29 107.05 88.98 C 106.95 105.66 107.02 122.35 106.99 139.04 C 107.32 145.50 107.75 152.27 110.88 158.07 C 112.72 161.80 115.74 164.78 117.63 168.47 C 119.12 171.05 116.49 173.21 114.88 174.89 C 109.45 179.81 103.65 184.31 98.29 189.31 C 96.61 191.14 93.79 191.94 91.54 190.68 C 85.28 186.86 81.12 180.66 76.99 174.78 C 70.33 181.52 62.74 187.98 53.39 190.49 C 46.77 192.46 39.80 192.32 32.96 192.16 C 26.02 191.96 19.23 189.47 13.61 185.43 C 6.53 180.54 2.46 172.46 0.00 164.43 L 0.00 142.64 C 2.93 131.89 9.60 122.04 19.25 116.27 C 27.20 110.80 36.82 108.90 46.14 107.23 C 54.72 105.73 63.43 105.26 72.02 103.91 C 71.93 97.76 71.81 91.35 69.39 85.60 C 67.37 80.65 61.66 78.97 56.86 78.20 C 51.11 78.02 45.03 79.83 40.77 83.78 C 37.10 87.14 37.65 92.90 34.32 96.40 C 30.97 97.99 26.97 96.98 23.40 96.73 C 18.32 95.99 13.19 95.63 8.10 95.00 C 5.79 94.89 3.54 93.12 3.07 90.85 C 4.35 77.59 12.94 65.98 24.07 59.10 M 43.30 132.31 C 36.58 137.93 36.11 147.62 37.38 155.65 C 38.75 158.93 40.07 162.94 43.61 164.45 C 47.94 166.55 53.27 166.98 57.60 164.66 C 66.46 160.03 71.09 149.65 71.10 139.97 C 71.67 135.02 72.39 130.05 71.93 125.05 C 62.11 125.45 51.51 126.36 43.30 132.31 Z" />
<path fill="#25d1db" opacity="1.00" d=" M 334.44 68.42 C 343.59 57.81 357.41 52.78 371.01 51.21 C 383.33 50.91 396.40 50.49 407.66 56.36 C 413.79 59.13 418.85 63.76 422.97 69.01 C 427.36 75.02 428.47 82.72 429.00 89.96 C 428.99 107.98 429.03 126.01 428.97 144.03 C 428.99 149.01 430.37 153.95 432.60 158.38 C 434.80 162.72 439.02 166.01 440.03 170.92 C 439.60 172.36 438.35 173.33 437.34 174.35 C 431.76 179.10 425.99 183.64 420.77 188.78 C 418.65 190.98 415.24 191.92 412.38 190.77 C 406.97 186.37 402.56 180.91 398.83 175.04 C 393.46 179.31 388.68 184.48 382.40 187.47 C 375.24 191.23 367.04 192.64 359.00 192.19 C 346.22 193.05 332.91 186.84 326.34 175.65 C 321.86 168.66 320.60 160.16 320.94 151.99 C 320.61 137.03 329.39 122.69 342.22 115.24 C 352.52 109.46 364.37 107.39 375.96 105.98 C 381.59 105.10 387.35 105.27 392.92 103.91 C 393.09 96.97 393.85 89.31 389.72 83.27 C 382.17 75.94 368.52 76.68 361.76 84.76 C 358.21 88.09 359.11 94.22 354.69 96.83 C 349.82 97.92 344.87 96.61 340.00 96.16 C 336.12 95.69 332.19 95.49 328.35 94.71 C 325.91 93.49 324.27 90.86 325.05 88.10 C 326.65 80.97 329.86 74.13 334.44 68.42 M 380.24 126.37 C 373.01 127.72 365.15 130.47 361.07 137.03 C 358.70 142.35 356.95 148.50 358.68 154.28 C 359.64 158.34 361.63 162.56 365.57 164.49 C 371.14 167.98 378.24 165.73 383.25 162.27 C 389.15 157.56 391.35 149.92 392.78 142.82 C 393.34 136.91 392.89 130.97 392.94 125.05 C 388.66 124.98 384.42 125.52 380.24 126.37 Z" />
<path fill="#25d1db" opacity="1.00" d=" M 894.69 59.72 C 905.92 54.21 918.40 50.59 931.00 51.10 C 939.54 50.95 948.72 52.88 955.18 58.82 C 958.67 61.78 961.40 65.49 963.87 69.31 C 977.27 59.37 993.23 52.46 1009.97 51.18 C 1016.17 51.20 1022.58 50.48 1028.59 52.48 C 1043.22 55.80 1053.63 70.26 1054.03 84.96 C 1053.95 118.64 1054.05 152.32 1053.98 186.00 C 1054.21 188.17 1052.18 190.28 1049.99 190.10 C 1043.67 190.22 1037.33 190.22 1031.01 190.10 C 1028.82 190.28 1026.78 188.18 1027.02 186.00 C 1026.98 159.00 1026.99 132.00 1027.02 105.00 C 1027.31 97.35 1026.45 89.53 1023.58 82.38 C 1021.69 77.64 1016.87 74.68 1011.91 74.20 C 996.63 72.01 981.53 77.57 968.41 84.98 C 969.26 89.94 968.99 94.99 968.99 100.00 C 969.00 127.68 968.98 155.36 969.01 183.04 C 969.29 185.82 967.50 188.05 965.89 190.09 C 958.92 190.13 951.96 190.27 945.01 190.10 C 942.82 190.28 940.78 188.17 941.02 186.00 C 940.95 155.99 941.05 125.97 940.98 95.96 C 940.34 88.91 938.85 80.74 932.59 76.44 C 926.68 72.97 919.51 73.86 912.97 74.16 C 902.25 74.72 892.58 79.77 883.13 84.37 C 882.78 117.90 883.13 151.46 882.97 184.99 C 882.96 187.92 879.93 190.47 877.04 190.15 C 871.68 190.19 866.31 190.19 860.96 190.15 C 857.66 190.51 854.54 187.33 854.98 184.04 C 855.01 145.70 855.00 107.35 854.99 69.00 C 855.06 65.47 854.66 61.88 855.33 58.39 C 856.46 56.86 857.90 54.98 860.04 55.18 C 864.36 55.05 868.69 55.10 873.02 55.15 C 875.01 55.19 877.50 55.53 878.62 57.40 C 879.74 60.64 880.28 64.04 881.10 67.36 C 885.76 65.05 889.95 61.90 894.69 59.72 Z" />
<path fill="#25d1db" opacity="1.00" d=" M 1266.42 51.51 C 1279.07 50.29 1291.92 51.28 1304.11 54.98 C 1308.31 56.28 1313.18 57.32 1315.65 61.39 C 1316.35 65.55 1316.01 69.81 1315.98 74.00 C 1316.20 76.19 1314.16 78.33 1311.96 78.19 C 1307.73 78.15 1303.83 76.26 1299.76 75.37 C 1293.59 74.07 1287.33 72.80 1281.00 73.11 C 1273.50 72.99 1265.42 72.71 1258.83 76.84 C 1250.67 82.56 1250.79 96.38 1259.35 101.66 C 1267.75 106.54 1277.14 109.32 1286.11 112.94 C 1294.38 116.38 1303.17 119.06 1310.28 124.73 C 1317.13 129.29 1321.72 136.86 1323.12 144.91 C 1325.61 155.47 1323.07 167.00 1316.75 175.76 C 1312.23 180.62 1307.58 185.69 1301.39 188.45 C 1291.93 192.80 1281.40 194.82 1271.00 194.14 C 1258.38 194.84 1245.81 192.27 1233.94 188.17 C 1229.94 186.92 1225.97 184.09 1225.32 179.67 C 1224.73 174.82 1223.88 168.59 1228.34 165.24 C 1236.98 166.53 1245.20 170.23 1253.96 171.24 C 1261.23 172.66 1268.65 172.04 1276.01 172.20 C 1282.20 172.34 1288.57 170.34 1293.34 166.35 C 1297.71 161.26 1299.58 153.62 1296.62 147.37 C 1294.97 142.73 1289.97 141.09 1285.98 139.06 C 1275.66 134.36 1264.75 131.11 1254.30 126.73 C 1245.55 122.86 1236.70 117.66 1231.97 109.01 C 1223.75 95.33 1225.21 75.38 1237.77 64.77 C 1245.14 56.81 1255.80 52.69 1266.42 51.51 Z" />
<path fill="#25d1db" opacity="1.00" d=" M 181.05 57.11 C 191.75 50.70 205.93 50.19 216.96 56.09 C 223.11 60.82 228.56 66.80 231.39 74.14 C 234.35 67.91 239.19 62.84 244.45 58.48 C 253.45 51.56 265.90 50.80 276.59 53.52 C 283.34 55.10 288.63 59.85 293.23 64.77 C 298.81 70.29 300.16 78.49 300.98 85.96 C 301.04 118.65 300.96 151.35 301.02 184.04 C 301.42 186.57 299.66 188.56 297.68 189.82 C 293.17 190.57 288.55 190.00 284.00 190.14 C 278.77 189.98 273.50 190.55 268.30 189.87 C 265.29 188.35 266.05 184.76 265.96 182.01 C 266.06 155.66 265.96 129.31 266.01 102.96 C 265.71 97.91 265.17 92.28 261.69 88.31 C 254.98 82.38 242.78 84.61 238.69 92.65 C 235.56 97.86 235.91 104.15 235.05 109.97 C 234.90 135.31 235.08 160.66 234.98 186.00 C 235.21 187.69 234.01 189.00 232.70 189.87 C 227.50 190.55 222.23 189.99 217.00 190.14 C 212.44 190.01 207.83 190.56 203.32 189.83 C 201.33 188.55 199.59 186.57 199.98 184.04 C 200.04 158.37 199.94 132.68 200.04 107.00 C 200.20 100.39 199.22 93.29 195.12 87.88 C 190.92 84.29 184.73 84.57 179.67 85.72 C 174.16 87.23 172.25 93.07 170.96 97.98 C 169.59 102.53 170.01 107.32 169.99 112.00 C 170.00 135.68 169.99 159.36 170.01 183.04 C 170.29 185.82 168.51 188.05 166.88 190.09 C 157.91 190.19 148.93 190.16 139.96 190.15 C 136.67 190.50 133.55 187.33 133.99 184.04 C 134.02 146.03 134.01 108.01 134.00 70.00 C 134.08 64.91 132.87 58.94 137.18 55.13 C 145.46 55.17 153.75 55.12 162.03 55.13 C 165.24 54.69 168.33 57.74 167.99 60.96 C 168.08 64.74 167.93 68.53 168.09 72.31 C 171.37 66.47 175.53 61.01 181.05 57.11 Z" />
<path fill="#25d1db" opacity="1.00" d=" M 609.41 52.51 C 621.68 51.14 634.93 52.61 645.38 59.63 C 655.17 65.77 662.44 75.32 667.24 85.72 C 671.89 97.54 674.65 110.25 674.00 123.00 C 674.69 135.66 671.96 148.32 666.92 159.90 C 661.52 171.42 652.85 181.65 641.39 187.46 C 621.26 198.25 593.59 193.97 578.89 176.08 C 574.64 170.77 570.39 165.27 568.20 158.74 C 563.33 147.17 561.29 134.52 562.01 122.00 C 561.22 108.76 563.74 95.35 569.40 83.35 C 574.70 72.39 583.03 62.62 594.02 57.11 C 598.88 54.80 604.10 53.34 609.41 52.51 M 614.37 79.45 C 610.24 80.25 606.66 82.97 604.68 86.66 C 600.16 94.66 599.95 104.06 599.00 112.96 C 599.12 120.34 598.48 127.78 599.73 135.10 C 600.10 142.96 601.45 150.93 605.01 158.03 C 608.15 163.47 614.95 167.64 621.29 165.43 C 625.98 164.53 629.62 160.84 631.76 156.74 C 636.09 147.43 635.85 137.00 637.03 127.03 C 637.44 122.00 636.52 117.03 636.06 112.04 C 636.18 104.11 634.64 96.22 632.26 88.69 C 629.87 81.48 621.55 77.65 614.37 79.45 Z" />
<path fill="#25d1db" opacity="1.00" d=" M 747.19 53.24 C 757.30 50.78 768.66 51.76 777.54 57.51 C 783.35 62.15 788.63 68.06 790.58 75.40 C 791.87 80.50 792.93 85.71 793.03 90.98 C 792.95 122.65 793.05 154.33 792.98 186.00 C 793.21 188.18 791.17 190.28 788.99 190.09 C 780.65 190.24 772.30 190.12 763.96 190.15 C 760.66 190.51 757.54 187.34 757.98 184.05 C 758.03 157.02 757.96 129.99 758.03 102.97 C 758.02 97.61 756.26 92.22 753.11 87.90 C 749.21 84.30 743.25 83.29 738.40 85.48 C 731.63 88.25 728.90 95.77 727.45 102.38 C 726.69 108.23 725.70 114.09 725.97 120.00 C 726.02 142.00 726.02 164.00 725.98 186.00 C 726.20 188.17 724.18 190.29 721.99 190.10 C 713.65 190.23 705.30 190.13 696.96 190.15 C 693.66 190.51 690.54 187.34 690.98 184.05 C 691.01 145.70 691.00 107.35 690.99 69.01 C 691.06 65.47 690.65 61.88 691.33 58.38 C 692.46 56.86 693.90 54.98 696.04 55.18 C 704.01 55.10 711.99 55.13 719.97 55.17 C 722.07 54.94 724.13 56.88 723.95 59.01 C 724.22 64.45 723.76 69.90 724.13 75.34 C 729.12 65.87 736.13 55.85 747.19 53.24 Z" />
<path fill="#25d1db" opacity="1.00" d=" M 1424.63 63.65 C 1433.74 56.85 1444.96 53.54 1456.14 52.33 C 1465.99 51.78 1476.02 51.79 1485.60 54.46 C 1491.07 55.90 1498.19 57.10 1500.00 63.42 L 1500.00 74.81 C 1498.52 76.30 1497.61 79.45 1495.06 78.98 C 1489.24 78.02 1483.64 75.90 1477.73 75.40 C 1467.91 74.71 1457.67 74.55 1448.43 78.48 C 1440.49 81.20 1434.56 88.14 1432.00 95.99 C 1428.28 106.86 1427.51 118.56 1428.12 129.97 C 1429.18 139.74 1430.38 150.25 1436.75 158.20 C 1440.60 163.41 1446.57 166.50 1452.61 168.46 C 1460.48 170.87 1468.85 170.25 1476.97 170.03 C 1484.79 169.74 1492.08 165.12 1500.00 166.60 L 1500.00 183.67 C 1496.25 188.62 1489.86 189.75 1484.24 191.29 C 1474.71 193.81 1464.78 193.26 1455.04 193.01 C 1443.40 191.69 1431.35 188.54 1422.30 180.74 C 1415.23 174.61 1408.75 167.38 1405.46 158.48 C 1400.72 147.61 1399.90 135.66 1399.03 124.00 C 1399.02 119.64 1399.93 115.35 1400.10 111.00 C 1401.33 92.78 1409.68 74.60 1424.63 63.65 Z" />
<path fill="#25d1db" opacity="1.00" d=" M 456.98 61.94 C 456.43 58.04 460.02 53.93 463.96 54.14 C 489.98 54.16 516.00 54.15 542.02 54.14 C 545.16 53.86 548.46 55.84 548.82 59.15 C 549.24 64.10 548.98 69.08 549.00 74.04 C 549.11 76.73 547.64 79.07 546.28 81.26 C 531.60 102.59 516.31 123.54 501.92 145.06 C 516.87 144.98 532.24 147.35 545.55 154.49 C 547.91 156.41 551.25 158.48 551.00 161.96 C 551.01 168.64 551.07 175.32 550.97 182.00 C 551.16 184.20 549.22 185.68 547.64 186.84 C 545.82 187.80 543.94 186.40 542.26 185.79 C 531.27 180.55 519.29 177.19 507.09 176.88 C 503.40 175.98 499.68 176.33 496.00 176.97 C 483.56 177.25 471.49 181.10 460.33 186.40 C 456.86 188.81 452.43 184.73 452.98 181.05 C 452.95 174.68 453.03 168.32 452.96 161.96 C 452.75 157.35 454.67 152.96 457.24 149.23 C 466.88 135.81 476.17 122.16 485.65 108.64 C 491.35 100.06 497.86 92.01 503.07 83.11 C 490.03 83.15 476.99 83.17 463.96 83.15 C 460.92 83.48 458.85 80.87 457.27 78.67 C 456.62 73.13 457.14 67.51 456.98 61.94 Z" />
<path fill="#25d1db" opacity="1.00" d=" M 1086.01 60.96 C 1085.66 57.75 1088.75 54.70 1091.97 55.13 C 1097.32 55.13 1102.67 55.12 1108.03 55.13 C 1111.23 54.71 1114.32 57.74 1113.99 60.95 C 1114.04 90.97 1113.93 121.00 1114.04 151.01 C 1114.95 157.60 1116.60 165.69 1123.24 168.84 C 1129.29 171.93 1136.49 172.77 1143.13 171.38 C 1154.14 170.02 1164.52 165.53 1173.90 159.74 C 1174.14 126.82 1173.92 93.88 1174.01 60.96 C 1173.65 57.74 1176.75 54.70 1179.97 55.13 C 1186.25 55.08 1192.53 55.20 1198.82 55.14 C 1200.42 57.10 1202.20 59.25 1201.99 61.97 C 1202.00 99.64 1201.98 137.32 1202.00 175.00 C 1201.88 180.15 1203.18 186.17 1198.88 190.09 C 1192.61 190.21 1186.35 190.17 1180.10 190.11 C 1176.87 186.51 1176.96 181.45 1175.82 177.02 C 1160.85 187.05 1143.45 195.26 1125.00 194.17 C 1116.69 194.72 1107.97 192.83 1101.24 187.77 C 1097.18 183.81 1092.45 180.12 1090.25 174.72 C 1086.31 166.42 1085.63 157.05 1086.00 148.00 C 1086.01 118.98 1085.98 89.97 1086.01 60.96 Z" />
<path fill="#25d1db" opacity="1.00" d=" M 1348.35 55.33 C 1353.55 54.83 1358.79 55.31 1364.02 55.11 C 1366.46 55.29 1369.53 54.47 1371.29 56.71 C 1372.99 57.92 1373.02 60.05 1373.03 61.94 C 1372.95 103.29 1373.04 144.65 1372.98 186.00 C 1373.20 188.17 1371.17 190.29 1368.99 190.10 C 1362.03 190.28 1355.06 190.11 1348.10 190.11 C 1346.18 187.84 1344.95 185.02 1345.01 182.02 C 1344.98 142.67 1345.03 103.31 1344.99 63.96 C 1345.09 60.89 1345.57 57.19 1348.35 55.33 Z" />
<path fill="#25d1db" opacity="1.00" d=" M 457.30 206.30 C 468.20 199.27 481.16 196.11 493.96 195.14 C 502.84 195.46 511.89 194.19 520.59 196.50 C 523.76 197.34 527.42 197.66 529.76 200.23 C 532.70 202.91 533.34 207.20 532.96 210.98 C 531.93 219.40 530.52 227.82 527.88 235.89 C 523.51 247.53 517.97 259.15 508.84 267.85 C 506.21 270.22 503.86 273.72 500.09 274.14 C 498.60 273.59 496.44 272.03 497.21 270.19 C 501.92 257.95 507.05 245.77 510.00 232.95 C 511.35 227.78 511.09 222.43 510.92 217.15 C 506.18 212.64 499.32 213.50 493.37 212.63 C 489.24 211.70 485.16 213.52 481.01 213.16 C 475.05 212.83 469.18 214.12 463.26 214.48 C 459.59 214.78 454.46 216.78 452.17 212.73 C 451.99 209.69 455.16 207.91 457.30 206.30 Z" />
<path fill="#25d1db" opacity="1.00" d=" M 113.41 203.28 C 117.41 202.21 120.56 205.60 123.89 207.19 C 174.98 235.71 232.36 252.41 290.56 257.59 C 295.29 258.52 300.12 257.88 304.89 258.34 C 314.18 259.93 323.63 258.82 333.00 259.17 C 340.07 259.70 346.97 257.69 354.04 258.14 C 370.52 256.56 387.03 254.78 403.26 251.37 C 427.38 246.80 450.97 239.69 473.89 230.97 C 479.64 229.01 485.27 224.97 491.61 226.34 C 493.73 227.92 495.71 230.20 496.00 232.91 C 494.16 238.73 487.99 241.15 483.44 244.47 C 472.82 252.03 461.01 257.62 449.37 263.41 C 419.13 276.72 386.85 285.43 354.00 289.05 C 338.09 291.10 322.00 289.78 306.00 290.14 C 296.00 290.67 286.12 288.88 276.22 287.78 C 239.75 282.48 204.09 271.02 171.76 253.27 C 152.67 242.67 134.52 230.35 118.05 215.99 C 115.39 213.39 110.58 211.39 110.95 207.06 C 110.79 205.34 112.13 204.14 113.41 203.28 Z" />
</g>
</svg>
