<?xml version="1.0" encoding="utf-8"?>
<!-- Generator: Adobe Illustrator 16.0.0, SVG Export Plug-In . SVG Version: 6.00 Build 0)  -->
<!DOCTYPE svg PUBLIC "-//W3C//DTD SVG 1.1//EN" "http://www.w3.org/Graphics/SVG/1.1/DTD/svg11.dtd">
<svg version="1.1" id="Layer_6" xmlns="http://www.w3.org/2000/svg" xmlns:xlink="http://www.w3.org/1999/xlink" x="0px" y="0px"
	 width="1000px" height="195.1px" viewBox="-202.555 321.594 1000 195.1" enable-background="new -202.555 321.594 1000 195.1"
	 xml:space="preserve">
<g>
	<path fill="#5F6368" d="M600.356,403.253c0,19.642-6.621,36.195-19.642,49.659c-13.241,13.461-29.572,20.082-48.773,20.082
		c-19.425,0-35.756-6.621-48.776-20.082c-13.241-13.244-19.642-29.795-19.642-49.659c0-19.642,6.62-36.196,19.642-49.657
		c13.24-13.464,29.352-20.084,48.776-20.084c19.421,0,35.532,6.842,48.773,20.305C593.735,367.28,600.356,383.611,600.356,403.253z
		 M480.737,403.253c0,15.45,4.854,28.028,14.565,38.182c9.71,10.151,22.07,15.008,36.415,15.008
		c14.567,0,26.705-5.076,36.416-15.008c9.711-9.931,14.787-22.731,14.787-38.182c0-15.448-4.854-28.249-14.787-38.183
		c-9.711-10.151-21.849-15.006-36.416-15.006c-14.564,0-26.705,5.076-36.415,15.006
		C485.591,375.224,480.737,387.805,480.737,403.253z"/>
	<path fill="#5F6368" d="M615.806,378.754h16.331v12.581h0.663c2.647-4.414,6.621-8.167,11.918-11.257
		c5.297-2.867,11.034-4.414,16.774-4.414c11.254,0,19.861,3.09,25.821,9.491c5.958,6.4,9.048,15.451,9.048,27.368v57.381h-17.215
		v-56.278c-0.44-15.008-7.944-22.292-22.512-22.292c-6.84,0-12.58,2.87-17.214,8.387s-6.841,12.138-6.841,19.862v50.543h-16.774
		V378.754z"/>
	<path fill="#5F6368" d="M754.406,472.994c-13.461,0-24.498-4.634-33.105-13.682c-8.607-9.271-13.021-20.748-13.021-34.872
		c0-13.904,4.194-25.381,12.581-34.649c8.388-9.271,19.201-13.904,32.442-13.904c13.464,0,24.278,4.414,32.223,13.241
		c7.946,8.827,11.92,20.968,11.92,36.856l-0.223,1.767h-71.729c0.223,9.05,3.311,16.111,9.051,21.628
		c5.737,5.518,12.58,8.167,20.524,8.167c11.034,0,19.422-5.517,25.602-16.331l15.228,7.504c-4.193,7.724-9.71,13.682-16.994,18.098
		C771.843,470.787,763.676,472.994,754.406,472.994z M727.04,413.406h52.307c-0.443-6.4-3.09-11.477-7.725-15.671
		c-4.636-4.193-10.816-6.18-18.761-6.18c-6.4,0-11.917,1.987-16.774,5.96C731.674,401.266,728.583,406.563,727.04,413.406z"/>
	<path fill="#4285F4" d="M-125.753,472.994c-41.713,0-76.802-33.986-76.802-75.699c0-41.714,35.089-75.702,76.802-75.702
		c23.175,0,39.506,9.049,51.866,20.745l-14.567,14.567c-8.827-8.387-20.745-14.788-37.299-14.788
		c-30.456,0-54.291,24.498-54.291,54.954c0,30.459,23.835,54.957,54.291,54.957c19.644,0,30.898-7.947,38.182-15.229
		c5.96-5.96,9.711-14.347,11.257-26.044h-49.439v-20.745h69.521c0.664,3.75,1.104,8.164,1.104,13.021
		c0,15.448-4.193,34.649-17.875,48.334C-86.247,465.49-103.242,472.994-125.753,472.994z"/>
	<path fill="#EA4335" d="M52.575,424.221c0,28.028-21.628,48.773-48.113,48.773c-26.485,0-48.113-20.745-48.113-48.773
		c0-28.252,21.628-48.776,48.113-48.776C30.947,375.444,52.575,395.969,52.575,424.221z M31.607,424.221
		c0-17.438-12.578-29.575-26.925-29.575c-14.344,0-26.925,11.917-26.925,29.575c0,17.435,12.581,29.572,26.925,29.572
		C19.03,453.793,31.607,441.655,31.607,424.221z"/>
	<path fill="#FBBC04" d="M160.279,424.221c0,28.028-21.631,48.773-48.113,48.773c-26.485,0-48.113-20.745-48.113-48.773
		c0-28.252,21.628-48.776,48.113-48.776C138.648,375.444,160.279,395.969,160.279,424.221z M139.091,424.221
		c0-17.438-12.581-29.575-26.925-29.575c-14.567,0-26.928,11.917-26.928,29.575c0,17.435,12.581,29.572,26.928,29.572
		C126.73,453.793,139.091,441.655,139.091,424.221z"/>
	<path fill="#4285F4" d="M265.113,378.534v87.399c0,35.973-21.188,50.76-46.35,50.76c-23.615,0-37.739-15.891-43.256-28.691
		l18.538-7.725c3.31,7.947,11.477,17.436,24.498,17.436c16.111,0,26.042-9.932,26.042-28.689v-7.063h-0.661
		c-4.856,5.96-14.124,11.034-25.602,11.034c-24.278,0-46.79-21.186-46.79-48.554c0-27.588,22.292-48.996,46.79-48.996
		c11.698,0,20.745,5.077,25.602,10.814h0.661v-7.944h20.528V378.534z M246.351,424.44c0-17.214-11.477-29.795-26.042-29.795
		c-14.788,0-27.148,12.581-27.148,29.795c0,16.994,12.36,29.353,27.148,29.353C234.874,453.793,246.351,441.435,246.351,424.44z"/>
	<path fill="#34A853" d="M302.631,326.891v143.236h-21.408V326.891H302.631z"/>
	<path fill="#EA4335" d="M386.717,440.332l16.552,11.034c-5.297,7.946-18.318,21.628-40.609,21.628
		c-27.586,0-47.67-21.408-47.67-48.773c0-28.912,20.084-48.776,45.243-48.776c25.381,0,37.739,20.084,41.713,30.898l2.206,5.517
		l-65.107,26.925c5.077,9.711,12.801,14.787,23.615,14.787C373.476,453.572,381.2,448.496,386.717,440.332z M335.735,422.674
		l43.479-18.098c-2.427-6.178-9.49-10.371-18.098-10.371C350.302,394.425,335.073,403.916,335.735,422.674z"/>
</g>
</svg>
