<svg width="1005" height="236" viewBox="0 0 1005 236" fill="none" xmlns="http://www.w3.org/2000/svg">
<path d="M443.483 197C428.511 197 416.52 192.066 407.512 182.199C398.504 172.332 394 159.495 394 143.687C394 126.702 398.59 113.153 407.77 103.041C416.95 92.928 429.443 87.8717 445.25 87.8716C459.83 87.8717 471.575 92.7807 480.485 102.599C489.395 112.417 493.85 125.254 493.85 141.11C493.85 158.341 489.285 171.964 480.154 181.978C471.023 191.993 458.799 197 443.483 197ZM444.367 99.0642C433.272 99.0643 424.264 103.065 417.343 111.067C410.421 119.069 406.96 129.574 406.96 142.583C406.96 155.592 410.335 166.061 417.085 173.989C423.835 181.917 432.634 185.881 443.483 185.881C455.069 185.881 464.199 182.101 470.876 174.541C477.552 166.981 480.89 156.402 480.89 142.804C480.89 128.862 477.65 118.087 471.17 110.478C464.69 102.869 455.756 99.0643 444.367 99.0642Z" fill="#064AB1"/>
<path d="M575.586 195.233H563.51V152.229C563.51 136.226 557.668 128.224 545.984 128.224C539.946 128.224 534.951 130.495 530.999 135.036C527.048 139.576 525.072 145.308 525.072 152.229V195.233H512.995V119.83H525.072V132.348H525.366C531.061 122.824 539.308 118.063 550.108 118.062C558.355 118.063 564.663 120.726 569.032 126.052C573.401 131.378 575.586 139.073 575.586 149.137V195.233Z" fill="#064AB1"/>
<path d="M659.015 160.55H605.776C605.973 168.945 608.231 175.425 612.551 179.99C616.871 184.556 622.811 186.838 630.371 186.838C638.863 186.838 646.669 184.04 653.787 178.444V189.784C647.16 194.595 638.397 197 627.499 197C616.846 197 608.476 193.576 602.389 186.728C596.302 179.88 593.258 170.246 593.258 157.826C593.258 146.093 596.584 136.533 603.236 129.145C609.888 121.757 618.147 118.063 628.014 118.062C637.882 118.063 645.515 121.253 650.915 127.635C656.315 134.017 659.015 142.878 659.015 154.218V160.55ZM646.644 150.315C646.595 143.344 644.914 137.92 641.6 134.041C638.287 130.163 633.684 128.224 627.793 128.224C622.099 128.224 617.264 130.262 613.287 134.336C609.311 138.411 606.856 143.737 605.924 150.315H646.644Z" fill="#064AB1"/>
<path d="M678.97 195.232V89.6387H708.13C745.341 89.6388 763.946 106.796 763.946 141.11C763.946 157.408 758.779 170.503 748.446 180.395C738.112 190.286 724.281 195.232 706.952 195.232H678.97ZM691.341 100.831V184.04H707.099C720.943 184.04 731.718 180.333 739.425 172.921C747.133 165.508 750.986 155.003 750.986 141.405C750.986 114.356 736.603 100.831 707.836 100.831H691.341Z" fill="#064AB1"/>
<path d="M822.413 132.053C820.302 130.433 817.258 129.623 813.282 129.623C808.127 129.623 803.82 132.053 800.359 136.913C796.898 141.773 795.168 148.401 795.168 156.795V195.233H783.091V119.83H795.168V135.367H795.462C797.18 130.065 799.807 125.929 803.341 122.959C806.876 119.989 810.827 118.504 815.197 118.504C818.338 118.504 820.744 118.848 822.413 119.535V132.053Z" fill="#064AB1"/>
<path d="M841.705 100.684C839.545 100.685 837.704 99.9482 836.183 98.4753C834.661 97.0027 833.9 95.1373 833.9 92.879C833.9 90.621 834.661 88.7433 836.183 87.2459C837.704 85.7487 839.545 85.0001 841.705 85C843.914 85.0001 845.792 85.7487 847.339 87.2459C848.885 88.7433 849.658 90.621 849.658 92.879C849.658 95.0391 848.885 96.88 847.339 98.4017C845.792 99.9236 843.914 100.685 841.705 100.684ZM847.596 195.233H835.52V119.83H847.596V195.233Z" fill="#064AB1"/>
<path d="M931.32 119.83L901.277 195.233H889.422L860.851 119.83H874.105L893.251 174.615C894.674 178.64 895.558 182.15 895.901 185.145H896.196C896.687 181.365 897.472 177.953 898.552 174.909L918.581 119.83H931.32Z" fill="#064AB1"/>
<path d="M1004.81 160.55H951.57C951.766 168.945 954.025 175.425 958.344 179.99C962.664 184.556 968.604 186.838 976.164 186.838C984.657 186.838 992.462 184.04 999.581 178.444V189.784C992.953 194.595 984.191 197 973.293 197C962.64 197 954.27 193.576 948.183 186.728C942.096 179.88 939.052 170.246 939.052 157.826C939.052 146.093 942.378 136.533 949.03 129.145C955.681 121.757 963.941 118.063 973.808 118.062C983.675 118.063 991.309 121.253 996.709 127.635C1002.11 134.017 1004.81 142.878 1004.81 154.218V160.55ZM992.438 150.315C992.389 143.344 990.707 137.92 987.394 134.041C984.08 130.163 979.478 128.224 973.587 128.224C967.893 128.224 963.057 130.262 959.081 134.336C955.105 138.411 952.65 143.737 951.717 150.315H992.438Z" fill="#064AB1"/>
<g clip-path="url(#clip0_222_103)">
<path d="M140.71 65.538L140.713 65.5253L218.176 111.848L264.335 92.4556C273.714 88.4073 283.828 86.3315 294.047 86.3414C295.749 86.3414 297.432 86.4186 299.107 86.5301C293.557 64.9265 281.842 45.3972 265.384 30.3154C248.927 15.2335 228.436 5.24849 206.402 1.57367C184.368 -2.10115 161.738 0.69244 141.264 9.61497C120.791 18.5375 103.353 33.2048 91.0713 51.8346C91.4659 51.8296 91.8545 51.8049 92.25 51.8049C109.37 51.7817 126.155 56.5385 140.71 65.538Z" fill="#0364B8"/>
<path d="M140.713 65.5252L140.709 65.5379C126.155 56.5384 109.37 51.7816 92.25 51.8048C91.8545 51.8048 91.4653 51.8295 91.0712 51.8345C74.3151 52.0416 57.9323 56.8032 43.6834 65.6076C29.4344 74.412 17.8579 86.9264 10.1979 101.806C2.53793 116.685 -0.91593 133.367 0.207483 150.059C1.3309 166.751 6.98911 182.822 16.5741 196.545L84.8852 167.846L115.252 155.088L182.866 126.682L218.176 111.848L140.713 65.5252Z" fill="#0078D4"/>
<path d="M299.107 86.53C297.432 86.4185 295.749 86.3413 294.047 86.3413C283.828 86.3314 273.716 88.415 264.337 92.4633L218.176 111.848L231.561 119.852L275.437 146.09L294.58 157.537L360.035 196.679C365.982 185.657 369.065 173.32 368.999 160.8C368.934 148.28 365.722 135.976 359.66 125.016C353.597 114.056 344.877 104.79 334.298 98.0658C323.719 91.342 311.619 87.3756 299.107 86.53Z" fill="#1490DF"/>
<path d="M294.58 157.537L275.437 146.09L231.561 119.852L218.176 111.848L182.866 126.683L115.252 155.088L84.8853 167.846L16.5742 196.545C25.0631 208.73 36.3797 218.682 49.5576 225.553C62.7356 232.423 77.3833 236.008 92.25 236H294.047C307.577 236.004 320.856 232.351 332.474 225.428C344.092 218.505 353.616 208.571 360.035 196.679L294.58 157.537Z" fill="#28A8EA"/>
</g>
<defs>
<clipPath id="clip0_222_103">
<rect width="369" height="236" fill="white"/>
</clipPath>
</defs>
</svg>
