<?xml version="1.0" encoding="UTF-8" ?>
<!DOCTYPE svg PUBLIC "-//W3C//DTD SVG 1.1//EN" "http://www.w3.org/Graphics/SVG/1.1/DTD/svg11.dtd">
<svg width="1000pt" height="500pt" viewBox="0 0 1000 500" version="1.1" xmlns="http://www.w3.org/2000/svg">
<g id="#ffffffff">
</g>
<g id="#4385f5ff">
<path fill="#4385f5" opacity="1.00" d=" M 187.92 12.57 C 194.42 10.43 201.26 11.49 207.95 11.25 C 232.07 11.00 255.66 21.26 273.00 37.85 C 266.86 43.90 260.80 50.02 254.73 56.15 C 241.85 44.29 224.67 36.75 207.01 37.19 C 188.03 36.43 168.87 44.01 155.58 57.59 C 143.51 69.20 135.89 85.26 134.38 101.93 C 133.90 112.16 133.94 122.64 137.38 132.42 C 146.21 161.48 175.30 183.73 206.03 182.30 C 226.10 183.34 246.41 174.67 259.27 159.16 C 264.30 153.19 267.35 145.81 269.36 138.33 C 270.16 135.03 271.01 131.65 270.67 128.23 C 269.28 127.43 267.56 127.81 266.04 127.68 C 246.28 127.78 226.52 127.67 206.76 127.74 C 206.78 119.08 206.76 110.42 206.77 101.77 C 236.66 101.72 266.56 101.85 296.45 101.70 C 298.15 109.65 297.80 117.83 297.62 125.90 C 295.99 146.09 289.03 166.82 274.15 181.13 C 263.77 192.25 250.24 200.35 235.62 204.48 C 218.59 209.36 200.31 210.01 183.07 205.84 C 158.96 200.24 137.02 185.49 123.04 165.03 C 113.38 151.17 107.49 134.76 105.84 117.97 C 105.64 111.96 105.81 105.94 105.72 99.93 C 107.77 84.36 113.08 69.06 121.90 55.99 C 136.80 33.36 161.30 17.40 187.92 12.57 Z" />
<path fill="#4385f5" opacity="1.00" d=" M 608.37 99.34 C 619.57 88.22 635.19 81.55 651.03 81.74 C 662.01 82.27 673.16 86.19 681.14 93.93 C 682.21 94.88 683.44 95.63 684.63 96.44 C 684.79 92.87 684.78 89.30 684.77 85.74 C 693.25 85.77 701.74 85.75 710.23 85.76 C 710.25 125.52 710.23 165.29 710.24 205.05 C 709.65 220.86 704.98 237.15 694.07 249.00 C 682.55 261.07 665.34 266.44 648.93 265.74 C 625.45 266.14 603.30 250.47 594.33 229.03 C 602.01 225.77 609.81 222.79 617.42 219.38 C 622.58 229.96 631.88 239.35 643.88 241.37 C 652.42 242.42 661.69 241.88 669.20 237.26 C 675.33 233.71 679.86 227.75 682.21 221.12 C 685.32 212.57 685.09 203.26 684.49 194.32 C 684.17 194.34 683.53 194.37 683.22 194.39 C 680.37 196.46 678.18 199.34 675.14 201.16 C 665.70 207.12 654.08 209.78 643.01 208.08 C 625.90 205.84 609.98 195.90 600.34 181.61 C 591.71 169.02 587.61 153.26 589.42 138.08 C 591.20 123.55 597.79 109.54 608.37 99.34 M 644.23 107.25 C 637.73 108.80 631.78 112.39 627.17 117.19 C 614.23 130.95 612.84 153.89 623.84 169.21 C 628.20 175.42 634.67 180.14 641.90 182.44 C 652.25 185.71 664.27 183.74 672.65 176.70 C 691.00 161.48 690.92 129.63 673.04 114.07 C 665.30 107.24 654.21 104.78 644.23 107.25 Z" />
</g>
<g id="#34a853ff">
<path fill="#34a853" opacity="1.00" d=" M 731.16 18.40 C 740.06 18.10 749.01 18.14 757.92 18.39 C 758.21 19.56 758.34 20.74 758.31 21.95 C 758.24 82.89 758.30 143.82 758.28 204.75 C 749.10 204.78 739.92 204.71 730.75 204.80 C 730.60 148.21 730.73 91.61 730.69 35.02 C 730.99 29.51 730.05 23.77 731.16 18.40 Z" />
</g>
<g id="#e94335ff">
<path fill="#e94335" opacity="1.00" d=" M 360.54 82.82 C 374.09 80.20 388.46 82.11 400.92 88.03 C 417.10 95.53 429.58 110.52 434.05 127.78 C 438.19 142.95 436.76 159.61 429.80 173.73 C 423.96 185.92 413.90 195.98 401.73 201.82 C 387.54 209.01 370.68 210.53 355.38 206.30 C 336.72 201.52 320.64 187.52 313.62 169.55 C 308.89 158.00 308.18 145.14 310.05 132.90 C 313.04 117.14 321.96 102.34 335.32 93.27 C 342.83 88.01 351.52 84.48 360.54 82.82 M 367.53 106.68 C 361.25 107.64 355.26 110.32 350.33 114.32 C 338.23 124.03 334.04 141.24 337.81 155.94 C 340.48 166.68 348.00 176.26 358.14 180.84 C 368.28 185.51 380.70 184.99 390.29 179.21 C 396.77 175.54 401.82 169.65 404.99 162.95 C 412.21 147.50 409.32 127.17 396.39 115.57 C 388.79 108.41 377.83 105.15 367.53 106.68 Z" />
<path fill="#e94335" opacity="1.00" d=" M 798.36 92.34 C 813.40 81.82 833.57 78.61 850.93 84.85 C 864.05 89.40 874.67 99.53 881.52 111.43 C 884.78 116.96 887.02 122.98 889.30 128.94 C 866.78 138.24 844.26 147.53 821.76 156.87 C 815.96 159.39 809.93 161.41 804.32 164.34 C 805.55 168.83 808.98 172.52 812.14 175.86 C 821.07 184.37 834.57 186.01 846.14 183.02 C 854.84 180.47 862.10 174.36 867.13 166.94 C 874.24 171.45 881.20 176.20 888.18 180.92 C 881.08 190.56 871.86 199.00 860.67 203.59 C 842.73 211.26 821.33 210.15 804.27 200.69 C 794.40 195.29 786.17 187.06 780.78 177.19 C 771.92 161.58 770.49 142.34 775.33 125.21 C 778.99 112.04 787.22 100.25 798.36 92.34 M 805.99 121.04 C 801.39 127.49 799.71 135.54 799.71 143.35 C 818.88 135.49 838.01 127.49 857.15 119.53 C 854.27 112.08 846.64 107.74 839.12 106.33 C 826.42 103.85 813.14 110.59 805.99 121.04 Z" />
</g>
<g id="#fcbc05ff">
<path fill="#fcbc05" opacity="1.00" d=" M 500.55 82.88 C 517.68 79.55 536.24 83.49 550.41 93.70 C 562.04 101.78 570.35 114.23 573.98 127.86 C 578.18 142.97 576.68 159.63 569.73 173.70 C 562.58 188.71 548.91 200.26 533.11 205.28 C 516.93 210.80 498.55 209.37 483.34 201.64 C 470.32 195.29 459.69 184.14 454.16 170.73 C 447.80 155.91 447.43 138.79 452.55 123.55 C 457.24 110.57 465.89 98.77 477.88 91.67 C 484.81 87.37 492.51 84.32 500.55 82.88 M 507.53 106.69 C 497.23 108.24 487.68 114.43 482.37 123.44 C 475.28 135.10 474.55 150.33 480.21 162.70 C 484.81 172.98 494.38 181.02 505.48 183.27 C 512.37 184.46 519.72 184.17 526.17 181.24 C 535.83 177.27 543.30 168.78 546.59 158.93 C 551.38 144.61 548.46 127.29 537.44 116.57 C 529.76 108.82 518.32 105.05 507.53 106.69 Z" />
</g>
<g id="#606369ff">
<path fill="#606369" opacity="1.00" d=" M 1.31 283.70 C 7.74 283.76 14.16 283.77 20.59 283.68 C 31.25 322.37 41.42 361.19 51.91 399.93 C 52.27 401.53 53.09 402.96 53.86 404.41 C 55.97 400.04 57.25 395.34 58.79 390.76 C 68.44 361.94 77.98 333.08 87.55 304.23 C 93.41 304.24 99.28 304.24 105.15 304.23 C 115.07 334.50 125.22 364.69 135.25 394.92 C 136.16 397.66 136.89 400.47 138.16 403.07 C 138.57 403.08 139.41 403.10 139.82 403.12 C 150.26 363.36 159.84 323.38 170.44 283.67 C 176.83 283.79 183.22 283.73 189.61 283.72 C 176.19 334.25 162.67 384.77 149.17 435.28 C 142.77 435.24 136.37 435.26 129.97 435.26 C 122.57 412.86 115.35 390.41 108.02 368.00 C 104.12 356.78 100.92 345.32 96.72 334.21 C 96.08 334.93 95.49 335.70 94.97 336.51 C 84.07 369.42 73.61 402.50 62.51 435.35 C 56.20 435.22 49.88 435.25 43.57 435.33 C 29.36 384.82 15.43 334.23 1.31 283.70 Z" />
<path fill="#606369" opacity="1.00" d=" M 383.74 283.73 C 389.92 283.72 396.09 283.74 402.27 283.73 C 402.27 310.48 402.26 337.22 402.27 363.96 C 402.29 368.45 402.00 372.96 402.73 377.41 C 407.23 374.07 410.80 369.71 414.85 365.86 C 425.61 355.27 435.86 344.17 446.61 333.57 C 447.56 332.77 448.48 331.52 449.91 331.77 C 457.59 331.70 465.27 331.75 472.95 331.80 C 459.36 345.55 445.54 359.09 431.99 372.88 C 446.38 393.61 460.48 414.53 474.85 435.28 C 467.18 435.27 459.51 435.27 451.84 435.27 C 445.05 425.04 438.23 414.84 431.45 404.61 C 427.28 398.47 423.60 391.99 418.99 386.17 C 413.11 391.23 407.96 397.07 402.33 402.39 C 402.20 413.35 402.30 424.31 402.28 435.27 C 396.10 435.26 389.92 435.26 383.74 435.27 C 383.72 384.76 383.72 334.24 383.74 283.73 Z" />
<path fill="#606369" opacity="1.00" d=" M 231.38 329.43 C 245.14 326.69 260.12 329.26 271.85 337.09 C 283.00 344.73 291.11 356.66 293.93 369.90 C 296.93 383.86 295.43 398.97 288.65 411.65 C 281.93 423.79 270.39 433.39 256.85 436.85 C 240.27 441.17 221.33 438.10 208.08 426.87 C 188.75 411.13 183.98 381.99 193.57 359.61 C 200.19 344.14 214.71 332.25 231.38 329.43 M 233.55 346.81 C 221.31 350.05 211.68 360.77 209.07 373.06 C 207.50 380.40 207.55 388.11 209.34 395.41 C 211.94 405.96 219.73 415.18 229.86 419.19 C 238.36 422.38 248.12 422.08 256.39 418.33 C 265.25 414.13 271.99 405.86 274.60 396.43 C 277.01 387.80 276.89 378.47 274.31 369.89 C 272.03 362.38 266.95 355.91 260.60 351.37 C 252.81 346.01 242.67 344.46 233.55 346.81 Z" />
<path fill="#606369" opacity="1.00" d=" M 336.09 339.14 C 342.61 333.16 351.12 329.19 360.01 328.74 C 364.59 328.73 369.06 329.89 373.48 330.94 C 372.12 337.11 369.81 342.99 368.11 349.06 C 360.25 348.00 351.41 346.81 344.32 351.26 C 335.32 356.54 329.00 366.40 328.79 376.94 C 328.72 396.38 328.77 415.83 328.77 435.28 C 322.62 435.28 316.46 435.20 310.31 435.34 C 310.11 400.82 310.30 366.31 310.22 331.79 C 316.20 331.74 322.18 331.73 328.17 331.80 C 328.35 337.56 327.88 343.34 328.59 349.08 C 331.32 345.94 332.94 341.94 336.09 339.14 Z" />
<path fill="#606369" opacity="1.00" d=" M 484.34 340.32 C 493.09 331.47 505.98 328.50 518.04 328.30 C 528.79 328.71 539.68 332.02 548.02 338.99 C 552.28 342.40 555.30 347.07 557.67 351.93 C 552.16 354.18 546.67 356.52 541.18 358.83 C 537.23 351.38 529.48 346.20 521.10 345.37 C 515.76 345.09 510.11 344.71 505.17 347.18 C 500.47 349.28 495.43 353.33 495.73 359.01 C 495.98 364.32 500.73 367.89 505.32 369.61 C 518.92 374.58 534.19 375.28 546.61 383.28 C 554.38 388.04 559.70 396.83 559.32 406.07 C 559.75 411.92 557.94 417.78 554.46 422.48 C 547.41 432.06 535.71 437.45 524.03 438.39 C 511.72 439.83 498.75 436.79 488.82 429.25 C 482.08 424.33 476.96 417.37 473.95 409.63 C 479.44 407.35 484.91 405.02 490.32 402.57 C 493.57 409.56 498.67 415.98 505.75 419.35 C 513.10 423.03 521.87 422.91 529.55 420.29 C 533.93 418.54 538.41 415.63 540.03 410.97 C 540.85 407.07 540.13 402.69 537.23 399.80 C 532.52 394.95 525.77 392.95 519.35 391.53 C 507.26 388.32 493.97 386.36 484.39 377.58 C 473.96 368.03 474.43 350.06 484.34 340.32 Z" />
<path fill="#606369" opacity="1.00" d=" M 597.89 339.89 C 605.29 333.03 615.19 329.22 625.19 328.41 C 640.24 327.44 655.28 334.62 664.37 346.59 C 683.22 368.97 681.20 405.73 659.69 425.67 C 644.37 441.58 616.98 443.14 599.99 429.04 C 596.72 426.53 594.58 422.91 591.48 420.23 C 591.16 427.50 592.36 434.74 592.25 442.02 C 592.18 455.09 592.29 468.17 592.18 481.25 C 585.86 481.27 579.55 481.27 573.23 481.25 C 573.25 431.43 573.25 381.62 573.23 331.81 C 579.23 331.71 585.24 331.76 591.24 331.76 C 591.27 336.65 591.14 341.55 591.36 346.44 C 594.24 345.04 595.59 341.97 597.89 339.89 M 617.42 346.58 C 604.76 349.35 595.13 360.60 592.61 373.07 C 590.39 384.03 591.32 396.10 597.19 405.84 C 601.69 413.14 609.05 418.93 617.57 420.59 C 624.26 422.06 631.42 421.50 637.70 418.72 C 647.66 414.19 654.92 404.57 657.13 393.92 C 658.43 387.40 658.51 380.61 657.26 374.09 C 655.50 364.55 649.75 355.80 641.60 350.53 C 634.50 346.02 625.59 344.64 617.42 346.58 Z" />
<path fill="#606369" opacity="1.00" d=" M 689.97 348.40 C 696.75 337.86 708.58 331.20 720.83 329.33 C 731.22 327.36 742.12 328.36 752.06 331.93 C 762.36 335.61 771.13 343.82 774.84 354.18 C 776.77 359.57 777.83 365.28 777.79 371.01 C 777.75 392.43 777.78 413.84 777.77 435.25 C 771.78 435.26 765.79 435.27 759.80 435.25 C 759.71 430.43 759.89 425.61 759.57 420.80 C 756.24 422.62 754.55 426.25 751.71 428.67 C 739.87 440.45 720.42 441.38 705.97 434.14 C 697.09 429.67 689.68 421.67 687.28 411.87 C 684.72 401.65 686.72 389.90 694.06 382.05 C 700.64 374.69 710.25 370.68 719.89 369.30 C 733.23 366.88 747.18 369.06 759.50 374.61 C 759.99 369.51 760.23 364.04 757.51 359.48 C 752.55 350.00 741.63 344.16 730.99 345.20 C 720.97 344.65 711.95 350.77 706.20 358.55 C 700.85 355.07 695.39 351.77 689.97 348.40 M 709.63 393.54 C 705.03 398.85 704.64 407.38 708.92 413.00 C 712.64 417.99 718.68 420.97 724.81 421.61 C 742.20 423.60 759.73 408.57 759.66 390.89 C 751.48 384.87 740.97 383.26 731.05 383.79 C 723.05 384.23 714.81 387.18 709.63 393.54 Z" />
<path fill="#606369" opacity="1.00" d=" M 830.88 330.09 C 845.74 326.26 862.53 328.68 874.82 338.19 C 881.57 343.12 886.42 350.18 889.80 357.74 C 884.17 360.01 878.63 362.52 872.94 364.67 C 869.78 358.05 865.11 351.78 858.34 348.55 C 848.77 343.90 836.78 344.14 827.63 349.71 C 818.99 355.32 812.66 364.46 810.93 374.67 C 809.41 384.03 809.97 394.09 814.29 402.69 C 818.36 410.25 824.72 416.94 832.92 419.94 C 840.73 422.69 849.48 422.14 857.20 419.34 C 864.92 416.36 870.48 409.68 873.98 402.38 C 879.42 404.65 884.80 407.07 890.27 409.28 C 885.37 422.71 873.34 432.92 859.67 436.70 C 844.99 440.68 828.44 438.86 815.57 430.51 C 803.22 422.80 795.10 409.37 792.49 395.20 C 790.12 383.95 791.37 372.13 795.41 361.42 C 801.28 346.11 814.82 333.80 830.88 330.09 Z" />
<path fill="#606369" opacity="1.00" d=" M 935.88 329.95 C 950.52 326.50 967.04 328.62 979.28 337.76 C 994.46 348.79 999.78 368.76 998.97 386.72 C 971.57 386.84 944.17 386.67 916.77 386.81 C 916.97 397.01 920.83 407.48 929.06 413.90 C 937.50 421.24 949.70 423.45 960.37 420.44 C 969.33 418.07 976.06 410.94 980.69 403.22 C 986.13 405.94 991.59 408.63 997.06 411.28 C 990.52 424.10 978.09 433.51 964.21 437.03 C 949.85 440.52 933.85 438.71 921.38 430.49 C 911.77 423.94 904.27 414.22 900.75 403.11 C 896.02 388.71 896.81 372.65 902.69 358.71 C 908.72 344.83 920.99 333.49 935.88 329.95 M 931.74 350.80 C 924.87 355.37 920.56 362.94 918.75 370.86 C 938.73 371.29 958.73 370.94 978.72 371.05 C 978.36 360.44 970.61 350.84 960.62 347.62 C 951.16 344.53 940.07 344.96 931.74 350.80 Z" />
</g>
</svg>
