<?xml version="1.0" encoding="UTF-8" ?>
<!DOCTYPE svg PUBLIC "-//W3C//DTD SVG 1.1//EN" "http://www.w3.org/Graphics/SVG/1.1/DTD/svg11.dtd">
<svg width="1200pt" height="198pt" viewBox="0 0 1200 198" version="1.1" xmlns="http://www.w3.org/2000/svg">
<g id="#f25022ff">
<path fill="#f25022" opacity="1.00" d=" M 3.63 2.68 C 34.23 2.66 64.83 2.68 95.43 2.67 C 95.48 33.28 95.43 63.88 95.46 94.49 C 64.84 94.50 34.23 94.52 3.61 94.48 C 3.63 63.88 3.59 33.28 3.63 2.68 Z" />
</g>
<g id="#7fba00ff">
<path fill="#7fba00" opacity="1.00" d=" M 104.71 2.69 C 135.35 2.64 165.98 2.70 196.62 2.66 C 196.71 33.27 196.64 63.89 196.66 94.50 C 166.01 94.48 135.35 94.54 104.69 94.47 C 104.72 63.88 104.68 33.28 104.71 2.69 Z" />
</g>
<g id="#737373ff">
<path fill="#737373" opacity="1.00" d=" M 841.05 33.86 C 847.74 32.13 854.86 32.38 861.54 34.05 C 861.52 39.70 861.55 45.35 861.52 51.01 C 857.23 49.26 852.45 48.50 847.91 49.67 C 844.49 50.72 841.86 53.70 840.85 57.08 C 839.16 62.45 840.02 68.13 839.67 73.65 C 843.36 74.67 847.24 74.03 851.03 74.18 C 856.89 74.06 862.77 74.45 868.63 74.01 C 868.86 67.86 868.70 61.69 868.67 55.54 C 875.21 53.26 881.92 51.50 888.51 49.34 C 888.60 57.62 888.47 65.90 888.58 74.18 C 895.16 74.19 901.75 74.18 908.34 74.19 C 908.34 79.54 908.36 84.88 908.33 90.23 C 901.73 90.24 895.13 90.21 888.54 90.24 C 888.56 103.50 888.51 116.75 888.56 130.01 C 888.69 134.15 889.47 139.16 893.49 141.33 C 898.19 143.94 903.88 142.56 908.35 140.11 C 908.36 145.54 908.31 150.97 908.38 156.41 C 899.13 159.87 888.11 160.66 879.16 155.91 C 871.74 151.81 869.03 142.87 868.78 134.90 C 868.65 120.01 868.76 105.12 868.73 90.23 C 859.08 90.24 849.42 90.18 839.77 90.27 C 839.73 112.61 839.87 134.95 839.70 157.29 C 833.25 157.29 826.79 157.15 820.35 157.37 C 819.48 154.31 819.86 151.12 819.81 147.98 C 819.82 128.73 819.81 109.48 819.82 90.23 C 815.28 90.23 810.75 90.23 806.23 90.24 C 806.15 84.89 806.20 79.53 806.18 74.18 C 810.70 74.19 815.22 74.18 819.75 74.19 C 820.01 67.39 819.22 60.45 821.00 53.79 C 823.43 44.17 831.49 36.35 841.05 33.86 Z" />
<path fill="#737373" opacity="1.00" d=" M 403.41 39.64 C 410.32 36.29 419.83 41.08 420.34 48.98 C 421.36 55.89 414.75 62.00 408.02 61.45 C 401.90 61.62 396.07 56.21 396.38 49.99 C 396.20 45.46 399.39 41.41 403.41 39.64 Z" />
<path fill="#737373" opacity="1.00" d=" M 959.66 45.74 C 969.17 40.56 980.28 38.89 991.00 39.36 C 1000.65 39.79 1010.51 43.62 1016.78 51.18 C 1023.55 59.34 1023.93 71.32 1019.84 80.78 C 1016.22 88.95 1008.10 94.37 999.54 96.21 C 1007.19 97.80 1015.18 100.35 1020.36 106.58 C 1027.05 114.21 1027.84 125.42 1024.87 134.78 C 1021.94 144.48 1013.79 151.96 1004.49 155.53 C 997.69 158.25 990.30 159.00 983.05 159.23 C 973.61 158.74 963.82 157.57 955.41 152.93 C 955.48 146.56 955.38 140.19 955.48 133.81 C 963.32 139.86 973.21 142.91 983.04 143.22 C 989.64 143.03 996.75 141.52 1001.49 136.56 C 1007.58 130.38 1007.90 119.41 1002.00 113.00 C 992.80 104.17 979.04 105.63 967.33 105.56 C 967.33 100.16 967.33 94.77 967.32 89.37 C 976.68 89.26 986.87 90.39 995.21 85.21 C 1003.75 80.20 1004.71 66.89 997.90 60.07 C 992.82 55.40 985.46 54.78 978.90 55.39 C 971.85 56.00 965.46 59.40 959.71 63.33 C 959.65 57.47 959.73 51.60 959.66 45.74 Z" />
<path fill="#737373" opacity="1.00" d=" M 1057.99 49.92 C 1066.74 42.37 1078.47 38.80 1089.95 39.28 C 1096.53 39.47 1103.35 39.82 1109.45 42.58 C 1109.37 48.41 1109.46 54.24 1109.39 60.06 C 1100.71 56.00 1090.74 53.81 1081.27 56.13 C 1073.04 58.11 1066.40 64.36 1062.67 71.81 C 1058.84 79.57 1057.43 88.34 1057.51 96.93 C 1060.33 91.98 1064.83 88.11 1070.21 86.16 C 1082.23 81.36 1096.99 83.49 1106.60 92.36 C 1111.51 96.58 1114.66 102.55 1116.03 108.84 C 1117.71 117.12 1117.56 125.86 1115.04 133.96 C 1111.00 147.16 1098.42 156.81 1084.92 158.60 C 1078.03 159.12 1070.85 159.34 1064.27 156.89 C 1053.58 153.21 1045.69 143.88 1041.78 133.50 C 1036.64 120.01 1036.65 105.18 1038.10 91.01 C 1039.70 75.60 1045.64 59.88 1057.99 49.92 M 1073.10 99.89 C 1065.73 101.36 1059.79 107.75 1058.63 115.14 C 1057.79 121.29 1058.49 127.87 1061.79 133.25 C 1064.97 138.57 1070.61 142.87 1077.02 142.81 C 1082.09 143.24 1087.40 141.75 1091.02 138.07 C 1096.47 132.97 1097.76 124.98 1097.12 117.87 C 1096.66 112.75 1095.08 107.40 1091.07 103.93 C 1086.32 99.48 1079.26 98.68 1073.10 99.89 Z" />
<path fill="#737373" opacity="1.00" d=" M 254.42 41.33 C 264.05 41.32 273.69 41.34 283.32 41.33 C 291.87 63.26 300.35 85.22 308.86 107.17 C 311.56 113.81 313.82 120.63 316.84 127.14 C 328.53 98.56 340.29 70.01 351.89 41.39 C 361.17 41.25 370.44 41.37 379.72 41.33 C 379.69 79.98 379.81 118.63 379.66 157.28 C 372.97 157.25 366.27 157.27 359.58 157.27 C 359.40 126.90 359.79 96.52 359.38 66.16 C 347.46 96.57 335.43 126.95 323.30 157.28 C 318.85 157.25 314.40 157.29 309.96 157.24 C 298.47 128.75 286.87 100.31 275.33 71.84 C 274.62 70.05 274.04 68.22 273.48 66.39 C 273.31 68.58 273.15 70.78 273.16 72.99 C 273.21 99.67 273.13 126.35 273.20 153.02 C 273.24 154.49 272.98 155.94 272.65 157.37 C 266.59 157.16 260.53 157.29 254.47 157.28 C 254.36 118.63 254.46 79.98 254.42 41.33 Z" />
<path fill="#737373" opacity="1.00" d=" M 1134.44 41.19 C 1153.69 41.29 1172.96 40.99 1192.22 41.34 C 1192.20 46.73 1192.03 52.12 1192.29 57.51 C 1189.94 58.35 1187.42 58.18 1184.99 58.16 C 1173.52 58.15 1162.05 57.96 1150.59 58.18 C 1150.11 67.39 1149.53 76.61 1148.63 85.79 C 1157.72 85.46 1167.11 85.13 1175.82 88.24 C 1184.60 91.19 1192.00 98.18 1195.09 106.96 C 1198.37 116.44 1198.20 127.11 1194.51 136.44 C 1190.52 146.30 1181.61 153.66 1171.55 156.76 C 1156.70 161.18 1140.27 159.60 1126.37 152.82 C 1126.27 146.62 1126.30 140.43 1126.36 134.24 C 1133.68 139.84 1142.76 142.97 1151.97 143.21 C 1158.45 143.01 1165.23 141.60 1170.29 137.29 C 1177.34 131.64 1179.10 120.88 1175.14 112.93 C 1172.41 107.61 1166.88 104.31 1161.21 102.95 C 1151.07 100.40 1140.58 102.10 1130.31 102.63 C 1131.59 82.14 1132.99 61.66 1134.44 41.19 Z" />
<path fill="#737373" opacity="1.00" d=" M 597.38 72.46 C 606.62 71.80 616.33 71.99 624.77 76.25 C 635.82 81.43 643.20 92.69 645.03 104.59 C 646.52 114.80 646.22 125.62 642.18 135.25 C 637.99 145.40 629.20 153.53 618.71 156.83 C 608.48 159.93 597.32 160.05 587.07 156.98 C 577.73 154.14 569.57 147.47 565.22 138.71 C 560.42 129.28 559.69 118.26 561.07 107.92 C 562.40 97.50 567.38 87.28 575.79 80.79 C 581.94 75.93 589.63 73.26 597.38 72.46 M 600.03 88.88 C 596.19 89.45 592.35 90.76 589.42 93.38 C 584.01 97.92 581.51 105.11 581.24 112.00 C 581.03 118.16 580.88 124.60 583.48 130.34 C 585.76 136.11 590.89 140.61 596.95 142.02 C 604.26 143.63 612.87 142.91 618.47 137.44 C 624.00 131.84 625.27 123.54 625.42 116.00 C 625.43 108.39 624.14 99.99 618.53 94.38 C 613.83 89.49 606.55 88.05 600.03 88.88 Z" />
<path fill="#737373" opacity="1.00" d=" M 752.63 72.85 C 762.48 71.66 772.94 71.62 782.15 75.81 C 792.17 80.18 799.47 89.56 802.28 100.01 C 804.86 109.87 804.85 120.41 802.20 130.26 C 799.16 141.28 791.22 151.00 780.59 155.45 C 770.01 159.83 757.98 160.26 746.94 157.46 C 736.19 154.68 726.81 146.90 722.47 136.63 C 718.13 126.31 717.80 114.61 720.08 103.74 C 721.86 95.33 726.28 87.42 732.84 81.81 C 738.36 76.92 745.44 74.13 752.63 72.85 M 758.08 88.94 C 752.54 89.60 747.28 92.52 744.17 97.20 C 739.21 104.42 738.79 113.66 739.61 122.10 C 740.40 130.08 744.73 138.40 752.67 141.22 C 760.10 143.76 769.21 143.51 775.57 138.47 C 782.00 133.04 783.71 124.04 783.58 116.02 C 783.77 108.58 782.46 100.45 777.20 94.82 C 772.47 89.59 764.86 87.93 758.08 88.94 Z" />
<path fill="#737373" opacity="1.00" d=" M 456.41 75.59 C 469.17 70.58 484.20 70.61 496.66 76.53 C 496.63 82.86 496.67 89.19 496.63 95.52 C 490.91 91.51 484.24 88.27 477.08 88.54 C 469.20 88.47 461.28 92.23 456.85 98.84 C 451.88 105.79 451.56 114.82 452.58 123.00 C 453.87 131.58 460.11 139.37 468.63 141.61 C 478.33 144.73 488.72 141.24 496.63 135.39 C 496.59 141.61 496.82 147.85 496.48 154.07 C 485.19 159.44 471.98 160.70 459.89 157.49 C 447.64 154.18 437.50 144.27 433.68 132.21 C 430.89 123.37 431.02 113.81 432.99 104.82 C 435.81 92.25 444.26 80.53 456.41 75.59 Z" />
<path fill="#737373" opacity="1.00" d=" M 538.13 77.19 C 544.12 72.46 552.45 71.56 559.65 73.68 C 559.64 80.36 559.70 87.04 559.62 93.71 C 555.04 90.96 549.54 89.88 544.29 90.95 C 538.50 92.48 534.12 97.46 532.44 103.10 C 530.70 108.88 530.71 115.00 530.79 120.99 C 530.75 133.09 530.88 145.19 530.72 157.28 C 524.25 157.25 517.77 157.25 511.30 157.28 C 511.14 129.59 511.28 101.88 511.23 74.18 C 517.75 74.19 524.27 74.19 530.79 74.18 C 530.80 78.26 530.73 82.33 530.87 86.40 C 533.08 83.19 534.90 79.55 538.13 77.19 Z" />
<path fill="#737373" opacity="1.00" d=" M 656.10 90.20 C 659.15 80.72 668.47 74.57 677.91 72.76 C 687.19 71.26 696.81 72.12 705.72 75.12 C 705.88 81.41 705.84 87.70 705.74 93.99 C 698.14 89.44 688.60 85.77 679.83 89.01 C 676.79 90.05 675.19 93.00 674.65 95.99 C 675.29 98.71 676.03 101.79 678.71 103.24 C 686.85 108.34 696.94 110.12 704.01 116.97 C 710.61 123.08 711.93 133.22 709.24 141.49 C 706.53 149.54 699.05 155.09 691.09 157.33 C 679.32 160.83 666.71 159.02 655.29 155.05 C 654.37 148.69 655.02 142.24 654.87 135.83 C 661.93 139.06 668.92 143.32 676.95 143.39 C 681.12 143.43 686.14 143.38 689.14 140.01 C 692.03 136.10 690.19 130.29 686.20 127.89 C 678.19 122.59 668.06 120.87 661.09 113.91 C 654.96 107.84 653.72 98.21 656.10 90.20 Z" />
<path fill="#737373" opacity="1.00" d=" M 398.43 74.20 C 405.02 74.21 411.61 74.10 418.20 74.27 C 418.17 98.83 418.19 123.39 418.18 147.95 C 418.12 151.09 418.53 154.31 417.63 157.37 C 411.25 157.15 404.87 157.31 398.49 157.27 C 398.37 129.58 398.48 101.89 398.43 74.20 Z" />
</g>
<g id="#00a4efff">
<path fill="#00a4ef" opacity="1.00" d=" M 3.64 103.74 C 34.23 103.73 64.83 103.75 95.42 103.73 C 95.52 134.36 95.38 165.00 95.49 195.64 C 64.86 195.74 34.23 195.69 3.60 195.66 C 3.65 165.02 3.57 134.38 3.64 103.74 Z" />
</g>
<g id="#ffb900ff">
<path fill="#ffb900" opacity="1.00" d=" M 104.72 103.74 C 135.35 103.71 165.97 103.76 196.60 103.72 C 196.74 134.37 196.62 165.03 196.67 195.69 C 166.01 195.66 135.35 195.76 104.68 195.64 C 104.73 165.01 104.67 134.38 104.72 103.74 Z" />
</g>
</svg>
