<?xml version="1.0" encoding="UTF-8" ?>
<!DOCTYPE svg PUBLIC "-//W3C//DTD SVG 1.1//EN" "http://www.w3.org/Graphics/SVG/1.1/DTD/svg11.dtd">
<svg width="1024pt" height="387pt" viewBox="0 0 1024 387" version="1.1" xmlns="http://www.w3.org/2000/svg">
<g id="#000000ff">
<path fill="#000000" opacity="1.00" d=" M 234.65 0.00 L 235.71 0.00 C 237.79 27.16 226.22 54.85 205.60 72.60 C 192.60 83.64 175.54 89.54 158.51 89.31 C 156.85 65.85 166.05 42.15 182.64 25.58 C 196.30 11.30 215.09 2.34 234.65 0.00 Z" />
<path fill="#000000" opacity="1.00" d=" M 382.15 47.74 C 400.25 47.66 418.36 47.65 436.46 47.67 C 436.49 69.23 436.45 90.78 436.48 112.33 C 453.68 112.34 470.87 112.33 488.07 112.34 C 488.08 126.56 488.08 140.77 488.07 154.99 C 470.87 155.02 453.67 154.98 436.47 155.01 C 436.48 206.02 436.45 257.03 436.48 308.04 C 436.51 316.80 437.95 326.23 443.85 333.10 C 449.09 339.21 457.26 341.75 465.06 342.24 C 472.67 342.67 480.28 341.83 487.84 341.06 C 487.85 355.39 487.85 369.73 487.84 384.07 C 473.41 386.37 458.71 386.86 444.15 385.81 C 427.24 384.65 408.95 380.07 397.60 366.56 C 385.70 352.32 383.55 332.87 383.32 315.00 C 383.22 262.00 383.31 209.00 383.28 156.01 C 369.77 155.99 356.27 156.01 342.76 155.99 C 342.76 141.73 342.76 127.47 342.77 113.21 C 355.89 113.19 369.01 113.21 382.14 113.19 C 382.16 91.37 382.13 69.56 382.15 47.74 Z" />
<path fill="#000000" opacity="1.00" d=" M 221.06 93.82 C 253.08 89.97 286.28 105.30 304.52 131.82 C 283.94 144.62 269.11 166.23 264.67 190.07 C 260.48 211.05 265.13 233.43 276.59 251.40 C 285.62 265.74 299.05 277.11 314.46 284.08 C 308.22 303.75 299.11 322.49 287.52 339.56 C 277.56 354.75 266.84 370.44 250.97 379.98 C 240.92 386.09 228.56 387.78 217.12 385.33 C 207.24 383.37 198.43 378.24 188.99 374.98 C 176.75 370.67 163.33 370.08 150.67 372.71 C 140.71 374.76 131.77 379.78 122.31 383.25 C 116.29 385.46 109.93 386.64 103.53 387.00 L 99.59 387.00 C 83.00 385.38 70.10 373.33 59.85 361.18 C 47.40 345.82 35.80 329.60 27.18 311.74 C 11.25 278.91 1.58 242.54 2.26 205.89 C 2.72 179.19 10.31 152.11 26.73 130.76 C 44.35 107.90 73.13 93.90 102.05 94.94 C 119.99 95.94 135.85 105.20 152.74 110.24 C 159.31 112.37 166.33 111.29 172.66 108.91 C 188.54 103.16 204.07 95.66 221.06 93.82 Z" />
<path fill="#000000" opacity="1.00" d=" M 516.82 113.21 C 535.60 113.19 554.38 113.20 573.17 113.20 C 595.50 185.73 617.61 258.34 640.05 330.83 C 640.35 330.80 640.96 330.75 641.26 330.72 C 663.66 258.25 685.77 185.69 708.11 113.19 C 726.51 113.21 744.92 113.18 763.32 113.21 C 731.70 203.46 700.08 293.71 668.50 383.97 C 649.63 384.03 630.76 383.99 611.89 383.99 C 580.20 293.73 548.50 203.47 516.82 113.21 Z" />
<path fill="#000000" opacity="1.00" d=" M 867.88 113.21 C 884.18 113.19 900.47 113.20 916.77 113.20 C 916.78 150.20 916.76 187.20 916.78 224.19 C 951.78 224.21 986.78 224.19 1021.79 224.20 C 1021.79 240.49 1021.80 256.77 1021.79 273.06 C 986.86 273.08 951.93 273.06 917.00 273.07 C 916.99 310.04 917.00 347.02 917.00 383.99 C 900.70 384.00 884.40 384.00 868.11 384.00 C 868.10 347.02 868.11 310.05 868.10 273.07 C 833.10 273.06 798.09 273.08 763.09 273.06 C 763.08 256.77 763.08 240.49 763.09 224.20 C 798.02 224.20 832.94 224.21 867.87 224.20 C 867.89 187.20 867.87 150.20 867.88 113.21 Z" />
</g>
</svg>
