<svg width="165" height="90" viewBox="0 0 165 90" fill="none" xmlns="http://www.w3.org/2000/svg">
<g clip-path="url(#clip0_189_85)">
<path d="M74.9101 60.9928H75.1094C76.5011 61.1311 77.8679 61.4573 79.1727 61.9625C80.1378 62.3567 80.9222 63.0975 81.373 64.0405C81.7784 64.7637 82.027 65.5647 82.1028 66.391C82.1785 67.2173 82.0796 68.0503 81.8126 68.8357C81.5455 69.621 81.1164 70.3408 80.5531 70.9482C79.9899 71.5555 79.3053 72.0367 78.5441 72.3602C77.3826 72.9074 76.1345 73.246 74.8565 73.3607C72.4604 73.5919 70.047 73.1579 67.8799 72.1062C66.442 71.4552 65.2167 70.4093 64.3456 69.0893C64.0602 68.5944 63.9216 68.028 63.946 67.4567C63.9705 66.8854 64.157 66.333 64.4836 65.8645C65.5799 64.3253 67.9259 64.0328 69.6892 64.0944C71.4039 64.1993 73.1 64.5093 74.7414 65.0179C75.3995 65.2419 76.0318 65.5361 76.6274 65.8953C76.7116 65.9711 76.7738 66.0683 76.8075 66.1767C76.8413 66.2851 76.8453 66.4006 76.8191 66.511C76.5278 67.4115 74.3581 67.8809 73.7525 67.9733C72.0735 68.235 71.2072 67.5962 69.2982 66.8343C68.7897 66.6217 68.2565 66.4743 67.7112 66.3956C66.8449 66.3109 65.8022 66.5572 65.6336 67.5038C65.5492 67.9964 66.1242 68.4505 66.5612 68.6429C67.4605 69.0484 68.435 69.2582 69.4208 69.2586C72.3955 69.3047 75.7381 68.8122 78.1761 67.0882C78.36 66.9808 78.5162 66.8316 78.6321 66.6524C78.7479 66.4733 78.8202 66.2693 78.8431 66.0569C78.8431 65.1642 77.3097 64.6254 77.3097 64.6254C75.6691 63.9405 72.6408 63.6018 71.0845 63.4787C69.5282 63.3555 66.8679 63.1247 66.2546 63.0323C65.6105 62.9602 64.9788 62.8023 64.3762 62.5628C64.078 62.4247 63.8119 62.2252 63.5954 61.9773C63.3788 61.7293 63.2164 61.4385 63.1189 61.1236C63.0019 60.542 63.002 59.9428 63.1192 59.3612C63.2364 58.7797 63.4683 58.2275 63.8012 57.7373C65.4266 55.4284 69.2368 54.4971 72.0811 54.1431C74.9254 53.7891 79.2877 53.8045 81.994 55.2437C82.408 55.4669 82.6227 55.6747 82.5384 56.1288C82.453 56.5134 82.2653 56.8675 81.9953 57.1535C81.7253 57.4395 81.383 57.6465 81.005 57.7527C79.9566 57.9848 78.8889 58.1188 77.8157 58.1529C74.5574 58.3376 70.6168 58.2375 67.5042 59.0918C67.229 59.1531 66.9685 59.2681 66.7375 59.4305C66.2545 59.9615 67.6422 60.1154 67.9412 60.2001H68.1405L75.0404 61.0159M55.6363 46.393C55.6363 46.393 56.1653 45.6234 56.61 44.9846C57.6157 43.6843 58.7455 42.4856 59.9833 41.4058L60.7499 40.7901C60.7499 40.7901 60.129 40.8517 59.7763 40.9287C58.7872 41.2486 57.8757 41.773 57.1007 42.4679C56.0887 43.3376 54.977 44.7768 55.483 46.0082C55.5597 46.1852 55.667 46.4238 55.667 46.4238M61.2943 47.963C62.8727 47.8537 64.4072 47.3937 65.7869 46.6162C67.1515 45.8466 69.1678 44.3535 68.9532 42.5911C68.9234 42.3279 68.8237 42.0776 68.6646 41.8664C68.5054 41.6552 68.2927 41.4908 68.0485 41.3904C67.7804 41.2667 67.4888 41.2027 67.1937 41.2027C66.8986 41.2027 66.607 41.2667 66.3389 41.3904C65.8612 41.5162 65.4041 41.7106 64.9819 41.9677C63.0879 43.1644 61.3998 44.6615 59.9833 46.4007C59.7073 46.7701 59.4236 47.1703 59.2166 47.4628C59.0096 47.7552 58.9713 47.7937 58.979 47.8399C59.025 48.0169 60.6733 48.0015 61.2789 47.9553M57.208 50.9569C57.0122 51.2436 56.8379 51.5446 56.6867 51.8573C56.5833 52.0323 56.451 52.1885 56.2957 52.3191C56.2198 52.3985 56.1288 52.4617 56.028 52.5048C55.9272 52.548 55.8188 52.5702 55.7092 52.5702C55.5996 52.5702 55.4912 52.548 55.3904 52.5048C55.2896 52.4617 55.1985 52.3985 55.1227 52.3191C54.8443 52.0595 54.6202 51.7468 54.4635 51.3992C54.3069 51.0517 54.2208 50.6763 54.2103 50.295C54.2357 49.9722 54.2357 49.648 54.2103 49.3253C53.9976 48.8275 53.7219 48.3593 53.39 47.9323C53.0733 47.2954 52.8832 46.6026 52.8304 45.8927C52.8383 44.9747 53.0312 44.0678 53.3974 43.2266C53.7637 42.3853 54.2958 41.6272 54.9617 40.9979C56.3014 39.5975 57.9143 38.4893 59.6996 37.7424C61.4093 37.0189 63.9086 36.5264 65.7792 37.1806C66.5045 37.4412 67.153 37.8805 67.6652 38.4582C67.7379 38.5675 67.8257 38.666 67.9259 38.7506C68.0791 38.8066 68.2388 38.8428 68.4012 38.8584C69.0585 39.0132 69.6753 39.3071 70.2105 39.7203C70.8644 40.2284 71.3158 40.9546 71.4831 41.7675C71.8435 43.4761 70.8622 45.3463 69.7505 46.4854C68.0145 48.367 65.8826 49.8367 63.5099 50.7876C62.2499 51.2892 60.9012 51.5275 59.5463 51.4879C59.1706 51.4879 58.7796 51.3571 58.4116 51.334C58.0877 51.2822 57.7694 51.1997 57.461 51.0877C57.369 51.0184 57.254 50.9569 57.231 50.98M59.416 54.7665C59.5154 54.786 59.6129 54.8143 59.7073 54.8512C60.0934 55.0365 60.4262 55.3175 60.6743 55.6675C60.9224 56.0176 61.0777 56.4253 61.1256 56.8522C61.5704 59.5916 61.8266 62.3586 61.8923 65.1334C61.9536 66.4494 61.9843 67.7501 62.0379 69.0585C62.1464 70.2612 62.1155 71.4724 61.9459 72.668C61.8519 73.084 61.6057 73.4493 61.2559 73.6916C60.6745 73.9358 60.033 73.9975 59.416 73.8686C58.1586 73.6069 57.7523 72.7988 57.576 71.5597C57.2364 67.8117 57.2364 64.0405 57.576 60.2924C57.7058 58.7669 57.9779 57.2569 58.3886 55.7824C58.5343 55.413 58.841 54.6742 59.3776 54.7742M21.2211 59.7152C21.2211 59.7152 19.3504 59.846 18.0701 59.9923C15.873 60.2339 13.7038 60.6848 11.5919 61.3391C11.0629 61.5315 9.9819 61.9856 9.88223 62.532C9.8707 62.8113 9.92267 63.0895 10.0343 63.3455C10.1458 63.6016 10.3141 63.8287 10.5262 64.0097C10.7562 64.2791 12.0595 65.549 12.3892 65.8106C14.4794 67.47 16.7661 68.8633 19.1971 69.9589C19.9638 70.2822 21.2441 70.7286 21.2441 70.7286C21.2441 70.7286 21.1521 67.0805 21.1674 63.4787C21.1674 61.5777 21.2211 59.6998 21.2211 59.6998M55.4523 61.1544C55.4914 62.1842 55.4298 63.2153 55.2683 64.2329C55.1268 64.921 54.9346 65.5975 54.6933 66.257C54.3835 66.9693 54.0381 67.6654 53.6584 68.3427C52.8491 69.6732 51.8639 70.8874 50.7297 71.9523C47.5174 74.7383 42.5418 76.3314 38.2716 76.8471C35.1779 77.2155 32.047 77.1248 28.9796 76.5777C27.9217 76.3853 26.35 76.0236 26.35 76.0236C26.35 76.0236 26.35 76.6547 26.304 77.1011C26.2494 77.4122 26.162 77.7166 26.0434 78.0092C25.9346 78.2203 25.7754 78.401 25.5801 78.5353C25.3848 78.6696 25.1594 78.7533 24.924 78.7788C24.2899 78.9363 23.6236 78.9042 23.0074 78.6865C22.0337 78.2709 21.6811 77.355 21.4741 76.3006C21.3361 75.454 21.1904 73.9918 21.1904 73.9918C21.1904 73.9918 20.4238 73.6454 19.8488 73.3376C18.0259 72.4284 16.2866 71.3597 14.6508 70.1436C14.2215 69.8204 12.3509 68.2657 11.9675 67.8809C10.8065 66.851 9.8086 65.6494 9.00823 64.3176C8.69615 63.8518 8.50347 63.3158 8.4473 62.7573C8.39113 62.1988 8.47319 61.635 8.68622 61.1159C9.32255 59.5074 11.6149 58.2991 13.1865 57.6141C15.2002 56.8008 17.2806 56.1647 19.4041 55.7132C20.1094 55.6131 21.1981 55.413 21.2671 55.3745L21.3361 55.313C21.3361 55.2668 21.4281 53.6737 21.4204 53.0964C21.4127 52.5192 21.8421 48.7711 21.9801 47.9784C22.1034 47.1092 22.3486 46.2619 22.7084 45.4617C22.8209 45.3328 22.9789 45.2527 23.1491 45.2384C23.3193 45.224 23.4883 45.2765 23.6207 45.3848C25.3304 46.4469 25.844 50.1411 25.9744 52.0266C26.051 53.1734 26.0894 54.8974 26.0894 54.8974C26.0894 54.8974 28.0443 54.8358 29.248 54.8974C30.4796 54.9532 31.7063 55.0895 32.9203 55.3053C35.0963 55.6331 37.2217 56.2383 39.2452 57.1062C40.6153 57.7643 41.7097 58.8874 42.3348 60.277C42.543 60.7734 42.6273 61.3132 42.5806 61.8497C42.5338 62.3861 42.3574 62.903 42.0665 63.3555C41.7292 63.9618 41.2515 64.4776 40.6737 64.8594C40.0958 65.2412 39.435 65.4777 38.7469 65.549C37.9508 65.5424 37.1658 65.3612 36.4469 65.0179C36.3676 64.9469 36.3191 64.8475 36.312 64.741C36.3048 64.6345 36.3395 64.5295 36.4086 64.4484C36.4546 64.3868 37.1752 64.0174 37.5585 63.8019C37.7523 63.699 37.9325 63.5723 38.0952 63.4248C38.4325 63.1247 38.7392 62.7937 38.7085 62.4089C38.6625 61.9087 38.1335 61.5931 37.6275 61.393C34.5789 60.3894 31.4202 59.7614 28.2207 59.5228C27.3237 59.4689 26.051 59.4228 26.051 59.4228L26.3193 72.1216C26.3193 72.1216 27.3773 72.3217 28.2053 72.4602C28.6807 72.5295 30.7046 72.7142 31.272 72.7296C35.3583 72.8373 39.9199 72.4679 43.6688 70.6901C45.2984 69.9722 46.7626 68.9242 47.9698 67.6116C48.7384 66.7091 49.3189 65.6612 49.6771 64.5296C50.0353 63.398 50.1638 62.2059 50.0551 61.0236C49.8251 58.3145 47.9238 55.0975 46.4135 53.1426C42.4038 47.9707 35.5423 43.7147 29.501 41.2211C23.538 38.6794 17.1674 37.2376 10.6949 36.9651C8.27236 36.8621 5.84611 37.0429 3.46529 37.5038C3.19696 37.5808 2.92863 37.6654 2.69863 37.727C2.49347 37.7801 2.29719 37.8631 2.11599 37.9733L2.02399 38.0657L2.24631 38.1734C2.44564 38.258 3.27362 38.3119 3.70295 38.3889C3.88906 38.4132 4.06843 38.4748 4.2304 38.57C4.39238 38.6652 4.53368 38.792 4.64595 38.943C4.72494 39.0425 4.76796 39.166 4.76796 39.2932C4.76796 39.4204 4.72494 39.5439 4.64595 39.6434C4.22428 40.159 2.63731 40.0744 1.93965 39.9589C1.24199 39.8435 0.306669 39.6203 0.145671 38.9892C0.0424455 38.2272 0.237558 37.4548 0.689991 36.8342C1.05841 36.1934 1.55877 35.6388 2.15766 35.2075C2.75654 34.7761 3.44017 34.478 4.16295 34.333C6.55898 33.6914 9.01556 33.3044 11.4922 33.1785C16.3254 33.0713 21.1417 33.7869 25.7367 35.295C28.7649 36.2384 31.7237 37.3931 34.5916 38.7506C36.8038 39.8507 38.9561 41.0685 41.0392 42.3986C41.5605 42.745 44.6041 44.9923 45.0795 45.3848C46.0684 46.1929 47.3794 47.355 48.2917 48.2863C50.3194 50.2765 52.0542 52.5466 53.4437 55.0282C53.7044 55.5515 53.9114 56.0672 54.2487 56.6752C54.5209 57.2619 54.7539 57.8661 54.9464 58.4838C55.0307 58.8378 55.1457 59.3612 55.1687 59.3843C55.2841 59.9352 55.3635 60.4931 55.4063 61.0544M116.839 58.2452C114.089 58.6762 111.317 58.9511 108.536 59.0687L107.769 61.4546C109.499 61.3203 111.237 61.3203 112.967 61.4546C112.967 61.4546 113.672 61.3699 113.734 62.2242C113.746 62.7997 113.723 63.3755 113.665 63.9482C113.665 63.9482 113.619 64.4869 112.86 64.6254C112.101 64.764 106.381 64.9795 106.381 64.9795L105.469 68.058C105.469 68.058 105.132 68.7737 105.891 68.5736C106.65 68.3735 112.53 67.2652 113.297 67.4269C113.776 67.5737 114.187 67.8863 114.458 68.3091C114.729 68.7318 114.842 69.2374 114.776 69.7357C114.462 70.9902 108.543 74.7768 104.94 74.5074C104.94 74.5074 103.046 74.6306 101.444 72.0677C99.9568 69.6203 102.011 64.9948 102.011 64.9948C102.011 64.9948 101.068 62.8322 101.751 62.1011C102.222 61.7921 102.775 61.6338 103.338 61.647L104.787 58.6377C104.293 58.6587 103.801 58.5702 103.345 58.3787C102.889 58.1872 102.481 57.8972 102.149 57.5295C101.237 56.375 101.16 55.844 101.858 55.5208C102.556 55.1975 109.525 53.8891 114.217 54.0508C114.217 54.0508 115.865 53.8891 117.283 56.7522C117.283 56.7522 117.973 57.9143 116.8 58.1914M98.9985 69.7357C98.3928 71.1672 96.7905 72.6988 94.7972 71.7445C92.8039 70.7901 89.6989 64.3637 89.6989 64.3637C89.6989 64.3637 88.5106 61.9625 88.2806 62.0549C88.2806 62.0549 88.0276 61.5854 87.8666 64.2098C87.7056 66.8343 87.8666 71.9061 86.8623 72.6757C86.6592 72.8546 86.4193 72.9863 86.1596 73.0612C85.9 73.1361 85.627 73.1524 85.3603 73.109C85.0937 73.0657 84.8398 72.9636 84.617 72.8102C84.3942 72.6568 84.208 72.4558 84.0717 72.2216C83.512 71.2981 83.305 69.1046 83.581 65.2411C83.857 61.3776 84.8383 57.2678 85.9806 56.0056C86.1163 55.8103 86.2969 55.6508 86.5071 55.5407C86.7174 55.4306 86.951 55.373 87.1881 55.373C87.4253 55.373 87.6589 55.4306 87.8691 55.5407C88.0794 55.6508 88.26 55.8103 88.3956 56.0056C88.3956 56.0056 89.9289 57.3909 92.4359 61.47L92.8806 62.2396C92.8806 62.2396 95.1805 66.0877 95.4105 66.0877C95.4105 66.0877 95.5945 66.2647 95.7632 66.1339C95.9319 66.0031 95.9089 64.8332 95.9089 64.8332C95.3504 61.0033 94.4942 57.2232 93.3482 53.5274C93.1661 52.9739 93.1317 52.3821 93.2486 51.8112C93.4632 50.9723 94.2989 51.3648 94.2989 51.3648C94.2989 51.3648 97.5342 52.9964 99.1058 58.2914C100.677 63.5864 99.6195 68.3504 98.9985 69.7896M133.805 66.6264C132.333 69.2047 128.177 74.6075 122.65 73.3299C120.512 78.3217 119.087 83.5919 118.418 88.9841C118.418 88.9841 118.226 90.2924 117.145 89.8383C116.064 89.3843 114.309 87.6757 113.948 85.2206C113.565 81.9728 115.006 76.4777 117.95 70.1744C116.859 68.2834 116.522 66.0477 117.007 63.9174C117.007 63.9174 117.774 58.6223 123.049 53.843C123.049 53.843 123.685 53.2888 124.053 53.4582C124.421 53.6275 124.268 55.3514 123.946 56.1903C123.624 57.0292 121.255 61.1236 121.255 61.1236C121.255 61.1236 119.783 63.8943 120.197 66.08C122.98 61.7932 129.297 53.1426 133.23 55.8671C134.548 56.8137 135.154 58.8686 135.154 61.0852C135.17 63.0217 134.712 64.9325 133.82 66.6495M132.678 59.8537C132.678 59.8537 132.463 58.1452 130.799 60.0308C128.41 62.6163 126.366 65.5037 124.72 68.6198C126.507 68.3943 128.201 67.6927 129.626 66.588C130.661 65.6721 133.061 63.1785 132.693 59.8614M164.264 59.4766H154.144C153.911 56.0492 153.457 52.6403 152.787 49.2714C152.751 49.0949 152.655 48.9367 152.515 48.8242C152.375 48.7117 152.2 48.6521 152.021 48.6557H149.721C149.619 48.6561 149.519 48.679 149.427 48.7227C149.336 48.7663 149.255 48.8298 149.191 48.9084C149.126 48.987 149.08 49.0789 149.055 49.1776C149.03 49.2763 149.027 49.3792 149.046 49.4792C149.704 52.8065 150.134 56.175 150.334 59.5613H140.597C140.38 59.5613 140.171 59.6481 140.017 59.8025C139.863 59.9569 139.777 60.1664 139.777 60.3848V62.5013C139.777 62.7197 139.863 62.9291 140.017 63.0836C140.171 63.238 140.38 63.3248 140.597 63.3248H150.434C150.434 63.8481 150.434 64.3099 150.434 64.7486C150.446 67.5483 150.3 70.3466 149.997 73.1298C149.985 73.2377 149.996 73.347 150.029 73.4504C150.062 73.5537 150.117 73.6489 150.189 73.7296C150.261 73.8103 150.35 73.8747 150.449 73.9185C150.548 73.9624 150.655 73.9847 150.763 73.9841H152.925C153.132 73.9826 153.331 73.9024 153.482 73.7596C153.633 73.6168 153.724 73.422 153.738 73.2144C154.031 70.4022 154.172 67.5761 154.159 64.7486C154.159 64.3099 154.159 63.8404 154.159 63.3248H164.126C164.343 63.3228 164.55 63.2353 164.704 63.0813C164.857 62.9273 164.944 62.719 164.946 62.5013V60.3848C164.946 60.1664 164.86 59.9569 164.706 59.8025C164.552 59.6481 164.344 59.5613 164.126 59.5613" fill="#101C50"/>
<path d="M28.8263 31.2006C28.7561 31.3057 28.7113 31.4258 28.6953 31.5514C28.6793 31.677 28.6927 31.8045 28.7343 31.924C28.7758 32.0432 28.8435 32.1515 28.9324 32.2408C29.0214 32.3301 29.1292 32.3981 29.248 32.4397L31.0649 33.0554C31.169 33.0895 31.2775 33.1077 31.3869 33.1093C31.5519 33.1089 31.7143 33.068 31.86 32.9902C32.0056 32.9124 32.1301 32.8 32.2226 32.6629C38.2752 23.707 46.4202 16.3753 55.9462 11.3081C65.4722 6.2409 76.0893 3.59245 86.8699 3.59413C99.8548 3.59769 112.551 7.44037 123.374 14.6425C134.197 21.8446 142.667 32.0872 147.727 44.0918C147.8 44.2647 147.921 44.4124 148.076 44.5165C148.232 44.6205 148.414 44.6762 148.601 44.6767H150.771C150.894 44.6739 151.014 44.6414 151.122 44.582C151.23 44.5226 151.322 44.4379 151.39 44.3353C151.459 44.2327 151.502 44.115 151.515 43.9922C151.529 43.8695 151.513 43.7453 151.468 43.6301C146.688 31.845 138.799 21.5901 128.649 13.9671C118.5 6.34406 106.473 1.641 93.8615 0.363076C81.2497 -0.914846 68.5295 1.28068 57.0672 6.7138C45.6049 12.1469 35.8337 20.6123 28.8033 31.2006" fill="url(#paint0_linear_189_85)"/>
</g>
<defs>
<linearGradient id="paint0_linear_189_85" x1="153.531" y1="29.0533" x2="31.2474" y2="12.5857" gradientUnits="userSpaceOnUse">
<stop stop-color="#101C50"/>
<stop offset="0.24" stop-color="#0D267A"/>
<stop offset="0.5" stop-color="#085AA4"/>
<stop offset="0.65" stop-color="#058BBF"/>
<stop offset="1" stop-color="#B1FFFF"/>
</linearGradient>
<clipPath id="clip0_189_85">
<rect width="165" height="90" fill="white"/>
</clipPath>
</defs>
</svg>
