<svg width="2001" height="328" viewBox="0 0 2001 328" fill="none" xmlns="http://www.w3.org/2000/svg">
<path d="M324.929 20.9552C368.047 3.72504 415.167 2.56122 460.925 1.00001C654.487 0.914853 848.05 1.02839 1041.61 0.943237C1001.42 41.1374 961.138 81.218 921.086 121.526C775.183 121.753 629.253 121.497 483.35 121.668C451.842 123.087 419.397 122.491 389.336 133.334C360.752 144.092 338.044 165.24 317.095 186.784C271.195 232.258 225.267 277.704 179.311 323.149C119.814 323.149 60.2894 323.149 0.792969 323.149C80.131 243.073 159.1 162.571 238.41 82.4386C263.985 57.9134 292.03 34.9209 324.929 20.9552Z" fill="#E10600"/>
<path d="M1065.91 0.943237C1131.37 1.00001 1196.82 0.943238 1262.28 0.971624C1156.86 108.355 1051.49 215.795 946.037 323.178C880.835 323.149 815.633 323.178 750.403 323.149C855.657 215.823 960.713 108.326 1065.91 0.943237Z" fill="#E10600"/>
<path d="M1341.14 0.97168C1449.06 0.97168 1556.98 0.97168 1664.91 0.97168C1664.91 24.617 1664.91 48.2623 1664.91 71.9359C1624.97 71.9643 1585.03 71.9076 1545.09 71.9359C1545.06 155.674 1545.12 239.412 1545.06 323.149C1517.04 323.206 1489.03 323.121 1461.01 323.178C1460.87 239.44 1460.98 155.702 1460.95 71.9359C1421.02 71.9076 1381.08 71.9643 1341.14 71.9076C1341.14 48.2623 1341.14 24.617 1341.14 0.97168Z" fill="#E10600"/>
<path d="M1669.19 1.00003C1698.09 1.6529 1728.03 -0.419254 1756.31 1.99353C1780.66 81.1613 1803.91 160.67 1828.32 239.809C1829.23 249.233 1842.57 250.596 1844.67 241.115C1869.42 161.237 1893.61 81.1613 1917.82 1.11357C1945.47 0.801327 1973.12 1.02842 2000.79 1.00003C1982 64.6692 1961.45 127.827 1941.98 191.298C1932.58 219.428 1925.8 248.552 1913.71 275.717C1904.57 293.884 1892.76 313.044 1872.94 320.879C1848.42 331.296 1819.3 328.94 1795.17 318.523C1770.9 305.352 1758.61 278.357 1750.2 253.321C1723.07 169.27 1696.16 85.1069 1669.19 1.00003Z" fill="#E10600"/>
<path d="M395.666 151.444C424.762 141.538 455.844 142.191 486.16 140.828C625.08 140.714 763.999 140.771 902.919 140.771C866.188 178.553 829.144 215.965 792.328 253.604C704.474 253.604 616.649 253.604 528.824 253.604C506.598 253.803 484.258 252.696 462.174 255.762C447.385 257.635 433.93 265.441 423.172 275.461C407.702 291.499 392.345 307.679 376.478 323.32C321.438 322.951 266.398 323.235 211.358 323.149C257.57 276.341 303.498 229.193 349.511 182.158C363.221 169.668 377.982 157.774 395.666 151.444Z" fill="#E10600"/>
<path d="M1068.69 254.484C1083.37 249.886 1101.28 256.159 1108.57 270.011C1117.15 284.886 1113.31 305.891 1099.66 316.422C1090.35 324.285 1076.78 324.228 1065.65 320.992C1046.75 313.442 1038.52 288.235 1048.45 270.721C1052.65 262.801 1060.01 256.755 1068.69 254.484ZM1066.45 260.559C1055.07 266.662 1047.8 280.23 1050.5 293.089C1052.57 307.906 1067.3 319.743 1082.37 317.075C1101.34 315.57 1112.83 292.606 1104.91 275.916C1099.43 260.871 1080.81 253.519 1066.45 260.559Z" fill="#E10600"/>
<path d="M1064.43 268.507C1072.92 269.131 1082.57 266.463 1090.15 271.402C1096.34 277.363 1094.18 288.576 1087.51 293.373C1089.67 298.113 1091.97 302.825 1094.21 307.566C1092.19 307.537 1088.16 307.48 1086.15 307.452C1084.08 302.768 1081.78 298.198 1079.25 293.77C1077.43 293.855 1073.8 294.054 1071.98 294.168C1071.96 298.624 1071.96 303.081 1071.96 307.537C1070.08 307.537 1066.31 307.537 1064.41 307.537C1064.38 294.508 1064.35 281.508 1064.43 268.507ZM1071.93 273.9C1071.87 278.47 1071.81 283.069 1071.81 287.667C1076.81 287.185 1086.06 289.995 1086.06 282.132C1085.92 280.571 1085.67 277.448 1085.52 275.887C1081.04 274.78 1076.47 274.184 1071.93 273.9Z" fill="#E10600"/>
</svg>
