<svg id="Layer_1" data-name="Layer 1" xmlns="http://www.w3.org/2000/svg" width="279" height="64.17" viewBox="0 0 279 64.17"><title>Paramount Plus logo - Brandlogos.net</title><path d="M315.83,368.26c0-11-11.72-16.35-25.65-16.35-14.9,0-28.57,6.59-33.58,16.81a19.34,19.34,0,0,0-2.1,8.79,13.19,13.19,0,0,0,2.1,7.46c2.15,3.17,6,5.16,11.62,5.16,6.91,0,12.39-3.78,12.39-10.37a1.8,1.8,0,0,0-2-1.84c-1.74,0-2.2,1.23-2.15,1.84.26,5.16-2.82,9.3-8.29,9.3-6.14,0-8.7-5.21-8.7-10.78,0-11.39,8.6-19,17.56-22.23a35.79,35.79,0,0,1,13.11-2.3c10.14,0,18.43,3.88,18.43,14.31,0,8.69-7.32,16.09-16.08,16.76l.36-1.17c1.79-6.39,4-13.38,7.58-18.54.21-.31.56-.82,1-1.33l-.51-.61a21.36,21.36,0,0,0-2.2,1.53c-16.79,13.08-17.3,49.87-39.67,49.87a17.2,17.2,0,0,1-2.3-.15c-4.66-.77-7.12-3.88-7.12-8.22,0-.87.31-2,.31-2.71a2.24,2.24,0,0,0-2.2-2.3h-.25c-2,0-2.82,1.58-2.87,3.83-.15,6.49,4.66,10.27,12.08,11,.82.05,1.64.1,2.51.1,17.46,0,28.16-13.18,32.71-29.17a38.53,38.53,0,0,0,6.81-1.43C306.72,383.23,315.83,377.82,315.83,368.26Z" transform="translate(-244.5 -351.92)" style="fill:#0d33c7"/><path d="M482.11,372.09H476l-1.38,3.22-2.4,5.42h-2.87l-.87,1.84h3l-3.58,7.92c-2.56,5.57-6.55,11-8.86,11-.51,0-.82-.2-.82-.72a6.88,6.88,0,0,1,.72-2.4c.72-1.68,1.9-4.14,2.77-5.93,1.28-2.6,3.33-6.64,3.33-8.63a3.44,3.44,0,0,0-3.79-3.58c-2.82,0-5.38,1.69-7.73,4.14l1.54-3.68H449.2l-4.71,10.73c-1.89,3.78-5.73,10.06-8.14,10.06-.51,0-.72-.31-.72-.82a4.33,4.33,0,0,1,.36-1.33c.21-.46,3-7,3-7l5.12-11.7h-6.25l-5,11.39c-1.53,3.52-5.43,9.5-7.94,9.5a.8.8,0,0,1-.87-.72v-.2a8.63,8.63,0,0,1,.82-2.56l2.61-5.72,5.38-11.7h-6.19l-1.23,2.66c-.92,1.79-2.46,3.88-4.91,3.88a2.07,2.07,0,0,1-2-.92c-.36-3.93-2.87-6-6.55-6-5.12,0-8.76,3-11.16,6.7a34.14,34.14,0,0,0-3.69,8.12c-2.2,3.63-4.5,6.44-6.35,6.44-.46,0-.77-.26-.77-.87a10.3,10.3,0,0,1,.82-2.5l4-8.58c1.13-2.65,1.89-4.39,1.89-6.13a3.09,3.09,0,0,0-3.38-3.17c-2.92,0-6.09,1.69-8.6,4.45a5.73,5.73,0,0,0,.1-1.33c0-2-1-3.12-3.12-3.12-2.66,0-5.43,1.59-7.93,4.45l1.64-4h-5.63l-4.76,10.73c-2.25,5.06-5.89,10.07-7.94,10.07-.46,0-.77-.26-.77-.87a18.13,18.13,0,0,1,1.49-4.34l6.3-14.25c.46-1.07-2.56-1.74-6.4-1.74s-8,1.94-11,4.45c-2.1,1.74-3.64,2.6-4.41,2.6-.41,0-.56-.2-.56-.46,0-.87,2.1-3.32,2.1-5.21,0-.87-.46-1.43-1.64-1.43-2.25,0-4.91,2.15-6.86,4.39l1.64-3.93H331.6l-4.76,10.73c-2.25,5.06-6,10.32-8,10.32-.46,0-.77-.25-.77-.87a17.33,17.33,0,0,1,1.59-4.55l6.3-14.3c.46-1.07-2.56-1.74-6.4-1.74-5.68,0-11.21,3.83-14.13,7.77-3.23,4.24-5.43,8.73-5.48,12.42-.05,3,1.49,4.8,4.56,4.8,3.43,0,6.19-2.71,7.78-4.75a10.63,10.63,0,0,0-.21,1.23c0,2,.82,3.53,3.33,3.53,2.2,0,5.12-1.84,7.47-4.75l-1.89,4.34h6l5.89-13.33c1.95-4.34,4.15-6.59,4.76-6.59.21,0,.31.1.31.25,0,.46-.92,1.69-.92,2.81s.61,2,2.25,2a7.93,7.93,0,0,0,4-1.43c-3,4.09-5.07,8.38-5.07,11.91-.05,3,1.49,4.8,4.56,4.8,3.23,0,6.25-3.07,7.88-5.11a12.34,12.34,0,0,0-.1,1.43c0,2,1.13,3.68,3.43,3.68,2.56,0,4.61-1.58,7.17-4.7l-1.89,4.29h6.14L371,392.13c2.46-5.52,5.78-8.48,7.42-8.48a.74.74,0,0,1,.82.67v.15a5.49,5.49,0,0,1-.51,1.79l-8.09,18.65h6.3l5.73-13c2.46-5.57,5.17-8.28,7.22-8.28.62,0,.87.31.87,1a5.57,5.57,0,0,1-.56,2l-5.53,11.75a10.9,10.9,0,0,0-.92,3.58c0,1.79,1,3.37,3.74,3.37,3.58,0,6.3-2.71,9.37-6.74v.87c.26,3.22,2,6,6.81,6,5.63,0,10.19-3.88,13-10.06a21.77,21.77,0,0,0,2-6.9,3.88,3.88,0,0,0,2,.41,5.43,5.43,0,0,0,2.66-.66l-1,2.09c-1.13,2.35-2.36,5-3.33,7.15a11.55,11.55,0,0,0-1.08,4.14,3.45,3.45,0,0,0,3.74,3.78c2.51,0,5.94-2.35,8.4-5.67H430a9.39,9.39,0,0,0-.26,2.09c0,1.84.56,3.58,3.12,3.58,3,0,5.27-2.15,7.52-4.85l-1.89,4.29h6.19l5-11.24c2.82-6.33,5.63-10.17,8.24-10.17a.84.84,0,0,1,.87.77v.15c0,1.07-1.54,4-2.92,6.9-1.28,2.66-2.25,4.7-2.92,6.29a12,12,0,0,0-1.08,4.24,3.16,3.16,0,0,0,3.48,3.42c3.58,0,7.22-3.47,9.16-6.08a12.76,12.76,0,0,0-.72,3.88c0,3.58,2.15,5.37,5.17,5.37a9.59,9.59,0,0,0,5.58-1.84,25.42,25.42,0,0,0,5.84-6.33l-1.08-1a23.38,23.38,0,0,1-4.81,5.31,5.23,5.23,0,0,1-3.17,1.23c-1.28,0-2.1-.67-2.1-2.3s.77-3.83,1.95-6.8c.05,0,1.74-3.83,3.33-7.46,1.33-3.07,2.66-6,2.92-6.64h4l.82-1.84h-4ZM307.48,401.57c-.87,0-1.49-.31-1.49-1.43.05-3,2.56-8.38,5.68-12.67,2.2-3,5.07-5.16,8.14-5.16L315.93,391C313,397.53,309.84,401.57,307.48,401.57Zm38.3,0c-.87,0-1.48-.31-1.53-1.43,0-3,2.56-8.38,5.68-12.67,2.2-3,5.07-5.16,8.14-5.16L354.18,391C351.21,397.69,348.19,401.57,345.78,401.57Zm68-16.91c-.15,3.32-3.07,11.34-6.5,16.15-1.38,1.94-2.56,2.5-3.58,2.5-1.43,0-1.84-1.18-1.64-2.91.31-3,2.82-10.06,6.3-14.92,1.59-2.2,2.66-3.12,3.89-3.12S413.82,383.38,413.77,384.66Z" transform="translate(-244.5 -351.92)" style="fill:#0d33c7"/><path d="M509.32,380.73l5.63-13h-6.67l-5.64,13H488.46l-2.36,5.45h14.18l-5.63,13h6.67l5.64-13h14.18l2.36-5.45Z" transform="translate(-244.5 -351.92)" style="fill:#0d33c7"/></svg>