<svg width="141" height="28" viewBox="0 0 141 28" fill="none" xmlns="http://www.w3.org/2000/svg">
<g clip-path="url(#clip0_10_2619)">
<path d="M2.99653 5.70503C3.9504 5.15156 5.0676 4.92289 6.16333 4.95836C7.42053 4.91169 8.76453 5.19449 9.7184 6.06343C10.3811 6.67849 10.7619 7.58943 10.7413 8.49383C10.732 10.0506 10.7385 11.6084 10.7357 13.1661C10.7665 13.769 10.8067 14.4009 11.0988 14.9422C11.2705 15.2904 11.5524 15.5685 11.7288 15.9129C11.8679 16.1537 11.6224 16.3553 11.4721 16.5121C10.9653 16.9713 10.424 17.3913 9.92373 17.858C9.76693 18.0288 9.50373 18.1034 9.29373 17.9858C8.70947 17.6293 8.3212 17.0506 7.93573 16.5018C7.31413 17.1309 6.60573 17.7338 5.73307 17.9681C5.1152 18.152 4.46467 18.1389 3.82627 18.124C3.17853 18.1053 2.5448 17.8729 2.02027 17.4958C1.35947 17.0394 0.9796 16.2853 0.75 15.5358V13.5021C1.02347 12.4988 1.646 11.5794 2.54667 11.0409C3.28867 10.5304 4.18653 10.353 5.0564 10.1972C5.8572 10.0572 6.67013 10.0133 7.47187 9.88729C7.46347 9.31329 7.45227 8.71503 7.2264 8.17836C7.03787 7.71636 6.50493 7.55956 6.05693 7.48769C5.52027 7.47089 4.9528 7.63983 4.5552 8.00849C4.21267 8.32209 4.264 8.85969 3.9532 9.18636C3.64053 9.33476 3.2672 9.24049 2.934 9.21716C2.45987 9.1481 1.98107 9.11449 1.506 9.05569C1.2904 9.04543 1.0804 8.88023 1.03653 8.66836C1.156 7.43076 1.95773 6.34716 2.99653 5.70503ZM4.79133 12.538C4.16413 13.0625 4.12027 13.9669 4.2388 14.7164C4.36667 15.0225 4.48987 15.3968 4.82027 15.5377C5.2244 15.7337 5.72187 15.7738 6.126 15.5573C6.95293 15.1252 7.38507 14.1564 7.386 13.2529C7.4392 12.7909 7.5064 12.327 7.46347 11.8604C6.54693 11.8977 5.5576 11.9826 4.79133 12.538Z" fill="#3F00ED"/>
<path d="M31.9644 6.57493C32.8184 5.58467 34.1082 5.1152 35.3776 4.96867C36.5274 4.94067 37.7473 4.90147 38.7982 5.44933C39.3704 5.70787 39.8426 6.14 40.2272 6.63C40.6369 7.19093 40.7405 7.9096 40.79 8.58533C40.789 10.2672 40.7928 11.95 40.7872 13.6319C40.789 14.0967 40.9178 14.5577 41.126 14.9712C41.3313 15.3763 41.7252 15.6833 41.8194 16.1416C41.7793 16.276 41.6626 16.3665 41.5684 16.4617C41.0476 16.9051 40.509 17.3288 40.0218 17.8085C39.824 18.0139 39.5057 18.1016 39.2388 17.9943C38.7338 17.5836 38.3222 17.074 37.9741 16.5261C37.4729 16.9247 37.0268 17.4072 36.4406 17.6863C35.7724 18.0372 35.007 18.1688 34.2566 18.1268C33.0638 18.2071 31.8216 17.6275 31.2084 16.5831C30.7902 15.9307 30.6726 15.1373 30.7044 14.3748C30.6736 12.9785 31.493 11.6401 32.6905 10.9448C33.6518 10.4053 34.7578 10.2121 35.8396 10.0805C36.365 9.9984 36.9026 10.0143 37.4225 9.88733C37.4384 9.2396 37.5093 8.52467 37.1238 7.96093C36.4192 7.2768 35.1452 7.34587 34.5142 8.1C34.1829 8.4108 34.2669 8.98293 33.8544 9.22653C33.3998 9.32827 32.9378 9.206 32.4833 9.164C32.1212 9.12013 31.7544 9.10147 31.396 9.02867C31.1682 8.9148 31.0152 8.66933 31.088 8.41173C31.2373 7.74627 31.5369 7.10787 31.9644 6.57493ZM36.239 11.9836C35.5642 12.1096 34.8306 12.3663 34.4498 12.9785C34.2286 13.4751 34.0653 14.0491 34.2268 14.5885C34.3164 14.9675 34.5021 15.3613 34.8698 15.5415C35.3897 15.8672 36.0524 15.6572 36.52 15.3343C37.0706 14.8947 37.276 14.1816 37.4094 13.5189C37.4617 12.9673 37.4197 12.4129 37.4244 11.8604C37.0249 11.8539 36.6292 11.9043 36.239 11.9836Z" fill="#3F00ED"/>
<path d="M17.6481 5.5193C18.6467 4.92103 19.9702 4.87343 20.9997 5.4241C21.5737 5.86556 22.0823 6.4237 22.3465 7.10876C22.6227 6.5273 23.0745 6.0541 23.5654 5.64716C24.4054 5.0013 25.5674 4.93036 26.5651 5.18423C27.1951 5.3317 27.6889 5.77503 28.1182 6.23423C28.639 6.74943 28.765 7.51476 28.8415 8.21196C28.8471 11.263 28.8397 14.315 28.8453 17.3661C28.8826 17.6022 28.7183 17.788 28.5335 17.9056C28.1126 17.9756 27.6814 17.9224 27.2567 17.9354C26.7686 17.9205 26.2767 17.9737 25.7914 17.9102C25.5105 17.7684 25.5814 17.4333 25.573 17.1766C25.5823 14.7173 25.573 12.258 25.5777 9.79863C25.5497 9.3273 25.4993 8.80183 25.1745 8.4313C24.5482 7.87783 23.4095 8.08596 23.0278 8.83636C22.7357 9.32263 22.7683 9.9097 22.6881 10.4529C22.6741 12.818 22.6909 15.184 22.6815 17.549C22.703 17.7068 22.591 17.829 22.4687 17.9102C21.9834 17.9737 21.4915 17.9214 21.0034 17.9354C20.5778 17.9233 20.1475 17.9746 19.7266 17.9065C19.5409 17.787 19.3785 17.6022 19.4149 17.3661C19.4205 14.9702 19.4111 12.5725 19.4205 10.1757C19.4354 9.55876 19.3439 8.8961 18.9613 8.39116C18.5693 8.0561 17.9915 8.08223 17.5193 8.18956C17.005 8.3305 16.8267 8.87556 16.7063 9.33383C16.5785 9.7585 16.6177 10.2056 16.6158 10.6424C16.6167 12.8525 16.6158 15.0626 16.6177 17.2728C16.6438 17.5322 16.4777 17.7404 16.3255 17.9308C15.4883 17.9401 14.6502 17.9373 13.813 17.9364C13.5059 17.969 13.2147 17.6732 13.2558 17.3661C13.2586 13.8185 13.2577 10.27 13.2567 6.72236C13.2642 6.2473 13.1513 5.6901 13.5535 5.3345C14.3263 5.33823 15.1001 5.33356 15.8729 5.3345C16.1725 5.29343 16.4609 5.5781 16.4291 5.87863C16.4375 6.23143 16.4235 6.58516 16.4385 6.93796C16.7446 6.3929 17.1329 5.8833 17.6481 5.5193Z" fill="#3F00ED"/>
<path d="M57.6283 5.08997C58.7735 4.9621 60.0101 5.0993 60.9855 5.7545C61.8992 6.32757 62.5777 7.2189 63.0257 8.18957C63.4597 9.29277 63.7173 10.479 63.6567 11.669C63.7211 12.8506 63.4663 14.0322 62.9959 15.113C62.4919 16.1882 61.6827 17.143 60.6131 17.6853C58.7343 18.6924 56.1517 18.2929 54.7797 16.6232C54.3831 16.1276 53.9864 15.6142 53.782 15.0048C53.3275 13.9249 53.1371 12.7442 53.2043 11.5757C53.1305 10.34 53.3657 9.08837 53.894 7.96837C54.3887 6.94543 55.1661 6.03357 56.1919 5.5193C56.6455 5.3037 57.1327 5.16743 57.6283 5.08997ZM58.0912 7.60437C57.7057 7.67903 57.3716 7.9329 57.1868 8.2773C56.7649 9.02397 56.7453 9.9013 56.6567 10.732C56.6679 11.4208 56.6081 12.1152 56.7248 12.7984C56.7593 13.532 56.8853 14.2758 57.2176 14.9385C57.5107 15.4462 58.1453 15.8354 58.7371 15.6292C59.1748 15.5452 59.5145 15.2008 59.7143 14.8181C60.1184 13.9492 60.096 12.9757 60.2061 12.0452C60.2444 11.5757 60.1585 11.1118 60.1156 10.6461C60.1268 9.90597 59.9831 9.16957 59.7609 8.46677C59.5379 7.79383 58.7613 7.43637 58.0912 7.60437Z" fill="#3F00ED"/>
<path d="M70.4877 5.15815C71.4313 4.92855 72.4916 5.02001 73.3204 5.55668C73.8626 5.98975 74.3554 6.54135 74.5374 7.22641C74.6578 7.70241 74.7568 8.18868 74.7661 8.68055C74.7586 11.6364 74.768 14.5932 74.7614 17.5491C74.7829 17.7525 74.5925 17.9485 74.389 17.9308C73.6106 17.9448 72.8313 17.9336 72.0529 17.9364C71.7449 17.97 71.4537 17.6741 71.4948 17.3671C71.4994 14.8443 71.4929 12.3215 71.4994 9.79961C71.4985 9.29935 71.3342 8.79628 71.0402 8.39308C70.6762 8.05708 70.12 7.96281 69.6673 8.16721C69.0354 8.42575 68.7806 9.12761 68.6453 9.74455C68.5744 10.2905 68.482 10.8375 68.5072 11.3891C68.5118 13.4424 68.5118 15.4957 68.5081 17.5491C68.5286 17.7516 68.3401 17.9495 68.1357 17.9317C67.3573 17.9439 66.578 17.9345 65.7996 17.9364C65.4916 17.97 65.2004 17.6741 65.2414 17.3671C65.2442 13.7877 65.2433 10.2084 65.2424 6.63001C65.2489 6.29961 65.2106 5.96455 65.2741 5.63788C65.3796 5.49601 65.514 5.32055 65.7137 5.33921C66.4576 5.33175 67.2024 5.33455 67.9472 5.33828C68.1432 5.31681 68.3354 5.49788 68.3186 5.69668C68.3438 6.20441 68.3009 6.71308 68.3354 7.22081C68.8012 6.33695 69.4554 5.40175 70.4877 5.15815Z" fill="#3F00ED"/>
<path d="M43.4015 5.9702C43.3502 5.6062 43.6852 5.2226 44.053 5.2422C46.4815 5.24406 48.91 5.24313 51.3386 5.2422C51.6316 5.21606 51.9396 5.40086 51.9732 5.7098C52.0124 6.1718 51.9882 6.6366 51.99 7.09953C52.0003 7.3506 51.8631 7.569 51.7362 7.7734C50.366 9.7642 48.939 11.7195 47.5959 13.7281C48.9912 13.7206 50.4258 13.9418 51.668 14.6082C51.8883 14.7874 52.2 14.9806 52.1767 15.3054C52.1776 15.9289 52.1832 16.5523 52.1739 17.1758C52.1916 17.3811 52.0106 17.5193 51.8631 17.6275C51.6932 17.7171 51.5178 17.5865 51.361 17.5295C50.3352 17.0405 49.2171 16.7269 48.0784 16.6979C47.734 16.6139 47.3868 16.6466 47.0434 16.7063C45.8823 16.7325 44.7558 17.0918 43.7142 17.5865C43.3903 17.8114 42.9768 17.4306 43.0282 17.0871C43.0254 16.4926 43.0328 15.899 43.0263 15.3054C43.0067 14.8751 43.1859 14.4654 43.4258 14.1173C44.3255 12.8647 45.1926 11.5907 46.0774 10.3289C46.6094 9.52806 47.217 8.77673 47.7032 7.94606C46.4862 7.9498 45.2691 7.95166 44.053 7.9498C43.7692 7.9806 43.576 7.737 43.4286 7.53166C43.3679 7.0146 43.4164 6.49006 43.4015 5.9702Z" fill="#3F00ED"/>
<path d="M126.975 0.189087H128.297C128.704 0.479354 129.141 0.834954 129.223 1.36135C129.446 2.20322 128.774 3.20842 127.874 3.19535C127.429 3.20935 126.912 3.22989 126.575 2.88735C126.106 2.51495 125.898 1.85789 126.069 1.28389C126.171 0.792953 126.592 0.468154 126.975 0.189087Z" fill="#151515"/>
<path d="M84.2543 5.76297C85.3025 5.24871 86.4673 4.91084 87.6433 4.95844C88.4403 4.94444 89.2971 5.12457 89.9001 5.67897C90.2258 5.95524 90.4806 6.30151 90.7111 6.65804C91.9618 5.73031 93.4514 5.08537 95.0138 4.96591C95.5925 4.96777 96.1907 4.90057 96.7517 5.08724C98.1171 5.39711 99.0887 6.74671 99.1261 8.11871C99.1186 11.2622 99.1279 14.4056 99.1214 17.5491C99.1429 17.7516 98.9534 17.9486 98.749 17.9318C98.1591 17.943 97.5674 17.943 96.9775 17.9318C96.7731 17.9486 96.5827 17.7526 96.6051 17.5491C96.6014 15.0291 96.6023 12.5091 96.6051 9.98911C96.6322 9.27511 96.5519 8.54524 96.2841 7.87791C96.1077 7.43551 95.6578 7.15924 95.1949 7.11444C93.7687 6.91004 92.3594 7.42897 91.1349 8.12057C91.2142 8.58351 91.189 9.05484 91.189 9.52244C91.1899 12.1059 91.1881 14.6894 91.1909 17.2728C91.217 17.5323 91.0499 17.7404 90.8997 17.9308C90.2491 17.9346 89.5995 17.9476 88.9509 17.9318C88.7465 17.9486 88.5561 17.7516 88.5785 17.5491C88.5719 14.7482 88.5813 11.9463 88.5747 9.14537C88.515 8.48737 88.3759 7.72484 87.7917 7.32351C87.2401 6.99964 86.5709 7.08271 85.9605 7.11071C84.9599 7.16297 84.0574 7.63431 83.1754 8.06364C83.1427 11.1931 83.1754 14.3254 83.1605 17.4548C83.1595 17.7283 82.8767 17.9663 82.607 17.9364C82.1067 17.9402 81.6055 17.9402 81.1062 17.9364C80.7982 17.97 80.507 17.6732 80.5481 17.3662C80.5509 13.7878 80.5499 10.2084 80.549 6.62911C80.5555 6.29964 80.5182 5.96457 80.5807 5.63884C80.6862 5.49604 80.8206 5.32057 81.0203 5.33924C81.4235 5.32711 81.8277 5.33177 82.2318 5.33644C82.4175 5.34017 82.6499 5.37191 82.7545 5.54644C82.859 5.84884 82.9094 6.16617 82.9859 6.47604C83.4209 6.26044 83.8119 5.96644 84.2543 5.76297Z" fill="#151515"/>
<path d="M118.949 4.99665C120.13 4.88278 121.329 4.97518 122.467 5.32051C122.859 5.44185 123.313 5.53891 123.544 5.91878C123.609 6.30705 123.578 6.70465 123.575 7.09571C123.595 7.30011 123.405 7.49985 123.2 7.48678C122.805 7.48305 122.441 7.30665 122.061 7.22358C121.485 7.10225 120.901 6.98371 120.31 7.01265C119.61 7.00145 118.856 6.97531 118.241 7.36078C117.479 7.89464 117.49 9.18451 118.289 9.67731C119.073 10.1328 119.95 10.3922 120.787 10.7301C121.559 11.0512 122.379 11.3013 123.043 11.8305C123.682 12.2561 124.11 12.9626 124.241 13.714C124.474 14.6996 124.236 15.7757 123.647 16.5933C123.225 17.0469 122.791 17.5201 122.213 17.7777C121.33 18.1837 120.347 18.3722 119.377 18.3088C118.199 18.3741 117.026 18.1342 115.918 17.7516C115.544 17.6349 115.174 17.3708 115.113 16.9582C115.058 16.5056 114.979 15.9241 115.395 15.6114C116.201 15.7318 116.969 16.0772 117.786 16.1714C118.465 16.304 119.157 16.2461 119.844 16.261C120.422 16.2741 121.016 16.0874 121.462 15.715C121.87 15.24 122.044 14.5269 121.768 13.9436C121.614 13.5105 121.147 13.3574 120.775 13.168C119.812 12.7293 118.793 12.426 117.818 12.0172C117.001 11.656 116.175 11.1706 115.734 10.3633C114.967 9.08651 115.103 7.22451 116.275 6.23424C116.963 5.49131 117.958 5.10678 118.949 4.99665Z" fill="#151515"/>
<path d="M133.716 6.12975C134.566 5.49509 135.613 5.18615 136.656 5.07322C137.576 5.02189 138.512 5.02282 139.406 5.27202C139.917 5.40642 140.581 5.51842 140.75 6.10829V7.17135C140.612 7.31042 140.527 7.60442 140.289 7.56055C139.746 7.47095 139.223 7.27309 138.672 7.22642C137.755 7.16202 136.799 7.14709 135.937 7.51389C135.196 7.76775 134.642 8.41549 134.403 9.14815C134.056 10.1627 133.984 11.2547 134.041 12.3196C134.14 13.2315 134.252 14.2124 134.847 14.9544C135.206 15.4407 135.763 15.7291 136.327 15.912C137.062 16.137 137.843 16.0791 138.601 16.0586C139.33 16.0315 140.011 15.6003 140.75 15.7384V17.3316C140.4 17.7936 139.804 17.8991 139.279 18.0428C138.39 18.278 137.463 18.2267 136.554 18.2034C135.467 18.0802 134.343 17.7862 133.498 17.0582C132.838 16.486 132.233 15.8112 131.926 14.9806C131.484 13.966 131.407 12.8507 131.326 11.7624C131.325 11.3555 131.41 10.9551 131.426 10.5491C131.541 8.84855 132.32 7.15175 133.716 6.12975Z" fill="#151515"/>
<path d="M102.111 5.87875C102.078 5.57915 102.367 5.29448 102.667 5.33462C103.167 5.33462 103.666 5.33368 104.166 5.33462C104.465 5.29542 104.753 5.57822 104.722 5.87782C104.727 8.67968 104.717 11.4825 104.727 14.2834C104.812 14.8985 104.966 15.6536 105.586 15.9476C106.15 16.236 106.822 16.3144 107.442 16.1846C108.47 16.0577 109.439 15.6386 110.314 15.0982C110.336 12.0257 110.316 8.95128 110.324 5.87875C110.291 5.57822 110.58 5.29448 110.881 5.33462C111.467 5.32995 112.053 5.34115 112.64 5.33555C112.789 5.51848 112.955 5.71915 112.936 5.97302C112.937 9.48888 112.935 13.0057 112.937 16.5225C112.926 17.0032 113.047 17.565 112.646 17.9309C112.06 17.9421 111.476 17.9384 110.893 17.9328C110.591 17.5968 110.6 17.1245 110.493 16.711C109.096 17.6472 107.472 18.4134 105.75 18.3117C104.974 18.363 104.161 18.1866 103.532 17.7144C103.154 17.3448 102.712 17.0004 102.507 16.4964C102.139 15.7217 102.076 14.8472 102.11 14.0025C102.111 11.294 102.108 8.58635 102.111 5.87875Z" fill="#151515"/>
<path d="M126.596 5.35326C127.081 5.30659 127.57 5.35139 128.058 5.33273C128.286 5.34953 128.573 5.27299 128.737 5.48206C128.896 5.59499 128.898 5.79379 128.899 5.97019C128.892 9.82953 128.9 13.6898 128.895 17.5491C128.915 17.7517 128.726 17.9495 128.522 17.9318C127.873 17.9486 127.222 17.9327 126.573 17.9327C126.393 17.7209 126.279 17.4577 126.284 17.1777C126.281 13.505 126.286 9.83139 126.282 6.15873C126.292 5.87219 126.336 5.52686 126.596 5.35326Z" fill="#151515"/>
<path d="M43.4314 19.4437C44.4487 18.7876 45.6583 18.4926 46.853 18.4021C47.6818 18.432 48.5265 18.3134 49.3385 18.529C49.6343 18.6074 49.9759 18.6373 50.1943 18.8772C50.4687 19.1273 50.5285 19.5277 50.493 19.8805C50.3969 20.6664 50.2653 21.4522 50.0189 22.2054C49.611 23.2918 49.0939 24.3764 48.2418 25.1884C47.9963 25.4096 47.777 25.7362 47.4251 25.7754C47.2861 25.7241 47.0845 25.5785 47.1563 25.4068C47.5959 24.2644 48.0747 23.1276 48.3501 21.931C48.4761 21.4485 48.4518 20.9492 48.4359 20.4564C47.9935 20.0354 47.3533 20.1157 46.7979 20.0345C46.4125 19.9477 46.0317 20.1176 45.6443 20.084C45.0881 20.0532 44.5402 20.1736 43.9877 20.2072C43.6451 20.2352 43.1663 20.4218 42.9526 20.0438C42.9358 19.7601 43.2317 19.594 43.4314 19.4437Z" fill="#3F00ED"/>
<path d="M11.3349 19.1618C11.7082 19.062 12.0022 19.3784 12.313 19.5268C17.0814 22.1886 22.4369 23.7473 27.8689 24.2308C28.3103 24.3176 28.7611 24.2578 29.2063 24.3008C30.0734 24.4492 30.9554 24.3456 31.8299 24.3782C32.4898 24.4277 33.1338 24.2401 33.7937 24.2821C35.3318 24.1346 36.8727 23.9685 38.3875 23.6502C40.6387 23.2237 42.8405 22.5601 44.9797 21.7462C45.5163 21.5633 46.0418 21.1862 46.6335 21.3141C46.8314 21.4616 47.0162 21.6744 47.0433 21.9273C46.8715 22.4705 46.2957 22.6964 45.871 23.0062C44.8798 23.7118 43.7775 24.2336 42.6911 24.774C39.8687 26.0162 36.8559 26.8292 33.7899 27.167C32.305 27.3584 30.8033 27.2352 29.3099 27.2688C28.3766 27.3182 27.4545 27.1512 26.5305 27.0485C23.1266 26.5538 19.7983 25.4842 16.7809 23.8276C14.9991 22.8382 13.3051 21.6884 11.7679 20.3481C11.5197 20.1054 11.0707 19.9188 11.1053 19.5146C11.0903 19.3541 11.2154 19.2421 11.3349 19.1618Z" fill="#3F00ED"/>
</g>
<defs>
<clipPath id="clip0_10_2619">
<rect width="140" height="27.16" fill="white" transform="translate(0.75 0.189087)"/>
</clipPath>
</defs>
</svg>
