<svg width="141" height="43" viewBox="0 0 141 43" fill="none" xmlns="http://www.w3.org/2000/svg">
<g clip-path="url(#clip0_10_2824)">
<path d="M21.8374 0.545044H22.6662C26.7127 0.589844 30.7705 1.73448 34.1327 4.01032C37.3393 6.1764 40.053 9.12984 41.7678 12.6119C43.6404 16.4311 44.1556 20.8282 43.5631 25.0159C43.095 28.3524 41.7476 31.5522 39.7047 34.229C37.7649 36.767 35.321 38.9375 32.511 40.4663C29.319 42.2079 25.6588 43.002 22.0356 42.9516C17.9902 42.9415 13.9246 41.8226 10.5444 39.5759C7.39272 37.4826 4.71816 34.6278 2.96648 31.2644C1.55416 28.5462 0.84968 25.4953 0.75 22.441V21.0937C0.83064 18.7159 1.25176 16.3393 2.12088 14.1183C3.69896 10.0393 6.67368 6.58408 10.2554 4.1156C13.639 1.78376 17.7415 0.595444 21.8374 0.545044ZM20.7454 7.6884C19.1953 7.83736 17.6654 8.2316 16.2497 8.88456C13.3769 10.2218 10.9622 12.5279 9.47256 15.3234C7.86872 18.3833 7.56072 22.0468 8.39736 25.3788C9.20376 28.5786 11.3015 31.3529 13.9514 33.2737C16.0402 34.7935 18.5703 35.675 21.1452 35.8418C24.1894 36.0681 27.331 35.3972 29.9114 33.7351C32.8134 31.8658 35.1463 29.0009 36.0748 25.6465C36.7748 23.1086 36.7726 20.3769 36.0714 17.8401C35.1105 14.3938 32.6767 11.4606 29.6505 9.6036C27.0073 7.98072 23.813 7.39048 20.7454 7.6884Z" fill="#FF0000"/>
<path d="M21.0881 10.4884C23.6025 10.2566 26.2278 10.7483 28.3693 12.1247C30.8624 13.7219 32.8593 16.2262 33.4966 19.1527C34.0006 21.4857 33.8472 23.9923 32.8952 26.1931C31.9129 28.4331 30.1579 30.3012 28.0713 31.5556C25.5345 33.0575 22.4131 33.3879 19.5582 32.7719C16.8377 32.1828 14.4544 30.4513 12.8181 28.2281C11.5233 26.4831 10.8256 24.3283 10.7741 22.1611C10.6856 19.8908 11.2545 17.5769 12.5302 15.6852C13.9829 13.5359 16.1064 11.7932 18.5905 10.9924C19.4003 10.7303 20.2403 10.5635 21.0881 10.4884ZM17.9712 15.4881C17.9689 19.6623 17.9701 23.8366 17.9701 28.0108C21.6918 25.9209 25.4259 23.8511 29.1387 21.7444C25.4147 19.6612 21.6941 17.5713 17.9712 15.4881Z" fill="#FF0000"/>
<path d="M118.815 4.70691C119.797 4.59043 120.887 4.55571 121.763 5.08883C122.626 5.64995 122.825 6.76548 122.853 7.72083C122.86 8.66948 122.853 9.70996 122.288 10.5186C121.776 11.2175 120.846 11.3653 120.038 11.3844C119.156 11.3967 118.148 11.3698 117.471 10.7236C116.847 10.0773 116.743 9.12643 116.716 8.27187C116.706 7.41843 116.736 6.51124 117.16 5.7474C117.492 5.14371 118.152 4.80323 118.815 4.70691Z" fill="black"/>
<path d="M51.6193 5.27699C54.2826 5.27699 56.9449 5.27699 59.6082 5.27699C60.6028 10.0045 61.6365 14.7231 62.5997 19.4573C63.3479 23.3863 63.8956 27.3511 64.3985 31.3181C64.4701 31.3181 64.6124 31.317 64.6841 31.3159C65.4333 26.3834 66.065 21.4274 67.1089 16.5453C67.8817 12.7866 68.6556 9.02899 69.4317 5.27027C72.1186 5.26915 74.8044 5.27027 77.4913 5.27027C77.4913 16.374 77.4913 27.4776 77.4913 38.5813C75.8393 38.5847 74.1873 38.5813 72.5353 38.5824C72.5353 29.6728 72.5341 20.7621 72.5353 11.8514C72.5341 11.6207 72.5185 11.39 72.4972 11.1604C72.0178 13.808 71.441 16.4378 70.9359 19.0821C69.6356 25.5804 68.3577 32.0831 67.0473 38.5791C65.3986 38.5712 63.75 38.5791 62.1002 38.5746C61.0429 33.3621 59.9913 28.1485 58.9351 22.9349C58.1477 19.006 57.3279 15.0826 56.5741 11.1469C56.5775 20.2917 56.5741 29.4365 56.5753 38.5813C54.9233 38.5847 53.2713 38.5802 51.6193 38.5836C51.6193 27.481 51.6193 16.3796 51.6193 5.27699Z" fill="black"/>
<path d="M20.7453 7.6883C23.813 7.39038 27.0072 7.98062 29.6504 9.6035C32.6767 11.4605 35.1104 14.3937 36.0714 17.84C36.7725 20.3768 36.7748 23.1085 36.0748 25.6464C35.1463 29.0008 32.8133 31.8657 29.9114 33.735C27.3309 35.3971 24.1893 36.068 21.1452 35.8417C18.5703 35.6749 16.0402 34.7934 13.9514 33.2736C11.3015 31.3528 9.20371 28.5785 8.39731 25.3787C7.56067 22.0467 7.86867 18.3832 9.47251 15.3233C10.9621 12.5278 13.3768 10.2217 16.2496 8.88446C17.6653 8.2315 19.1952 7.83726 20.7453 7.6883ZM21.088 10.4883C20.2402 10.5633 19.4002 10.7302 18.5904 10.9923C16.1063 11.7931 13.9828 13.5358 12.5301 15.6851C11.2544 17.5768 10.6855 19.8907 10.774 22.1609C10.8255 24.3281 11.5232 26.483 12.818 28.228C14.4543 30.4512 16.8376 32.1827 19.5581 32.7718C22.413 33.3878 25.5344 33.0574 28.0712 31.5555C30.1578 30.3011 31.9128 28.4329 32.8951 26.1929C33.8471 23.9921 34.0005 21.4856 33.4965 19.1526C32.8592 16.2261 30.8623 13.7217 28.3692 12.1246C26.2277 10.7481 23.6024 10.2565 21.088 10.4883Z" fill="white"/>
<path d="M128.821 15.068C130.178 14.0488 131.931 13.7845 133.586 13.7811C135.159 13.7845 136.823 13.9805 138.155 14.8854C139.186 15.5754 139.835 16.7099 140.146 17.8904C140.607 19.613 140.563 21.4218 140.421 23.1858C138.784 23.291 137.149 23.3941 135.514 23.5005C135.489 22.0467 135.515 20.575 135.206 19.1459C135.06 18.5557 134.816 17.8781 134.209 17.625C133.566 17.3819 132.705 17.476 132.287 18.0741C131.951 18.5434 131.834 19.1235 131.741 19.6824C131.56 20.911 131.551 22.1565 131.538 23.3963C131.539 25.4493 131.536 27.5011 131.539 29.553C131.566 30.9003 131.558 32.2623 131.828 33.5895C131.961 34.1898 132.205 34.8797 132.826 35.1283C133.374 35.3187 134.03 35.293 134.527 34.976C135.094 34.5829 135.298 33.8728 135.43 33.2322C135.652 32.0248 135.664 30.7917 135.667 29.5675C137.321 29.6504 138.974 29.7232 140.627 29.8095C140.667 31.8423 140.619 33.9702 139.741 35.8451C139.19 37.0245 138.185 37.9944 136.96 38.4491C135.568 38.9733 134.05 39.0271 132.58 38.9643C131.118 38.8893 129.585 38.5656 128.438 37.6024C127.305 36.6571 126.72 35.2314 126.395 33.828C125.779 31.1031 125.902 28.2907 125.889 25.5187C125.874 23.2888 125.921 21.0264 126.498 18.8592C126.885 17.4133 127.591 15.9763 128.821 15.068Z" fill="black"/>
<path d="M101.495 15.2819C102.673 14.3187 104.216 13.9581 105.702 13.8495C106.914 13.7767 108.145 13.8002 109.332 14.0735C110.722 14.3703 112.044 15.1834 112.731 16.4579C113.677 18.1995 113.708 20.2592 113.601 22.1901C112.018 22.2528 110.435 22.3211 108.851 22.385C108.831 21.3333 108.813 20.2671 108.56 19.24C108.412 18.6543 108.109 18.0192 107.504 17.7952C106.923 17.5891 106.27 17.6283 105.684 17.7997C105.124 17.9587 104.683 18.437 104.561 19.0048C104.323 20.0487 104.564 21.2135 105.275 22.0277C106.116 22.9987 107.237 23.6562 108.254 24.4223C109.865 25.6151 111.562 26.7843 112.747 28.433C113.919 30.0659 114.114 32.1951 113.817 34.1327C113.596 35.5819 112.862 36.9954 111.632 37.8343C110.044 38.9408 108.033 39.1659 106.146 39.1323C104.422 39.0864 102.584 38.7482 101.241 37.589C100.081 36.6045 99.5531 35.0656 99.4803 33.5816C99.4299 32.7719 99.4926 31.9599 99.6057 31.1579C101.202 31.1344 102.798 31.1042 104.394 31.0818C104.3 32.2298 104.347 33.4954 105.042 34.4675C105.751 35.4722 107.288 35.5831 108.26 34.9133C109.023 34.3746 109.213 33.3061 108.951 32.4527C108.686 31.6216 108.046 30.9855 107.413 30.4165C105.75 28.9549 103.844 27.7957 102.216 26.2915C101.257 25.3978 100.422 24.3248 99.9955 23.0715C99.5374 21.7432 99.4769 20.3051 99.6426 18.9186C99.8095 17.5443 100.395 16.1645 101.495 15.2819Z" fill="black"/>
<path d="M81.2208 14.246C83.1035 14.2427 84.9874 14.246 86.8701 14.2438C86.8723 20.2783 86.869 26.3118 86.8723 32.3463C86.9003 33.099 86.9194 33.9065 87.3237 34.5684C87.6037 35.0254 88.1805 35.1878 88.6879 35.1183C89.613 35.0254 90.4899 34.4183 90.8752 33.5716C90.8909 27.1316 90.8775 20.6916 90.8819 14.2527C92.7647 14.2505 94.6485 14.2505 96.5323 14.2516C96.5256 22.3638 96.5391 30.4748 96.5256 38.5859C95.0517 38.5769 93.5789 38.5881 92.1061 38.5814C91.9471 37.5767 91.7824 36.5732 91.6099 35.5708C91.424 35.6335 91.3792 35.8475 91.2751 35.9897C90.4866 37.3639 89.1739 38.4839 87.5992 38.8155C86.3616 39.0719 85.0176 39.063 83.8427 38.5534C82.8459 38.1255 82.1303 37.2172 81.7696 36.2137C81.3037 34.947 81.213 33.5795 81.2219 32.2399C81.2219 26.2423 81.2231 20.2436 81.2208 14.246Z" fill="black"/>
<path d="M117.041 14.2449C118.845 14.2437 120.648 14.2437 122.451 14.2449C122.452 22.3548 122.451 30.4658 122.452 38.5769C120.648 38.5757 118.845 38.5757 117.042 38.5769C117.041 30.4658 117.041 22.3548 117.041 14.2449Z" fill="black"/>
<path d="M17.9711 15.488C21.694 17.5712 25.4146 19.6612 29.1386 21.7444C25.4258 23.8511 21.6918 25.9208 17.97 28.0108C17.97 23.8365 17.9689 19.6623 17.9711 15.488Z" fill="white"/>
</g>
<defs>
<clipPath id="clip0_10_2824">
<rect width="140" height="42.448" fill="white" transform="translate(0.75 0.545044)"/>
</clipPath>
</defs>
</svg>
