<?xml version="1.0" encoding="UTF-8" ?>
<!DOCTYPE svg PUBLIC "-//W3C//DTD SVG 1.1//EN" "http://www.w3.org/Graphics/SVG/1.1/DTD/svg11.dtd">
<svg width="1250pt" height="379pt" viewBox="0 0 1250 379" version="1.1" xmlns="http://www.w3.org/2000/svg">
<g id="#ff0000ff">
<path fill="#ff0000" opacity="1.00" d=" M 188.28 0.00 L 195.68 0.00 C 231.81 0.40 268.04 10.62 298.06 30.94 C 326.69 50.28 350.92 76.65 366.23 107.74 C 382.95 141.84 387.55 181.10 382.26 218.49 C 378.08 248.28 366.05 276.85 347.81 300.75 C 330.49 323.41 308.67 342.79 283.58 356.44 C 255.08 371.99 222.40 379.08 190.05 378.63 C 153.93 378.54 117.63 368.55 87.45 348.49 C 59.31 329.80 35.43 304.31 19.79 274.28 C 7.18 250.01 0.89 222.77 0.00 195.50 L 0.00 183.47 C 0.72 162.24 4.48 141.02 12.24 121.19 C 26.33 84.77 52.89 53.92 84.87 31.88 C 115.08 11.06 151.71 0.45 188.28 0.00 M 178.53 63.78 C 164.69 65.11 151.03 68.63 138.39 74.46 C 112.74 86.40 91.18 106.99 77.88 131.95 C 63.56 159.27 60.81 191.98 68.28 221.73 C 75.48 250.30 94.21 275.07 117.87 292.22 C 136.52 305.79 159.11 313.66 182.10 315.15 C 209.28 317.17 237.33 311.18 260.37 296.34 C 286.28 279.65 307.11 254.07 315.40 224.12 C 321.65 201.46 321.63 177.07 315.37 154.42 C 306.79 123.65 285.06 97.46 258.04 80.88 C 234.44 66.39 205.92 61.12 178.53 63.78 Z" />
<path fill="#ff0000" opacity="1.00" d=" M 181.59 88.78 C 204.04 86.71 227.48 91.10 246.60 103.39 C 268.86 117.65 286.69 140.01 292.38 166.14 C 296.88 186.97 295.51 209.35 287.01 229.00 C 278.24 249.00 262.57 265.68 243.94 276.88 C 221.29 290.29 193.42 293.24 167.93 287.74 C 143.64 282.48 122.36 267.02 107.75 247.17 C 96.19 231.59 89.96 212.35 89.50 193.00 C 88.71 172.73 93.79 152.07 105.18 135.18 C 118.15 115.99 137.11 100.43 159.29 93.28 C 166.52 90.94 174.02 89.45 181.59 88.78 M 153.76 133.42 C 153.74 170.69 153.75 207.96 153.75 245.23 C 186.98 226.57 220.32 208.09 253.47 189.28 C 220.22 170.68 187.00 152.02 153.76 133.42 Z" />
</g>
<g id="#ffffffff">
<path fill="#ffffff" opacity="1.00" d=" M 1054.15 37.16 C 1062.92 36.12 1072.65 35.81 1080.47 40.57 C 1088.18 45.58 1089.96 55.54 1090.21 64.07 C 1090.27 72.54 1090.21 81.83 1085.16 89.05 C 1080.59 95.29 1072.29 96.61 1065.07 96.78 C 1057.20 96.89 1048.20 96.65 1042.15 90.88 C 1036.58 85.11 1035.65 76.62 1035.41 68.99 C 1035.32 61.37 1035.59 53.27 1039.38 46.45 C 1042.34 41.06 1048.23 38.02 1054.15 37.16 Z" />
<path fill="#ffffff" opacity="1.00" d=" M 454.19 42.25 C 477.97 42.25 501.74 42.25 525.52 42.25 C 534.40 84.46 543.63 126.59 552.23 168.86 C 558.91 203.94 563.80 239.34 568.29 274.76 C 568.93 274.76 570.20 274.75 570.84 274.74 C 577.53 230.70 583.17 186.45 592.49 142.86 C 599.39 109.30 606.30 75.75 613.23 42.19 C 637.22 42.18 661.20 42.19 685.19 42.19 C 685.19 141.33 685.19 240.47 685.19 339.61 C 670.44 339.64 655.69 339.61 640.94 339.62 C 640.94 260.07 640.93 180.51 640.94 100.95 C 640.93 98.89 640.79 96.83 640.60 94.78 C 636.32 118.42 631.17 141.90 626.66 165.51 C 615.05 223.53 603.64 281.59 591.94 339.59 C 577.22 339.52 562.50 339.59 547.77 339.55 C 538.33 293.01 528.94 246.46 519.51 199.91 C 512.48 164.83 505.16 129.80 498.43 94.66 C 498.46 176.31 498.43 257.96 498.44 339.61 C 483.69 339.64 468.94 339.60 454.19 339.63 C 454.19 240.50 454.19 141.38 454.19 42.25 Z" />
<path fill="#ffffff" opacity="1.00" d=" M 178.53 63.78 C 205.92 61.12 234.44 66.39 258.04 80.88 C 285.06 97.46 306.79 123.65 315.37 154.42 C 321.63 177.07 321.65 201.46 315.40 224.12 C 307.11 254.07 286.28 279.65 260.37 296.34 C 237.33 311.18 209.28 317.17 182.10 315.15 C 159.11 313.66 136.52 305.79 117.87 292.22 C 94.21 275.07 75.48 250.30 68.28 221.73 C 60.81 191.98 63.56 159.27 77.88 131.95 C 91.18 106.99 112.74 86.40 138.39 74.46 C 151.03 68.63 164.69 65.11 178.53 63.78 M 181.59 88.78 C 174.02 89.45 166.52 90.94 159.29 93.28 C 137.11 100.43 118.15 115.99 105.18 135.18 C 93.79 152.07 88.71 172.73 89.50 193.00 C 89.96 212.35 96.19 231.59 107.75 247.17 C 122.36 267.02 143.64 282.48 167.93 287.74 C 193.42 293.24 221.29 290.29 243.94 276.88 C 262.57 265.68 278.24 249.00 287.01 229.00 C 295.51 209.35 296.88 186.97 292.38 166.14 C 286.69 140.01 268.86 117.65 246.60 103.39 C 227.48 91.10 204.04 86.71 181.59 88.78 Z" />
<path fill="#ffffff" opacity="1.00" d=" M 1143.49 129.67 C 1155.61 120.57 1171.26 118.21 1186.04 118.18 C 1200.08 118.21 1214.94 119.96 1226.83 128.04 C 1236.04 134.20 1241.83 144.33 1244.61 154.87 C 1248.72 170.25 1248.33 186.40 1247.06 202.15 C 1232.45 203.09 1217.85 204.01 1203.25 204.96 C 1203.03 191.98 1203.26 178.84 1200.50 166.08 C 1199.20 160.81 1197.02 154.76 1191.60 152.50 C 1185.86 150.33 1178.17 151.17 1174.44 156.51 C 1171.44 160.70 1170.39 165.88 1169.56 170.87 C 1167.95 181.84 1167.87 192.96 1167.75 204.03 C 1167.76 222.36 1167.73 240.68 1167.76 259.00 C 1168.00 271.03 1167.93 283.19 1170.34 295.04 C 1171.53 300.40 1173.71 306.56 1179.25 308.78 C 1184.14 310.48 1190.00 310.25 1194.44 307.42 C 1199.50 303.91 1201.32 297.57 1202.50 291.85 C 1204.48 281.07 1204.59 270.06 1204.62 259.13 C 1219.38 259.87 1234.14 260.52 1248.90 261.29 C 1249.26 279.44 1248.83 298.44 1240.99 315.18 C 1236.07 325.71 1227.10 334.37 1216.16 338.43 C 1203.73 343.11 1190.18 343.59 1177.05 343.03 C 1164.00 342.36 1150.31 339.47 1140.07 330.87 C 1129.96 322.43 1124.73 309.70 1121.83 297.17 C 1116.33 272.84 1117.43 247.73 1117.31 222.98 C 1117.18 203.07 1117.60 182.87 1122.75 163.52 C 1126.21 150.61 1132.51 137.78 1143.49 129.67 Z" />
<path fill="#ffffff" opacity="1.00" d=" M 899.51 131.58 C 910.03 122.98 923.80 119.76 937.07 118.79 C 947.89 118.14 958.88 118.35 969.48 120.79 C 981.89 123.44 993.70 130.70 999.83 142.08 C 1008.28 157.63 1008.55 176.02 1007.60 193.26 C 993.46 193.82 979.33 194.43 965.19 195.00 C 965.01 185.61 964.85 176.09 962.59 166.92 C 961.27 161.69 958.56 156.02 953.16 154.02 C 947.97 152.18 942.14 152.53 936.91 154.06 C 931.91 155.48 927.97 159.75 926.88 164.82 C 924.76 174.14 926.91 184.54 933.26 191.81 C 940.77 200.48 950.78 206.35 959.86 213.19 C 974.24 223.84 989.39 234.28 999.97 249.00 C 1010.44 263.58 1012.18 282.59 1009.53 299.89 C 1007.55 312.83 1001.00 325.45 990.02 332.94 C 975.84 342.82 957.88 344.83 941.04 344.53 C 925.64 344.12 909.23 341.10 897.24 330.75 C 886.88 321.96 882.17 308.22 881.52 294.97 C 881.07 287.74 881.63 280.49 882.64 273.33 C 896.89 273.12 911.14 272.85 925.39 272.65 C 924.55 282.90 924.97 294.20 931.18 302.88 C 937.51 311.85 951.23 312.84 959.91 306.86 C 966.72 302.05 968.42 292.51 966.08 284.89 C 963.71 277.47 958.00 271.79 952.35 266.71 C 937.50 253.66 920.48 243.31 905.95 229.88 C 897.38 221.90 889.93 212.32 886.12 201.13 C 882.03 189.27 881.49 176.43 882.97 164.05 C 884.46 151.78 889.69 139.46 899.51 131.58 Z" />
<path fill="#ffffff" opacity="1.00" d=" M 718.49 122.33 C 735.30 122.30 752.12 122.33 768.93 122.31 C 768.95 176.19 768.92 230.06 768.95 283.94 C 769.20 290.66 769.37 297.87 772.98 303.78 C 775.48 307.86 780.63 309.31 785.16 308.69 C 793.42 307.86 801.25 302.44 804.69 294.88 C 804.83 237.38 804.71 179.88 804.75 122.39 C 821.56 122.37 838.38 122.37 855.20 122.38 C 855.14 194.81 855.26 267.23 855.14 339.65 C 841.98 339.57 828.83 339.67 815.68 339.61 C 814.26 330.64 812.79 321.68 811.25 312.73 C 809.59 313.29 809.19 315.20 808.26 316.47 C 801.22 328.74 789.50 338.74 775.44 341.70 C 764.39 343.99 752.39 343.91 741.90 339.36 C 733.00 335.54 726.61 327.43 723.39 318.47 C 719.23 307.16 718.42 294.95 718.50 282.99 C 718.50 229.44 718.51 175.88 718.49 122.33 Z" />
<path fill="#ffffff" opacity="1.00" d=" M 1038.31 122.32 C 1054.42 122.31 1070.52 122.31 1086.62 122.32 C 1086.63 194.73 1086.62 267.15 1086.63 339.57 C 1070.52 339.56 1054.42 339.56 1038.32 339.57 C 1038.31 267.15 1038.31 194.73 1038.31 122.32 Z" />
<path fill="#ffffff" opacity="1.00" d=" M 153.76 133.42 C 187.00 152.02 220.22 170.68 253.47 189.28 C 220.32 208.09 186.98 226.57 153.75 245.23 C 153.75 207.96 153.74 170.69 153.76 133.42 Z" />
</g>
</svg>
