<svg width="280" height="280" viewBox="0 0 280 280" fill="none" xmlns="http://www.w3.org/2000/svg">
<rect width="280" height="280" rx="50" fill="white"/>
<path d="M58.0231 36.7513C91.4237 37.4795 124.98 35.139 158.277 37.8436C203.435 43.617 236.055 95.7332 215.921 138.123C197.036 181.241 140.692 190.448 100.944 172.763C100.996 196.325 100.944 219.886 100.892 243.5C86.5853 243.448 72.2782 243.448 58.0231 243.396C58.0231 174.532 57.9711 105.616 58.0231 36.7513ZM100.944 77.0608C100.892 97.3976 100.944 117.734 100.892 138.071C121.13 143.481 144.698 149.67 163.584 137.135C180.856 126.472 183.301 98.906 166.965 86.319C148.34 71.4435 122.847 78.4652 100.944 77.0608Z" fill="#410FF8"/>
</svg>
