<svg width="1000" height="143" viewBox="0 0 1000 143" fill="none" xmlns="http://www.w3.org/2000/svg">
<path d="M402.637 1.05248C412.499 -2.89434 425.117 4.75451 424.535 15.7383C425.056 28.3743 408.119 36.1455 398.778 27.7012C389.314 20.8784 391.611 4.90752 402.637 1.05248Z" fill="#CACACA"/>
<path d="M977.016 8.85425C984.673 8.82365 992.33 8.82365 999.986 8.85425C1000.02 52.4223 999.986 96.021 999.986 139.589C992.33 139.62 984.673 139.62 977.016 139.589C977.016 96.021 976.985 52.4223 977.016 8.85425Z" fill="#CACACA"/>
<path d="M0.013612 18.033C19.6762 18.4613 39.4306 17.0845 59.0319 18.6755C85.6162 22.0716 104.819 52.7283 92.9667 77.6637C81.8491 103.027 48.68 108.443 25.2809 98.0404C25.3115 111.9 25.2809 125.76 25.2503 139.65C16.8278 139.62 8.40542 139.62 0.013612 139.589C0.013612 99.0806 -0.017015 58.5415 0.013612 18.033ZM25.2809 41.7445C25.2503 53.7074 25.2809 65.6703 25.2503 77.6331C37.1642 80.8151 51.0383 84.4559 62.1559 77.0824C72.3241 70.8103 73.7635 54.5946 64.1466 47.1905C53.1822 38.4402 38.1749 42.5706 25.2809 41.7445Z" fill="#CACACA"/>
<path d="M554.363 18.033C588.573 18.0024 622.753 18.0024 656.964 18.033C656.964 25.4065 656.964 32.78 656.964 40.1841C643.947 40.1841 630.9 40.1535 617.883 40.2147C617.945 73.1049 617.914 105.965 617.914 138.855C609.461 138.855 601.039 138.855 592.647 138.855C592.616 105.965 592.647 73.0744 592.616 40.1841C579.875 40.1841 567.104 40.1841 554.363 40.1841C554.363 32.78 554.363 25.4065 554.363 18.033Z" fill="#CACACA"/>
<path d="M800.666 21.0619C804.555 21.0619 808.475 21.0619 812.396 21.0925C812.396 29.9958 812.396 38.8991 812.396 47.833C820.818 47.833 829.241 47.833 837.694 47.8636C837.663 54.2274 837.632 60.5913 837.663 66.9552C829.241 66.9552 820.818 66.9552 812.396 66.9858C813.008 82.3141 811.14 97.8567 813.284 113.063C817.633 123.19 830.711 119.488 838.521 116.061C838.398 122.241 838.367 128.452 838.429 134.663C824.218 146.687 797.817 144.362 791.141 125.24C786.393 106.24 789.579 86.3528 788.629 66.9858C783.269 66.9552 777.91 66.9552 772.581 66.9552C772.581 63.1919 772.611 59.3981 772.672 55.6349C787.098 49.271 795.582 35.35 800.666 21.0619Z" fill="#CACACA"/>
<path d="M158.172 47.833C164.297 45.0182 171.096 46.6397 177.467 47.527C177.62 56.3997 177.712 65.2724 177.804 74.1757C173.148 72.5848 168.615 70.3207 163.654 70.076C152.934 70.1677 144.971 79.377 141.235 88.5863C140.316 105.567 141.235 122.608 140.867 139.62C133.241 139.62 125.584 139.62 117.958 139.65C117.805 109.055 118.02 78.4897 117.866 47.9248C125.554 47.833 133.241 47.833 140.929 47.8024C140.867 53.432 140.806 59.0921 140.714 64.7523C145.706 58.4496 150.423 51.0761 158.172 47.833Z" fill="#CACACA"/>
<path d="M203.438 59.0004C220.222 41.1632 252.901 40.5514 268.735 59.9489C278.413 71.0857 279.24 86.567 278.812 100.61C256.699 100.58 234.586 100.763 212.504 100.488C214.127 108.81 219.855 116.398 228.063 119.121C241.171 124.016 255.382 119.427 267.326 113.43C267.204 120.467 267.173 127.504 267.143 134.541C247.388 145.708 220.253 144.79 203.592 128.452C184.297 110.646 184.909 77.1436 203.438 59.0004ZM212.075 85.0066C227.174 85.5268 242.243 85.4044 257.342 85.1596C255.627 72.6155 243.437 62.7943 230.788 66.0986C220.865 67.3836 215.444 76.5623 212.075 85.0066Z" fill="#CACACA"/>
<path d="M307.999 59.5512C323.588 43.1214 351.153 40.9185 369.131 54.7171C369.039 61.7541 369.069 68.791 369.161 75.828C357.615 68.944 342.148 64.6301 329.867 72.1872C314.645 81.1823 314.186 106.699 329.622 115.694C341.964 123.251 357.492 119.029 369.131 112.114C369.039 119.029 369.039 125.944 369.253 132.889C349.591 148.523 318.075 143.322 303.558 123.129C288.949 104.68 291.215 75.8892 307.999 59.5512Z" fill="#CACACA"/>
<path d="M383.648 47.8025C396.144 47.8331 408.639 47.8331 421.135 47.8636C421.135 78.4286 421.135 109.024 421.135 139.589C413.479 139.62 405.822 139.62 398.165 139.589C398.165 115.388 398.165 91.1869 398.165 66.9859C393.295 66.9553 388.456 66.9553 383.617 66.9553C383.617 60.5608 383.648 54.197 383.648 47.8025Z" fill="#CACACA"/>
<path d="M476.754 48.0473C503.89 38.0731 536.783 57.4095 540.703 86.1387C545.604 111.808 525.604 138.029 499.939 141.394C475.529 145.892 449.282 128.82 444.443 104.343C438.532 80.8151 453.6 54.9619 476.754 48.0473ZM482.91 69.4642C462.451 76.9907 462.543 111.441 483.523 118.233C497.948 124.2 515.528 113.491 516.63 97.8568C520.704 79.3771 500.704 61.2034 482.91 69.4642Z" fill="#CACACA"/>
<path d="M699.688 46.9458C727.069 39.3275 758.125 60.316 760.207 88.8311C763.638 114.378 742.811 139.191 717.421 141.608C691.45 145.586 664.62 124.995 662.783 98.6217C659.843 75.3079 676.81 51.9023 699.688 46.9458ZM703.149 69.0052C681.71 75.8892 681.526 111.625 703.088 118.417C719.81 125.056 738.768 109.636 735.92 91.9824C736.533 75.6138 718.34 63.0391 703.149 69.0052Z" fill="#CACACA"/>
<path d="M882.378 48.2614C897.018 42.1117 914.139 46.7928 925.164 57.7766C925.042 54.4417 924.95 51.1374 924.889 47.8636C932.791 47.833 940.723 47.8331 948.686 47.8331C948.686 78.4286 948.686 109.024 948.686 139.62C940.723 139.62 932.791 139.62 924.858 139.62C924.95 134.816 925.073 130.013 925.256 125.24C917.569 135.612 905.532 144.056 891.965 141.853C870.189 140.323 855.09 118.937 855.029 98.1933C853.222 78.3062 862.501 55.5125 882.378 48.2614ZM888.167 114.623C897.416 122.15 912.179 119.702 919.315 110.401C927.155 101.651 924.613 89.1982 924.919 78.4898C916.803 71.7282 906.114 64.9972 895.15 69.0664C876.804 75.0019 873.129 103.211 888.167 114.623Z" fill="#CACACA"/>
</svg>
