<svg width="436" height="63" viewBox="0 0 436 63" fill="none" xmlns="http://www.w3.org/2000/svg">
<path d="M175.947 0.946702C180.24 -0.773298 185.733 2.56002 185.48 7.34669C185.707 12.8534 178.333 16.24 174.267 12.56C170.147 9.58669 171.147 2.6267 175.947 0.946702Z" fill="white"/>
<path d="M426 4.34667C429.333 4.33334 432.667 4.33334 436 4.34667C436.013 23.3333 436 42.3334 436 61.32C432.667 61.3334 429.333 61.3334 426 61.32C426 42.3334 425.987 23.3333 426 4.34667Z" fill="white"/>
<path d="M0.666693 8.34666C9.22669 8.53332 17.8267 7.93333 26.36 8.62667C37.9334 10.1067 46.2934 23.4667 41.1334 34.3333C36.2934 45.3867 21.8534 47.7467 11.6667 43.2133C11.68 49.2533 11.6667 55.2933 11.6534 61.3467C7.98669 61.3333 4.32003 61.3333 0.666693 61.32C0.666693 43.6667 0.653359 26 0.666693 8.34666ZM11.6667 18.68C11.6534 23.8933 11.6667 29.1067 11.6534 34.32C16.84 35.7067 22.88 37.2933 27.72 34.08C32.1467 31.3467 32.7734 24.28 28.5867 21.0533C23.8134 17.24 17.28 19.04 11.6667 18.68Z" fill="white"/>
<path d="M242 8.34667C256.893 8.33334 271.773 8.33334 286.667 8.34667C286.667 11.56 286.667 14.7733 286.667 18C281 18 275.32 17.9867 269.653 18.0133C269.68 32.3467 269.667 46.6667 269.667 61C265.987 61 262.32 61 258.667 61C258.653 46.6667 258.667 32.3333 258.653 18C253.107 18 247.547 18 242 18C242 14.7733 242 11.56 242 8.34667Z" fill="white"/>
<path d="M349.227 9.66675C350.92 9.66675 352.627 9.66674 354.333 9.68007C354.333 13.5601 354.333 17.4401 354.333 21.3334C358 21.3334 361.667 21.3334 365.347 21.3467C365.333 24.1201 365.32 26.8934 365.333 29.6667C361.667 29.6667 358 29.6667 354.333 29.6801C354.6 36.3601 353.787 43.1334 354.72 49.7601C356.613 54.1734 362.307 52.5601 365.707 51.0668C365.653 53.7601 365.64 56.4668 365.667 59.1734C359.48 64.4134 347.987 63.4001 345.08 55.0668C343.013 46.7868 344.4 38.1201 343.987 29.6801C341.653 29.6667 339.32 29.6667 337 29.6667C337 28.0267 337.013 26.3734 337.04 24.7334C343.32 21.9601 347.013 15.8934 349.227 9.66675Z" fill="white"/>
<path d="M69.5201 21.3335C72.1867 20.1068 75.1467 20.8135 77.9201 21.2001C77.9867 25.0668 78.0267 28.9335 78.0667 32.8135C76.0401 32.1201 74.0667 31.1335 71.9067 31.0268C67.24 31.0668 63.7734 35.0801 62.1467 39.0935C61.7467 46.4935 62.1467 53.9201 61.9867 61.3335C58.6667 61.3335 55.3334 61.3335 52.0134 61.3468C51.9467 48.0135 52.0401 34.6935 51.9734 21.3735C55.3201 21.3335 58.6667 21.3335 62.0134 21.3201C61.9867 23.7735 61.9601 26.2401 61.9201 28.7068C64.0934 25.9601 66.1467 22.7468 69.5201 21.3335Z" fill="white"/>
<path d="M89.2267 26.2C96.5334 18.4266 110.76 18.16 117.653 26.6133C121.867 31.4667 122.227 38.2133 122.04 44.3333C112.413 44.32 102.787 44.4 93.1734 44.28C93.8801 47.9067 96.3734 51.2133 99.9467 52.4C105.653 54.5333 111.84 52.5333 117.04 49.92C116.987 52.9867 116.973 56.0533 116.96 59.12C108.36 63.9867 96.5467 63.5867 89.2934 56.4667C80.8934 48.7067 81.1601 34.1066 89.2267 26.2ZM92.9867 37.5333C99.5601 37.76 106.12 37.7067 112.693 37.6C111.947 32.1333 106.64 27.8533 101.133 29.2933C96.8134 29.8533 94.4534 33.8533 92.9867 37.5333Z" fill="white"/>
<path d="M134.747 26.44C141.533 19.28 153.533 18.32 161.36 24.3333C161.32 27.4 161.333 30.4666 161.373 33.5333C156.347 30.5333 149.613 28.6533 144.267 31.9467C137.64 35.8667 137.44 46.9866 144.16 50.9067C149.533 54.2 156.293 52.36 161.36 49.3467C161.32 52.36 161.32 55.3733 161.413 58.4C152.853 65.2133 139.133 62.9467 132.813 54.1467C126.453 46.1067 127.44 33.56 134.747 26.44Z" fill="white"/>
<path d="M167.68 21.3201C173.12 21.3334 178.56 21.3334 184 21.3467C184 34.6667 184 48.0001 184 61.3201C180.667 61.3334 177.333 61.3334 174 61.3201C174 50.7734 174 40.2267 174 29.6801C171.88 29.6667 169.773 29.6667 167.667 29.6667C167.667 26.8801 167.68 24.1067 167.68 21.3201Z" fill="white"/>
<path d="M208.213 21.4268C220.027 17.0802 234.347 25.5068 236.053 38.0268C238.187 49.2135 229.48 60.6401 218.307 62.1068C207.68 64.0668 196.253 56.6268 194.147 45.9601C191.573 35.7068 198.133 24.4402 208.213 21.4268ZM210.893 30.7602C201.987 34.0402 202.027 49.0535 211.16 52.0135C217.44 54.6135 225.093 49.9468 225.573 43.1335C227.347 35.0802 218.64 27.1602 210.893 30.7602Z" fill="white"/>
<path d="M305.267 20.9468C317.187 17.6268 330.707 26.7735 331.613 39.2001C333.107 50.3335 324.04 61.1468 312.987 62.2001C301.68 63.9335 290 54.9602 289.2 43.4668C287.92 33.3068 295.307 23.1068 305.267 20.9468ZM306.773 30.5602C297.44 33.5602 297.36 49.1335 306.747 52.0935C314.027 54.9868 322.28 48.2668 321.04 40.5735C321.307 33.4401 313.387 27.9602 306.773 30.5602Z" fill="white"/>
<path d="M384.8 21.5201C391.173 18.8401 398.627 20.8801 403.427 25.6668C403.373 24.2134 403.333 22.7734 403.307 21.3468C406.747 21.3334 410.2 21.3334 413.667 21.3334C413.667 34.6668 413.667 48.0001 413.667 61.3334C410.2 61.3334 406.747 61.3334 403.293 61.3334C403.333 59.2401 403.387 57.1468 403.467 55.0668C400.12 59.5868 394.88 63.2668 388.973 62.3068C379.493 61.6401 372.92 52.3201 372.893 43.2801C372.107 34.6134 376.147 24.6801 384.8 21.5201ZM387.32 50.4401C391.347 53.7201 397.773 52.6534 400.88 48.6001C404.293 44.7868 403.187 39.3601 403.32 34.6934C399.787 31.7468 395.133 28.8134 390.36 30.5868C382.373 33.1734 380.773 45.4668 387.32 50.4401Z" fill="white"/>
</svg>
